{
.appVersion = "1141";
copyright = "Copyright 2011, 2017 Google Inc. All Rights Reserved.";
customParameters = (
{
name = glyphOrder;
value = (
space,
nbspace,
A,
Agrave,
Aacute,
Acircumflex,
Atilde,
Adieresis,
Aring,
Amacron,
Abreve,
Aogonek,
Aringacute,
Adblgrave,
Ainvertedbreve,
Adotbelow,
Ahookabove,
Acircumflexacute,
Acircumflexgrave,
Acircumflexhookabove,
Acircumflextilde,
Acircumflexdotbelow,
Abreveacute,
Abrevegrave,
Abrevehookabove,
Abrevetilde,
Abrevedotbelow,
B,
C,
Ccedilla,
Cacute,
Ccircumflex,
Cdotaccent,
Ccaron,
D,
Dcaron,
E,
Egrave,
Eacute,
Ecircumflex,
Edieresis,
Emacron,
Ebreve,
Edotaccent,
Eogonek,
Ecaron,
Edblgrave,
Einvertedbreve,
Edotbelow,
Ehookabove,
Etilde,
Ecircumflexacute,
Ecircumflexgrave,
Ecircumflexhookabove,
Ecircumflextilde,
Ecircumflexdotbelow,
F,
G,
Gcircumflex,
Gbreve,
Gdotaccent,
Gcommaaccent,
Gcaron,
H,
Hcircumflex,
I,
Igrave,
Iacute,
Icircumflex,
Idieresis,
Itilde,
Imacron,
Ibreve,
Iogonek,
Idotaccent,
Idblgrave,
Iinvertedbreve,
Ihookabove,
Idotbelow,
J,
Jcircumflex,
K,
Kcommaaccent,
L,
Lacute,
Lcommaaccent,
Lcaron,
M,
N,
Ntilde,
Nacute,
Ncommaaccent,
Ncaron,
O,
Ograve,
Oacute,
Ocircumflex,
Otilde,
Odieresis,
Omacron,
Obreve,
Ohungarumlaut,
Ohorn,
Oogonek,
Odblgrave,
Oinvertedbreve,
Odieresismacron,
Otildemacron,
Odotaccentmacron,
Odotbelow,
Ohookabove,
Ocircumflexacute,
Ocircumflexgrave,
Ocircumflexhookabove,
Ocircumflextilde,
Ocircumflexdotbelow,
Ohornacute,
Ohorngrave,
Ohornhookabove,
Ohorntilde,
Ohorndotbelow,
P,
Q,
R,
Racute,
Rcommaaccent,
Rcaron,
Rdblgrave,
Rinvertedbreve,
S,
Sacute,
Scircumflex,
Scedilla,
Scaron,
Scommaaccent,
T,
Tcedilla,
Tcaron,
Tcommaaccent,
U,
Ugrave,
Uacute,
Ucircumflex,
Udieresis,
Utilde,
Umacron,
Ubreve,
Uring,
Uhungarumlaut,
Uogonek,
Uhorn,
Udblgrave,
Uinvertedbreve,
Udotbelow,
Uhookabove,
Uhornacute,
Uhorngrave,
Uhornhookabove,
Uhorntilde,
Uhorndotbelow,
V,
W,
Wcircumflex,
Wgrave,
Wacute,
Wdieresis,
X,
Y,
Yacute,
Ycircumflex,
Ydieresis,
Ymacron,
Ygrave,
Ydotbelow,
Yhookabove,
Ytilde,
Z,
Zacute,

glyphs = (
{
glyphname = A;
layers = (
{
layerId = "D8F064C8-C1A6-4DD6-979F-3446BEDB940F";
paths = (
{
closed = 1;
nodes = (
"690 1465 LINE",
"881 1465 LINE",
"1182 0 LINE",
"979 0 LINE",
"773 1085 LINE SMOOTH",
"766 1122 OFFCURVE",
"754 1190 OFFCURVE",
"751 1226 QCURVE",
"741 1226 LINE",
"727 1190 OFFCURVE",
"695 1122 OFFCURVE",
"675 1085 QCURVE SMOOTH",
"79 0 LINE",
"-128 0 LINE"
);
},
{
closed = 1;
nodes = (
"269 543 LINE",
"969 541 LINE",
"1004 369 LINE",
"179 371 LINE"
);
}
);
width = 1310;
}
);
leftKerningGroup = A_UC;
rightKerningGroup = A_UC;
unicode = 0041;
},
{
glyphname = B;
layers = (
{
layerId = "D8F064C8-C1A6-4DD6-979F-3446BEDB940F";
paths = (
{
closed = 1;
nodes = (
"294 1456 LINE",
"791 1456 LINE SMOOTH",
"1020 1456 OFFCURVE",
"1248 1270 OFFCURVE",
"1213 1070 QCURVE SMOOTH",
"1192 950 OFFCURVE",
"1042 800 OFFCURVE",
"945 768 QCURVE",
"944 764 LINE",
"1050 732 OFFCURVE",
"1161 560 OFFCURVE",
"1136 420 QCURVE SMOOTH",
"1101 220 OFFCURVE",
"790 0 OFFCURVE",
"565 0 QCURVE SMOOTH",
"37 0 LINE"
);
},
{
closed = 1;
nodes = (
"592 169 LINE SMOOTH",
"748 169 OFFCURVE",
"919 306 OFFCURVE",
"940 423 QCURVE SMOOTH",
"961 539 OFFCURVE",
"840 675 OFFCURVE",
"685 675 QCURVE SMOOTH",
"355 675 LINE",
"263 169 LINE"
);
},
{
closed = 1;
nodes = (
"682 841 LINE SMOOTH",
"837 841 OFFCURVE",
"996 960 OFFCURVE",
"1016 1067 QCURVE SMOOTH",
"1035 1173 OFFCURVE",
"919 1287 OFFCURVE",
"763 1287 QCURVE SMOOTH",
"461 1287 LINE",
"380 841 LINE"
);
}
);
width = 1287;
}
);
leftKerningGroup = StraightRight_UC;
unicode = 0042;
},
{
glyphname = C;
layers = (
{
layerId = "D8F064C8-C1A6-4DD6-979F-3446BEDB940F";
paths = (
{
closed = 1;
nodes = (
"120 769 LINE SMOOTH",
"179 1107 OFFCURVE",
"601 1486 OFFCURVE",
"869 1486 QCURVE SMOOTH",
"1139 1486 OFFCURVE",
"1373 1197 OFFCURVE",
"1357 994 QCURVE SMOOTH",
"1356 984 LINE",
"1157 984 LINE",
"1158 994 LINE SMOOTH",
"1170 1111 OFFCURVE",
"1026 1308 OFFCURVE",
"841 1308 QCURVE SMOOTH",
"656 1308 OFFCURVE",
"370 1021 OFFCURVE",
"321 769 QCURVE SMOOTH",
"305 687 LINE SMOOTH",
"260 435 OFFCURVE",
"446 148 OFFCURVE",
"631 148 QCURVE SMOOTH",
"817 148 OFFCURVE",
"1026 345 OFFCURVE",
"1062 462 QCURVE SMOOTH",
"1065 472 LINE",
"1264 472 LINE",
"1261 462 LINE SMOOTH",
"1207 259 OFFCURVE",
"871 -30 OFFCURVE",
"602 -30 QCURVE SMOOTH",
"334 -30 OFFCURVE",
"45 349 OFFCURVE",
"104 687 QCURVE SMOOTH"
);
}
);
width = 1357;
}
);
leftKerningGroup = CG_UC;
rightKerningGroup = C_UC;
unicode = 0043;
},
{
glyphname = D;
layers = (
{
layerId = "D8F064C8-C1A6-4DD6-979F-3446BEDB940F";
paths = (
{
closed = 1;
nodes = (
"294 1456 LINE",
"743 1456 LINE SMOOTH",
"1031 1456 OFFCURVE",
"1350 1083 OFFCURVE",
"1295 769 QCURVE SMOOTH",
"1279 687 LINE SMOOTH",
"1224 373 OFFCURVE",
"775 0 OFFCURVE",
"486 0 QCURVE SMOOTH",
"37 0 LINE"
);
},
{
closed = 1;
nodes = (
"514 171 LINE SMOOTH",
"729 171 OFFCURVE",
"1034 445 OFFCURVE",
"1077 687 QCURVE SMOOTH",
"1094 769 LINE SMOOTH",
"1137 1011 OFFCURVE",
"931 1285 OFFCURVE",
"715 1285 QCURVE SMOOTH",
"465 1285 LINE",
"264 171 LINE"
);
}
);
width = 1398;
}
);
leftKerningGroup = StraightRight_UC;
rightKerningGroup = D_UC;
unicode = 0044;
},
{
glyphname = E;
layers = (
{
layerId = "D8F064C8-C1A6-4DD6-979F-3446BEDB940F";
paths = (
{
closed = 1;
nodes = (
"294 1456 LINE",
"1237 1456 LINE",
"1209 1285 LINE",
"465 1285 LINE",
"382 837 LINE",
"1035 837 LINE",
"1007 665 LINE",
"355 665 LINE",
"267 171 LINE",
"1019 171 LINE",
"991 0 LINE",
"37 0 LINE"
);
}
);
width = 1185;
}
);
leftKerningGroup = StraightRight_UC;
rightKerningGroup = E_UC;
unicode = 0045;
},
{
glyphname = F;
layers = (
{
layerId = "D8F064C8-C1A6-4DD6-979F-3446BEDB940F";
paths = (
{
closed = 1;
nodes = (
"294 1456 LINE",
"1226 1456 LINE",
"1198 1285 LINE",
"465 1285 LINE",
"377 801 LINE",
"1010 801 LINE",
"982 630 LINE",
"350 630 LINE",
"236 0 LINE",
"37 0 LINE"
);
}
);
width = 1153;
}
);
leftKerningGroup = StraightRight_UC;
unicode = 0046;
},
{
glyphname = G;
layers = (
{
layerId = "D8F064C8-C1A6-4DD6-979F-3446BEDB940F";
paths = (
{
closed = 1;
nodes = (
"120 769 LINE SMOOTH",
"179 1107 OFFCURVE",
"601 1486 OFFCURVE",
"869 1486 QCURVE SMOOTH",
"1139 1486 OFFCURVE",
"1380 1218 OFFCURVE",
"1367 1036 QCURVE SMOOTH",
"1366 1026 LINE",
"1167 1026 LINE",
"1168 1036 LINE SMOOTH",
"1175 1133 OFFCURVE",
"1026 1309 OFFCURVE",
"840 1309 QCURVE SMOOTH",
"656 1309 OFFCURVE",
"366 1021 OFFCURVE",
"321 769 QCURVE SMOOTH",
"305 687 LINE SMOOTH",
"260 435 OFFCURVE",
"445 147 OFFCURVE",
"662 147 QCURVE SMOOTH",
"776 147 OFFCURVE",
"949 193 OFFCURVE",
"1032 243 QCURVE",
"1092 564 LINE",
"719 564 LINE",
"746 735 LINE",
"1313 735 LINE",
"1213 167 LINE",
"1130 94 OFFCURVE",
"830 -30 OFFCURVE",
"633 -30 QCURVE SMOOTH",
"334 -30 OFFCURVE",
"45 349 OFFCURVE",
"104 687 QCURVE SMOOTH"
);
}
);
width = 1389;
}
);
leftKerningGroup = CG_UC;
rightKerningGroup = G_UC;
unicode = 0047;
},
{
glyphname = H;
layers = (
{
layerId = "D8F064C8-C1A6-4DD6-979F-3446BEDB940F";
paths = (
{
closed = 1;
nodes = (
"294 1456 LINE",
"493 1456 LINE",
"382 837 LINE",
"1138 837 LINE",
"1249 1456 LINE",
"1448 1456 LINE",
"1191 0 LINE",
"992 0 LINE",
"1111 665 LINE",
"355 665 LINE",
"236 0 LINE",
"37 0 LINE"
);
}
);
width = 1484;
}
);
leftKerningGroup = StraightRight_UC;
rightKerningGroup = LeftStraight_UC;
unicode = 0048;
},
{
glyphname = I;
layers = (
{
layerId = "D8F064C8-C1A6-4DD6-979F-3446BEDB940F";
paths = (
{
closed = 1;
nodes = (
"298 1456 LINE",
"498 1456 LINE",
"241 0 LINE",
"42 0 LINE"
);
}
);
width = 539;
}
);
leftKerningGroup = StraightRight_UC;
rightKerningGroup = LeftStraight_UC;
unicode = 0049;
},
{
glyphname = J;
layers = (
{
layerId = "D8F064C8-C1A6-4DD6-979F-3446BEDB940F";
paths = (
{
closed = 1;
nodes = (
"-31 431 LINE",
"168 431 LINE",
"166 421 LINE SMOOTH",
"143 287 OFFCURVE",
"268 147 OFFCURVE",
"397 147 QCURVE SMOOTH",
"527 147 OFFCURVE",
"702 302 OFFCURVE",
"726 446 QCURVE SMOOTH",
"908 1456 LINE",
"1107 1456 LINE",
"926 446 LINE SMOOTH",
"889 226 OFFCURVE",
"581 -30 OFFCURVE",
"368 -30 QCURVE SMOOTH",
"155 -30 OFFCURVE",
"-68 211 OFFCURVE",
"-33 421 QCURVE SMOOTH"
);
}
);
width = 1129;
}
);
leftKerningGroup = J_UC;
rightKerningGroup = JU_UC;
unicode = 004A;
},
{
glyphname = K;
layers = (
{
layerId = "D8F064C8-C1A6-4DD6-979F-3446BEDB940F";
paths = (
{
closed = 1;
nodes = (
"294 1456 LINE",
"494 1456 LINE",
"368 737 LINE",
"1143 1456 LINE",
"1397 1456 LINE",
"324 480 LINE",
"236 0 LINE",
"37 0 LINE"
);
},
{
closed = 1;
nodes = (
"509 763 LINE",
"654 897 LINE",
"1183 0 LINE",
"948 0 LINE"
);
}
);
width = 1295;
}
);
leftKerningGroup = StraightRight_UC;
rightKerningGroup = K_UC;
unicode = 004B;
},
{
glyphname = L;
layers = (
{
layerId = "D8F064C8-C1A6-4DD6-979F-3446BEDB940F";
paths = (
{
closed = 1;
nodes = (
"294 1456 LINE",
"493 1456 LINE",
"264 171 LINE",
"976 171 LINE",
"948 0 LINE",
"37 0 LINE"
);
}
);
width = 1099;
}
);
leftKerningGroup = StraightRight_UC;
rightKerningGroup = L_UC;
unicode = 004C;
},
{
glyphname = M;
layers = (
{
layerId = "D8F064C8-C1A6-4DD6-979F-3446BEDB940F";
paths = (
{
closed = 1;
nodes = (
"294 1456 LINE",
"564 1456 LINE",
"796 404 LINE SMOOTH",
"803 374 OFFCURVE",
"815 308 OFFCURVE",
"821 279 QCURVE",
"831 279 LINE",
"846 308 OFFCURVE",
"881 374 OFFCURVE",
"898 404 QCURVE SMOOTH",
"1492 1456 LINE",
"1777 1456 LINE",
"1520 0 LINE",
"1329 0 LINE",
"1515 1062 LINE SMOOTH",
"1520 1092 OFFCURVE",
"1533 1167 OFFCURVE",
"1541 1197 QCURVE",
"1535 1197 LINE",
"1520 1167 OFFCURVE",
"1482 1092 OFFCURVE",
"1465 1062 QCURVE SMOOTH",
"870 0 LINE",
"697 0 LINE",
"458 1062 LINE SMOOTH",
"451 1092 OFFCURVE",
"436 1167 OFFCURVE",
"436 1197 QCURVE",
"428 1197 LINE",
"425 1167 OFFCURVE",
"417 1092 OFFCURVE",
"412 1062 QCURVE SMOOTH",
"228 0 LINE",
"37 0 LINE"
);
}
);
width = 1813;
}
);
leftKerningGroup = StraightRight_UC;
rightKerningGroup = LeftStraight_UC;
unicode = 004D;
},
{
glyphname = N;
layers = (
{
layerId = "D8F064C8-C1A6-4DD6-979F-3446BEDB940F";
paths = (
{
closed = 1;
nodes = (
"294 1456 LINE",
"493 1456 LINE",
"992 418 LINE SMOOTH",
"1007 388 OFFCURVE",
"1040 313 OFFCURVE",
"1048 288 QCURVE",
"1057 288 LINE",
"1061 318 OFFCURVE",
"1070 423 OFFCURVE",
"1075 453 QCURVE SMOOTH",
"1253 1456 LINE",
"1443 1456 LINE",
"1186 0 LINE",
"986 0 LINE",
"488 1048 LINE SMOOTH",
"474 1078 OFFCURVE",
"449 1138 OFFCURVE",
"442 1163 QCURVE",
"432 1163 LINE",
"429 1133 OFFCURVE",
"420 1058 OFFCURVE",
"415 1028 QCURVE SMOOTH",
"234 0 LINE",
"37 0 LINE"
);
}
);
width = 1479;
}
);
leftKerningGroup = StraightRight_UC;
rightKerningGroup = LeftStraight_UC;
unicode = 004E;
},
{
glyphname = O;
layers = (
{
layerId = "D8F064C8-C1A6-4DD6-979F-3446BEDB940F";
paths = (
{
closed = 1;
nodes = (
"120 769 LINE SMOOTH",
"179 1107 OFFCURVE",
"601 1486 OFFCURVE",
"880 1486 QCURVE SMOOTH",
"1158 1486 OFFCURVE",
"1448 1107 OFFCURVE",
"1389 769 QCURVE SMOOTH",
"1373 687 LINE SMOOTH",
"1314 349 OFFCURVE",
"891 -30 OFFCURVE",
"613 -30 QCURVE SMOOTH",
"334 -30 OFFCURVE",
"45 349 OFFCURVE",
"104 687 QCURVE SMOOTH"
);
},
{
closed = 1;
nodes = (
"260 435 OFFCURVE",
"446 148 OFFCURVE",
"642 148 QCURVE SMOOTH",
"837 148 OFFCURVE",
"1127 435 OFFCURVE",
"1172 687 QCURVE SMOOTH",
"1188 769 LINE SMOOTH",
"1233 1021 OFFCURVE",
"1047 1308 OFFCURVE",
"851 1308 QCURVE SMOOTH",
"656 1308 OFFCURVE",
"366 1021 OFFCURVE",
"321 769 QCURVE SMOOTH",
"305 687 LINE SMOOTH"
);
}
);
width = 1492;
}
);
leftKerningGroup = CG_UC;
rightKerningGroup = D_UC;
unicode = 004F;
},
{
glyphname = P;
layers = (
{
layerId = "D8F064C8-C1A6-4DD6-979F-3446BEDB940F";
paths = (
{
closed = 1;
nodes = (
"294 1456 LINE",
"793 1456 LINE SMOOTH",
"1042 1456 OFFCURVE",
"1266 1212 OFFCURVE",
"1230 1009 QCURVE SMOOTH",
"1195 806 OFFCURVE",
"886 558 OFFCURVE",
"637 558 QCURVE SMOOTH",
"337 558 LINE",
"236 0 LINE",
"37 0 LINE"
);
},
{
closed = 1;
nodes = (
"665 729 LINE SMOOTH",
"841 729 OFFCURVE",
"1011 892 OFFCURVE",
"1032 1009 QCURVE SMOOTH",
"1053 1126 OFFCURVE",
"941 1285 OFFCURVE",
"765 1285 QCURVE SMOOTH",
"465 1285 LINE",
"365 729 LINE"
);
}
);
width = 1228;
}
);
leftKerningGroup = StraightRight_UC;
unicode = 0050;
},
{
glyphname = Q;
layers = (
{
layerId = "D8F064C8-C1A6-4DD6-979F-3446BEDB940F";
paths = (
{
closed = 1;
nodes = (
"120 769 LINE SMOOTH",
"179 1107 OFFCURVE",
"601 1486 OFFCURVE",
"880 1486 QCURVE SMOOTH",
"1158 1486 OFFCURVE",
"1448 1107 OFFCURVE",
"1389 769 QCURVE SMOOTH",
"1373 687 LINE SMOOTH",
"1314 349 OFFCURVE",
"891 -30 OFFCURVE",
"613 -30 QCURVE SMOOTH",
"334 -30 OFFCURVE",
"45 349 OFFCURVE",
"104 687 QCURVE SMOOTH"
);
},
{
closed = 1;
nodes = (
"260 435 OFFCURVE",
"446 148 OFFCURVE",
"642 148 QCURVE SMOOTH",
"837 148 OFFCURVE",
"1127 435 OFFCURVE",
"1172 687 QCURVE SMOOTH",
"1188 769 LINE SMOOTH",
"1233 1021 OFFCURVE",
"1047 1308 OFFCURVE",
"851 1308 QCURVE SMOOTH",
"656 1308 OFFCURVE",
"366 1021 OFFCURVE",
"321 769 QCURVE SMOOTH",
"305 687 LINE SMOOTH"
);
},
{
closed = 1;
nodes = (
"746 30 LINE",
"887 158 LINE",
"1200 -120 LINE",
"1053 -254 LINE"
);
}
);
width = 1493;
}
);
leftKerningGroup = CG_UC;
unicode = 0051;
},
{
glyphname = R;
layers = (
{
layerId = "D8F064C8-C1A6-4DD6-979F-3446BEDB940F";
paths = (
{
closed = 1;
nodes = (
"294 1456 LINE",
"785 1456 LINE SMOOTH",
"1027 1456 OFFCURVE",
"1250 1219 OFFCURVE",
"1215 1022 QCURVE SMOOTH",
"1181 824 OFFCURVE",
"875 581 OFFCURVE",
"633 581 QCURVE SMOOTH",
"341 581 LINE",
"236 0 LINE",
"37 0 LINE"
);
},
{
closed = 1;
nodes = (
"661 751 LINE SMOOTH",
"833 751 OFFCURVE",
"996 909 OFFCURVE",
"1016 1022 QCURVE SMOOTH",
"1037 1134 OFFCURVE",
"930 1286 OFFCURVE",
"758 1286 QCURVE SMOOTH",
"465 1286 LINE",
"368 751 LINE"
);
},
{
closed = 1;
nodes = (
"653 672 LINE",
"859 672 LINE",
"1108 0 LINE",
"894 0 LINE"
);
}
);
width = 1276;
}
);
leftKerningGroup = StraightRight_UC;
rightKerningGroup = R_UC;
unicode = 0052;
},
{
glyphname = S;
layers = (
{
layerId = "D8F064C8-C1A6-4DD6-979F-3446BEDB940F";
paths = (
{
closed = 1;
nodes = (
"32 416 LINE",
"231 416 LINE",
"229 404 LINE SMOOTH",
"205 276 OFFCURVE",
"366 147 OFFCURVE",
"531 147 QCURVE SMOOTH",
"696 147 OFFCURVE",
"889 252 OFFCURVE",
"909 358 QCURVE SMOOTH",
"926 454 OFFCURVE",
"796 593 OFFCURVE",
"560 668 QCURVE SMOOTH",
"339 738 OFFCURVE",
"146 962 OFFCURVE",
"193 1118 QCURVE SMOOTH",
"245 1289 OFFCURVE",
"521 1486 OFFCURVE",
"759 1486 QCURVE SMOOTH",
"998 1486 OFFCURVE",
"1237 1237 OFFCURVE",
"1204 1058 QCURVE SMOOTH",
"1202 1046 LINE",
"1004 1046 LINE",
"1006 1058 LINE SMOOTH",
"1026 1171 OFFCURVE",
"890 1309 OFFCURVE",
"730 1309 QCURVE SMOOTH",
"571 1309 OFFCURVE",
"404 1217 OFFCURVE",
"386 1127 QCURVE SMOOTH",
"369 1029 OFFCURVE",
"497 903 OFFCURVE",
"702 841 QCURVE SMOOTH",
"941 769 OFFCURVE",
"1138 544 OFFCURVE",
"1106 361 QCURVE SMOOTH",
"1074 178 OFFCURVE",
"770 -30 OFFCURVE",
"502 -30 QCURVE SMOOTH",
"254 -30 OFFCURVE",
"-5 203 OFFCURVE",
"29 404 QCURVE SMOOTH"
);
}
);
width = 1252;
}
);
leftKerningGroup = S_UC;
rightKerningGroup = S_UC;
unicode = 0053;
},
{
glyphname = T;
layers = (
{
layerId = "D8F064C8-C1A6-4DD6-979F-3446BEDB940F";
paths = (
{
closed = 1;
nodes = (
"152 1456 LINE",
"1312 1456 LINE",
"1284 1285 LINE",
"803 1285 LINE",
"574 0 LINE",
"376 0 LINE",
"605 1285 LINE",
"124 1285 LINE"
);
}
);
width = 1206;
}
);
leftKerningGroup = T_UC;
rightKerningGroup = T_UC;
unicode = 0054;
},
{
glyphname = U;
layers = (
{
layerId = "D8F064C8-C1A6-4DD6-979F-3446BEDB940F";
paths = (
{
closed = 1;
nodes = (
"279 1456 LINE",
"478 1456 LINE",
"307 492 LINE SMOOTH",
"276 318 OFFCURVE",
"436 148 OFFCURVE",
"591 148 QCURVE SMOOTH",
"746 148 OFFCURVE",
"966 318 OFFCURVE",
"996 492 QCURVE SMOOTH",
"1167 1456 LINE",
"1366 1456 LINE",
"1196 492 LINE SMOOTH",
"1149 231 OFFCURVE",
"800 -30 OFFCURVE",
"562 -30 QCURVE SMOOTH",
"338 -30 OFFCURVE",
"64 242 OFFCURVE",
"108 492 QCURVE SMOOTH"
);
}
);
width = 1391;
}
);
leftKerningGroup = U_UC;
rightKerningGroup = JU_UC;
unicode = 0055;
},
{
glyphname = V;
layers = (
{
layerId = "D8F064C8-C1A6-4DD6-979F-3446BEDB940F";
paths = (
{
closed = 1;
nodes = (
"333 1456 LINE",
"529 392 LINE SMOOTH",
"536 356 OFFCURVE",
"550 286 OFFCURVE",
"554 250 QCURVE",
"563 250 LINE",
"577 286 OFFCURVE",
"608 356 OFFCURVE",
"628 392 QCURVE SMOOTH",
"1209 1456 LINE",
"1418 1456 LINE",
"611 -9 LINE",
"420 -9 LINE",
"129 1456 LINE"
);
}
);
width = 1289;
}
);
unicode = 0056;
},
{
glyphname = W;
layers = (
{
layerId = "D8F064C8-C1A6-4DD6-979F-3446BEDB940F";
paths = (
{
closed = 1;
nodes = (
"177 1456 LINE",
"368 1456 LINE",
"429 375 LINE SMOOTH",
"431 341 OFFCURVE",
"433 290 OFFCURVE",
"433 257 QCURVE",
"446 257 LINE",
"457 290 OFFCURVE",
"473 341 OFFCURVE",
"487 375 QCURVE SMOOTH",
"941 1456 LINE",
"1155 1456 LINE",
"1238 375 LINE SMOOTH",
"1241 341 OFFCURVE",
"1243 290 OFFCURVE",
"1242 257 QCURVE",
"1255 257 LINE",
"1267 291 OFFCURVE",
"1283 341 OFFCURVE",
"1297 375 QCURVE SMOOTH",
"1731 1456 LINE",
"1938 1456 LINE",
"1313 -9 LINE",
"1110 -9 LINE",
"1025 1066 LINE SMOOTH",
"1022 1100 OFFCURVE",
"1020 1161 OFFCURVE",
"1020 1194 QCURVE",
"1006 1194 LINE",
"995 1161 OFFCURVE",
"972 1102 OFFCURVE",
"957 1068 QCURVE SMOOTH",
"487 -7 LINE",
"285 -9 LINE"
);
}
);
width = 1858;
}
);
leftKerningGroup = W_UC;
rightKerningGroup = W_UC;
unicode = 0057;
},
{
glyphname = X;
layers = (
{
layerId = "D8F064C8-C1A6-4DD6-979F-3446BEDB940F";
paths = (
{
closed = 1;
nodes = (
"575 806 LINE",
"596 806 LINE",
"1117 1456 LINE",
"1349 1456 LINE",
"700 670 LINE",
"677 670 LINE",
"128 0 LINE",
"-104 0 LINE"
);
},
{
closed = 1;
nodes = (
"409 1456 LINE",
"700 806 LINE",
"711 806 LINE",
"1105 0 LINE",
"887 0 LINE",
"573 670 LINE",
"564 670 LINE",
"191 1456 LINE"
);
}
);
width = 1258;
}
);
unicode = 0058;
},
{
glyphname = Y;
layers = (
{
layerId = "D8F064C8-C1A6-4DD6-979F-3446BEDB940F";
paths = (
{
closed = 1;
nodes = (
"497 536 LINE",
"143 1456 LINE",
"358 1456 LINE",
"578 848 LINE SMOOTH",
"589 818 OFFCURVE",
"610 758 OFFCURVE",
"617 729 QCURVE",
"627 729 LINE",
"643 758 OFFCURVE",
"680 818 OFFCURVE",
"702 848 QCURVE SMOOTH",
"1144 1456 LINE",
"1371 1456 LINE",
"697 536 LINE",
"601 0 LINE",
"401 0 LINE"
);
}
);
width = 1258;
}
);
leftKerningGroup = Y_UC;
rightKerningGroup = Y_UC;
unicode = 0059;
},
{
glyphname = Z;
layers = (
{
layerId = "D8F064C8-C1A6-4DD6-979F-3446BEDB940F";
paths = (
{
closed = 1;
nodes = (
"-69 151 LINE",
"943 1285 LINE",
"147 1285 LINE",
"174 1456 LINE",
"1217 1456 LINE",
"1192 1305 LINE",
"180 171 LINE",
"1020 171 LINE",
"992 0 LINE",
"-94 0 LINE"
);
}
);
width = 1154;
}
);
leftKerningGroup = Z_UC;
rightKerningGroup = Z_UC;
unicode = 005A;
},
{
glyphname = AE;
layers = (
{
layerId = "D8F064C8-C1A6-4DD6-979F-3446BEDB940F";
paths = (
{
closed = 1;
nodes = (
"402 528 LINE",
"1125 528 LINE",
"1125 353 LINE",
"302 353 LINE"
);
},
{
closed = 1;
nodes = (
"956 1456 LINE",
"1991 1456 LINE",
"1991 1284 LINE",
"1225 1284 LINE",
"1225 837 LINE",
"1896 837 LINE",
"1896 665 LINE",
"1225 665 LINE",
"1225 171 LINE",
"2002 171 LINE",
"2002 0 LINE",
"1020 0 LINE",
"1020 1238 LINE",
"212 0 LINE",
"-15 0 LINE"
);
}
);
width = 2070;
}
);
leftKerningGroup = AE_UC;
rightKerningGroup = E_UC;
unicode = 00C6;
},
{
glyphname = Thorn;
layers = (
{
guideLines = (
{
position = "{0, 901}";
},
{
position = "{0, 555}";
}
);
layerId = "D8F064C8-C1A6-4DD6-979F-3446BEDB940F";
paths = (
{
closed = 1;
nodes = (
"375 1456 LINE",
"375 1186 LINE",
"684 1186 LINE SMOOTH",
"940 1186 OFFCURVE",
"1214 942 OFFCURVE",
"1214 739 QCURVE SMOOTH",
"1214 536 OFFCURVE",
"940 296 OFFCURVE",
"684 288 QCURVE SMOOTH",
"375 288 LINE",
"375 0 LINE",
"170 0 LINE",
"170 1456 LINE"
);
},
{
closed = 1;
nodes = (
"375 1015 LINE",
"375 459 LINE",
"684 459 LINE SMOOTH",
"865 459 OFFCURVE",
"1010 622 OFFCURVE",
"1010 739 QCURVE SMOOTH",
"1010 856 OFFCURVE",
"865 1015 OFFCURVE",
"684 1015 QCURVE SMOOTH"
);
}
);
width = 1264;
}
);
leftKerningGroup = StraightRight_UC;
unicode = 00DE;
userData = {
com.typemytype.robofont.guideline.magnetic.T8KKW8oxop = 5;
com.typemytype.robofont.guideline.magnetic.i9jYwjBDP4 = 5;
};
},
{
glyphname = OE;
layers = (
{
layerId = "D8F064C8-C1A6-4DD6-979F-3446BEDB940F";
paths = (
{
closed = 1;
nodes = (
"832 1477 OFFCURVE",
"996 1466 OFFCURVE",
"1086 1456 QCURVE",
"1979 1456 LINE",
"1979 1284 LINE",
"1213 1284 LINE",
"1213 836 LINE",
"1884 836 LINE",
"1884 665 LINE",
"1213 665 LINE",
"1213 171 LINE",
"1990 171 LINE",
"1990 0 LINE",
"1086 0 LINE",
"983 -10 OFFCURVE",
"796 -21 OFFCURVE",
"716 -21 QCURVE SMOOTH",
"489 -21 OFFCURVE",
"115 340 OFFCURVE",
"115 682 QCURVE SMOOTH",
"115 772 LINE SMOOTH",
"115 1105 OFFCURVE",
"486 1477 OFFCURVE",
"760 1477 QCURVE SMOOTH"
);
},
{
closed = 1;
nodes = (
"322 427 OFFCURVE",
"579 147 OFFCURVE",
"762 147 QCURVE SMOOTH",
"835 147 OFFCURVE",
"955 155 OFFCURVE",
"1003 162 QCURVE",
"1003 1294 LINE",
"946 1301 OFFCURVE",
"827 1309 OFFCURVE",
"764 1309 QCURVE SMOOTH",
"576 1309 OFFCURVE",
"322 1023 OFFCURVE",
"322 774 QCURVE SMOOTH",
"322 682 LINE SMOOTH"
);
}
);
width = 2058;
}
);
leftKerningGroup = CG_UC;
rightKerningGroup = E_UC;
unicode = 0152;
},
{
glyphname = Schwa;
layers = (
{
layerId = "D8F064C8-C1A6-4DD6-979F-3446BEDB940F";
paths = (
{
closed = 1;
nodes = (
"168 1356 OFFCURVE",
"476 1519 OFFCURVE",
"706 1519 QCURVE SMOOTH",
"1060 1519 OFFCURVE",
"1446 1094 OFFCURVE",
"1446 789 QCURVE SMOOTH",
"1446 445 OFFCURVE",
"1039 -30 OFFCURVE",
"731 -30 QCURVE SMOOTH",
"438 -30 OFFCURVE",
"104 281 OFFCURVE",
"104 578 QCURVE SMOOTH",
"104 686 LINE",
"1300 686 LINE",
"1300 554 LINE",
"702 562 LINE",
"312 556 LINE",
"312 481 LINE SMOOTH",
"312 315 OFFCURVE",
"530 97 OFFCURVE",
"741 97 QCURVE SMOOTH",
"964 97 OFFCURVE",
"1246 462 OFFCURVE",
"1243 749 QCURVE SMOOTH",
"1241 1047 OFFCURVE",
"909 1375 OFFCURVE",
"687 1375 QCURVE SMOOTH",
"494 1375 OFFCURVE",
"227 1234 OFFCURVE",
"163 1126 QCURVE",
"64 1199 LINE"
);
}
);
width = 1510;
}
);
rightKerningGroup = D_UC;
unicode = 018F;
},
{
glyphname = Germandbls;
layers = (
{
layerId = "D8F064C8-C1A6-4DD6-979F-3446BEDB940F";
paths = (
{
closed = 1;
nodes = (
"220 1289 OFFCURVE",
"454 1536 OFFCURVE",
"682 1536 QCURVE SMOOTH",
"923 1536 OFFCURVE",
"1113 1370 OFFCURVE",
"1113 1265 QCURVE SMOOTH",
"1113 1162 OFFCURVE",
"1008 1028 OFFCURVE",
"944 983 QCURVE SMOOTH",
"890 945 OFFCURVE",
"831 896 OFFCURVE",
"831 876 QCURVE SMOOTH",
"831 856 OFFCURVE",
"901 819 OFFCURVE",
"1105 749 QCURVE SMOOTH",
"1312 678 OFFCURVE",
"1486 495 OFFCURVE",
"1486 342 QCURVE SMOOTH",
"1486 194 OFFCURVE",
"1234 -30 OFFCURVE",
"1035 -30 QCURVE SMOOTH",
"776 -30 OFFCURVE",
"525 155 OFFCURVE",
"525 344 QCURVE SMOOTH",
"525 356 LINE",
"743 356 LINE",
"743 344 LINE SMOOTH",
"743 243 OFFCURVE",
"877 138 OFFCURVE",
"1022 138 QCURVE SMOOTH",
"1135 138 OFFCURVE",
"1283 246 OFFCURVE",
"1283 336 QCURVE SMOOTH",
"1283 435 OFFCURVE",
"1142 530 OFFCURVE",
"958 594 QCURVE SMOOTH",
"714 680 OFFCURVE",
"588 773 OFFCURVE",
"588 845 QCURVE SMOOTH",
"588 920 OFFCURVE",
"667 1006 OFFCURVE",
"768 1074 QCURVE SMOOTH",
"843 1125 OFFCURVE",
"910 1192 OFFCURVE",
"910 1250 QCURVE SMOOTH",
"910 1306 OFFCURVE",
"801 1371 OFFCURVE",
"688 1371 QCURVE SMOOTH",
"558 1371 OFFCURVE",
"423 1219 OFFCURVE",
"423 1054 QCURVE SMOOTH",
"423 361 LINE SMOOTH",
"423 188 OFFCURVE",
"244 -16 OFFCURVE",
"99 -16 QCURVE SMOOTH",
"85 -16 OFFCURVE",
"56 -14 OFFCURVE",
"42 -12 QCURVE",
"40 175 LINE",
"50 172 OFFCURVE",
"70 170 OFFCURVE",
"80 170 QCURVE SMOOTH",
"144 170 OFFCURVE",
"220 269 OFFCURVE",
"220 361 QCURVE SMOOTH",
"220 1084 LINE SMOOTH"
);
}
);
width = 1575;
}
);
unicode = 1E9E;
},
{
glyphname = micro;
layers = (
{
layerId = "D8F064C8-C1A6-4DD6-979F-3446BEDB940F";
paths = (
{
closed = 1;
nodes = (
"471 1089 LINE",
"335 391 LINE SMOOTH",
"310 262 OFFCURVE",
"424 150 OFFCURVE",
"531 150 QCURVE SMOOTH",
"622 150 OFFCURVE",
"800 249 OFFCURVE",
"854 327 QCURVE",
"1001 1089 LINE",
"1199 1089 LINE",
"990 10 LINE",
"811 10 LINE",
"829 149 LINE",
"823 149 LINE",
"750 75 OFFCURVE",
"546 -10 OFFCURVE",
"443 -10 QCURVE SMOOTH",
"396 -10 OFFCURVE",
"299 26 OFFCURVE",
"270 53 QCURVE",
"180 -416 LINE",
"-18 -416 LINE",
"273 1089 LINE"
);
}
);
width = 1293;
}
);
unicode = 00B5;
},
{
glyphname = a;
layers = (
{
layerId = "D8F064C8-C1A6-4DD6-979F-3446BEDB940F";
paths = (
{
closed = 1;
nodes = (
"44 495 OFFCURVE",
"342 671 OFFCURVE",
"548 671 QCURVE SMOOTH",
"804 671 LINE",
"817 757 LINE SMOOTH",
"833 847 OFFCURVE",
"748 960 OFFCURVE",
"619 960 QCURVE SMOOTH",
"490 960 OFFCURVE",
"362 859 OFFCURVE",
"351 792 QCURVE SMOOTH",
"350 787 LINE",
"157 787 LINE",
"158 792 LINE SMOOTH",
"180 923 OFFCURVE",
"450 1119 OFFCURVE",
"651 1119 QCURVE SMOOTH",
"851 1119 OFFCURVE",
"1041 937 OFFCURVE",
"1009 757 QCURVE SMOOTH",
"924 240 LINE SMOOTH",
"913 175 OFFCURVE",
"913 60 OFFCURVE",
"924 16 QCURVE",
"921 0 LINE",
"734 0 LINE",
"724 26 OFFCURVE",
"715 110 OFFCURVE",
"719 151 QCURVE",
"668 84 OFFCURVE",
"473 -20 OFFCURVE",
"333 -20 QCURVE SMOOTH",
"186 -20 OFFCURVE",
"-13 171 OFFCURVE",
"15 329 QCURVE SMOOTH"
);
},
{
closed = 1;
nodes = (
"193 242 OFFCURVE",
"283 139 OFFCURVE",
"404 139 QCURVE SMOOTH",
"522 139 OFFCURVE",
"739 292 OFFCURVE",
"754 377 QCURVE",
"781 528 LINE",
"545 528 LINE SMOOTH",
"396 528 OFFCURVE",
"224 430 OFFCURVE",
"209 339 QCURVE SMOOTH"
);
}
);
width = 1153;
}
);
leftKerningGroup = a_LC;
rightKerningGroup = a_LC;
unicode = 0061;
},
{
glyphname = b;
layers = (
{
layerId = "D8F064C8-C1A6-4DD6-979F-3446BEDB940F";
paths = (
{
closed = 1;
nodes = (
"286 1536 LINE",
"479 1536 LINE",
"372 960 LINE",
"433 1028 OFFCURVE",
"613 1109 OFFCURVE",
"731 1109 QCURVE SMOOTH",
"941 1109 OFFCURVE",
"1140 799 OFFCURVE",
"1099 561 QCURVE SMOOTH",
"1093 529 LINE SMOOTH",
"1053 291 OFFCURVE",
"748 -20 OFFCURVE",
"538 -20 QCURVE SMOOTH",
"420 -20 OFFCURVE",
"260 75 OFFCURVE",
"228 142 QCURVE",
"223 142 LINE",
"191 0 LINE",
"16 0 LINE"
);
},
{
closed = 1;
nodes = (
"284 259 OFFCURVE",
"414 146 OFFCURVE",
"521 146 QCURVE SMOOTH",
"681 146 OFFCURVE",
"868 367 OFFCURVE",
"896 529 QCURVE SMOOTH",
"902 561 LINE SMOOTH",
"930 722 OFFCURVE",
"820 943 OFFCURVE",
"660 943 QCURVE SMOOTH",
"553 943 OFFCURVE",
"384 830 OFFCURVE",
"338 758 QCURVE",
"263 331 LINE"
);
}
);
width = 1214;
}
);
leftKerningGroup = bhk_LC;
rightKerningGroup = b_LC;
unicode = 0062;
},
{
glyphname = c;
layers = (
{
layerId = "D8F064C8-C1A6-4DD6-979F-3446BEDB940F";
paths = (
{
closed = 1;
nodes = (
"50 561 LINE SMOOTH",
"92 807 OFFCURVE",
"418 1119 OFFCURVE",
"658 1119 QCURVE SMOOTH",
"879 1119 OFFCURVE",
"1070 885 OFFCURVE",
"1045 741 QCURVE SMOOTH",
"1044 736 LINE",
"857 736 LINE",
"858 741 LINE SMOOTH",
"872 825 OFFCURVE",
"770 954 OFFCURVE",
"631 954 QCURVE SMOOTH",
"468 954 OFFCURVE",
"276 726 OFFCURVE",
"247 561 QCURVE SMOOTH",
"242 529 LINE SMOOTH",
"213 363 OFFCURVE",
"326 135 OFFCURVE",
"488 135 QCURVE SMOOTH",
"627 135 OFFCURVE",
"776 264 OFFCURVE",
"791 348 QCURVE SMOOTH",
"792 353 LINE",
"979 353 LINE",
"978 348 LINE SMOOTH",
"954 204 OFFCURVE",
"683 -30 OFFCURVE",
"462 -30 QCURVE SMOOTH",
"222 -30 OFFCURVE",
"2 282 OFFCURVE",
"44 529 QCURVE SMOOTH"
);
}
);
width = 1080;
}
);
leftKerningGroup = alpha;
rightKerningGroup = c_LC;
unicode = 0063;
},
{
glyphname = d;
layers = (
{
layerId = "D8F064C8-C1A6-4DD6-979F-3446BEDB940F";
paths = (
{
closed = 1;
nodes = (
"50 561 LINE SMOOTH",
"91 799 OFFCURVE",
"395 1109 OFFCURVE",
"605 1109 QCURVE SMOOTH",
"723 1109 OFFCURVE",
"875 1028 OFFCURVE",
"914 960 QCURVE",
"1021 1536 LINE",
"1213 1536 LINE",
"942 0 LINE",
"767 0 LINE",
"783 142 LINE",
"778 142 LINE",
"724 75 OFFCURVE",
"530 -20 OFFCURVE",
"413 -20 QCURVE SMOOTH",
"203 -20 OFFCURVE",
"4 291 OFFCURVE",
"44 529 QCURVE SMOOTH"
);
},
{
closed = 1;
nodes = (
"213 367 OFFCURVE",
"324 146 OFFCURVE",
"483 146 QCURVE SMOOTH",
"590 146 OFFCURVE",
"760 259 OFFCURVE",
"805 331 QCURVE",
"880 758 LINE",
"860 830 OFFCURVE",
"729 943 OFFCURVE",
"622 943 QCURVE SMOOTH",
"463 943 OFFCURVE",
"276 722 OFFCURVE",
"247 561 QCURVE SMOOTH",
"242 529 LINE SMOOTH"
);
}
);
width = 1214;
}
);
leftKerningGroup = alpha;
unicode = 0064;
},
{
glyphname = e;
layers = (
{
layerId = "D8F064C8-C1A6-4DD6-979F-3446BEDB940F";
paths = (
{
closed = 1;
nodes = (
"50 561 LINE SMOOTH",
"92 807 OFFCURVE",
"420 1119 OFFCURVE",
"646 1119 QCURVE SMOOTH",
"874 1119 OFFCURVE",
"1068 827 OFFCURVE",
"1026 579 QCURVE SMOOTH",
"1012 495 LINE",
"159 495 LINE",
"185 654 LINE",
"843 654 LINE",
"847 651 LINE SMOOTH",
"867 782 OFFCURVE",
"770 955 OFFCURVE",
"619 955 QCURVE SMOOTH",
"470 955 OFFCURVE",
"274 727 OFFCURVE",
"245 561 QCURVE SMOOTH",
"240 529 LINE SMOOTH",
"211 363 OFFCURVE",
"336 134 OFFCURVE",
"508 134 QCURVE SMOOTH",
"614 134 OFFCURVE",
"782 222 OFFCURVE",
"839 283 QCURVE",
"947 175 LINE",
"882 99 OFFCURVE",
"638 -30 OFFCURVE",
"481 -30 QCURVE SMOOTH",
"223 -30 OFFCURVE",
"2 282 OFFCURVE",
"44 529 QCURVE SMOOTH"
);
}
);
width = 1107;
}
);
leftKerningGroup = alpha;
rightKerningGroup = e_LC;
unicode = 0065;
},
{
glyphname = f;
layers = (
{
layerId = "D8F064C8-C1A6-4DD6-979F-3446BEDB940F";
paths = (
{
closed = 1;
nodes = (
"289 1182 LINE SMOOTH",
"319 1365 OFFCURVE",
"551 1556 OFFCURVE",
"723 1556 QCURVE SMOOTH",
"755 1556 OFFCURVE",
"822 1548 OFFCURVE",
"851 1540 QCURVE",
"814 1378 LINE",
"792 1382 OFFCURVE",
"742 1388 OFFCURVE",
"716 1388 QCURVE SMOOTH",
"620 1388 OFFCURVE",
"500 1285 OFFCURVE",
"482 1182 QCURVE SMOOTH",
"445 1022 LINE",
"442 1000 LINE",
"271 0 LINE",
"77 0 LINE"
);
},
{
closed = 1;
nodes = (
"82 1089 LINE",
"335 1089 LINE",
"383 1089 LINE",
"695 1089 LINE",
"670 933 LINE",
"57 933 LINE"
);
}
);
width = 628;
}
);
leftKerningGroup = f_LC;
rightKerningGroup = f_LC;
unicode = 0066;
},
{
glyphname = g;
layers = (
{
layerId = "D8F064C8-C1A6-4DD6-979F-3446BEDB940F";
paths = (
{
closed = 1;
nodes = (
"83 -132 LINE",
"123 -184 OFFCURVE",
"283 -262 OFFCURVE",
"391 -262 QCURVE SMOOTH",
"535 -262 OFFCURVE",
"729 -109 OFFCURVE",
"753 30 QCURVE SMOOTH",
"772 129 LINE",
"711 61 OFFCURVE",
"530 -20 OFFCURVE",
"413 -20 QCURVE SMOOTH",
"203 -20 OFFCURVE",
"4 291 OFFCURVE",
"44 529 QCURVE SMOOTH",
"50 561 LINE SMOOTH",
"91 799 OFFCURVE",
"395 1109 OFFCURVE",
"605 1109 QCURVE SMOOTH",
"723 1109 OFFCURVE",
"884 1014 OFFCURVE",
"915 947 QCURVE",
"920 947 LINE",
"953 1089 LINE",
"1128 1089 LINE",
"946 30 LINE SMOOTH",
"907 -195 OFFCURVE",
"589 -436 OFFCURVE",
"369 -436 QCURVE SMOOTH",
"232 -436 OFFCURVE",
"15 -350 OFFCURVE",
"-53 -284 QCURVE"
);
},
{
closed = 1;
nodes = (
"213 367 OFFCURVE",
"324 146 OFFCURVE",
"483 146 QCURVE SMOOTH",
"590 146 OFFCURVE",
"760 259 OFFCURVE",
"805 331 QCURVE",
"880 758 LINE",
"860 830 OFFCURVE",
"729 943 OFFCURVE",
"622 943 QCURVE SMOOTH",
"463 943 OFFCURVE",
"276 722 OFFCURVE",
"247 561 QCURVE SMOOTH",
"242 529 LINE SMOOTH"
);
}
);
width = 1214;
}
);
leftKerningGroup = alpha;
unicode = 0067;
},
{
glyphname = h;
layers = (
{
layerId = "D8F064C8-C1A6-4DD6-979F-3446BEDB940F";
paths = (
{
closed = 1;
nodes = (
"286 1536 LINE",
"479 1536 LINE",
"371 948 LINE",
"444 1024 OFFCURVE",
"630 1109 OFFCURVE",
"737 1109 QCURVE SMOOTH",
"906 1109 OFFCURVE",
"1073 915 OFFCURVE",
"1036 686 QCURVE SMOOTH",
"916 0 LINE",
"723 0 LINE",
"843 688 LINE SMOOTH",
"865 823 OFFCURVE",
"762 939 OFFCURVE",
"651 939 QCURVE SMOOTH",
"555 939 OFFCURVE",
"394 838 OFFCURVE",
"339 758 QCURVE",
"208 0 LINE",
"16 0 LINE"
);
}
);
width = 1178;
}
);
leftKerningGroup = bhk_LC;
rightKerningGroup = hmn_LC;
unicode = 0068;
},
{
glyphname = i;
layers = (
{
layerId = "D8F064C8-C1A6-4DD6-979F-3446BEDB940F";
paths = (
{
closed = 1;
nodes = (
"210 1089 LINE",
"402 1089 LINE",
"217 0 LINE",
"24 0 LINE"
);
},
{
closed = 1;
nodes = (
"249 1447 OFFCURVE",
"309 1513 OFFCURVE",
"365 1513 QCURVE SMOOTH",
"420 1513 OFFCURVE",
"478 1447 OFFCURVE",
"477 1399 QCURVE SMOOTH",
"475 1350 OFFCURVE",
"415 1284 OFFCURVE",
"359 1284 QCURVE SMOOTH",
"304 1284 OFFCURVE",
"246 1350 OFFCURVE",
"248 1399 QCURVE SMOOTH"
);
}
);
width = 497;
}
);
leftKerningGroup = i_LC;
rightKerningGroup = i_LC;
unicode = 0069;
},
{
glyphname = j;
layers = (
{
layerId = "D8F064C8-C1A6-4DD6-979F-3446BEDB940F";
paths = (
{
closed = 1;
nodes = (
"-285 -248 LINE",
"-266 -254 OFFCURVE",
"-191 -268 OFFCURVE",
"-160 -268 QCURVE SMOOTH",
"-97 -268 OFFCURVE",
"-13 -198 OFFCURVE",
"1 -118 QCURVE SMOOTH",
"210 1089 LINE",
"402 1089 LINE",
"201 -90 LINE SMOOTH",
"169 -270 OFFCURVE",
"-8 -436 OFFCURVE",
"-150 -436 QCURVE SMOOTH",
"-192 -436 OFFCURVE",
"-288 -419 OFFCURVE",
"-311 -410 QCURVE"
);
},
{
closed = 1;
nodes = (
"249 1447 OFFCURVE",
"309 1513 OFFCURVE",
"365 1513 QCURVE SMOOTH",
"420 1513 OFFCURVE",
"478 1447 OFFCURVE",
"477 1399 QCURVE SMOOTH",
"475 1350 OFFCURVE",
"415 1284 OFFCURVE",
"359 1284 QCURVE SMOOTH",
"304 1284 OFFCURVE",
"246 1350 OFFCURVE",
"248 1399 QCURVE SMOOTH"
);
}
);
width = 497;
}
);
rightKerningGroup = j_LC;
unicode = 006A;
},
{
glyphname = k;
layers = (
{
layerId = "D8F064C8-C1A6-4DD6-979F-3446BEDB940F";
paths = (
{
closed = 1;
nodes = (
"286 1536 LINE",
"479 1536 LINE",
"310 604 LINE",
"846 1089 LINE",
"1087 1089 LINE",
"268 367 LINE",
"208 0 LINE",
"16 0 LINE"
);
},
{
closed = 1;
nodes = (
"411 561 LINE",
"538 705 LINE",
"952 0 LINE",
"737 0 LINE"
);
}
);
width = 1069;
}
);
leftKerningGroup = bhk_LC;
rightKerningGroup = k_LC;
unicode = 006B;
},
{
glyphname = l;
layers = (
{
layerId = "D8F064C8-C1A6-4DD6-979F-3446BEDB940F";
paths = (
{
closed = 1;
nodes = (
"294 1536 LINE",
"487 1536 LINE",
"216 0 LINE",
"23 0 LINE"
);
}
);
width = 496;
}
);
leftKerningGroup = bhk_LC;
rightKerningGroup = l_LC;
unicode = 006C;
},
{
glyphname = m;
layers = (
{
layerId = "D8F064C8-C1A6-4DD6-979F-3446BEDB940F";
paths = (
{
closed = 1;
nodes = (
"201 1089 LINE",
"376 1089 LINE",
"361 945 LINE",
"366 945 LINE",
"440 1023 OFFCURVE",
"624 1109 OFFCURVE",
"728 1109 QCURVE SMOOTH",
"840 1109 OFFCURVE",
"987 1020 OFFCURVE",
"1012 923 QCURVE",
"1017 923 LINE",
"1105 1022 OFFCURVE",
"1295 1109 OFFCURVE",
"1406 1109 QCURVE SMOOTH",
"1578 1109 OFFCURVE",
"1741 914 OFFCURVE",
"1704 686 QCURVE SMOOTH",
"1584 0 LINE",
"1392 0 LINE",
"1512 688 LINE SMOOTH",
"1533 823 OFFCURVE",
"1437 939 OFFCURVE",
"1330 939 QCURVE SMOOTH",
"1237 939 OFFCURVE",
"1083 838 OFFCURVE",
"1028 758 QCURVE",
"897 0 LINE",
"703 0 LINE",
"823 688 LINE SMOOTH",
"845 823 OFFCURVE",
"748 939 OFFCURVE",
"641 939 QCURVE SMOOTH",
"548 939 OFFCURVE",
"394 838 OFFCURVE",
"339 758 QCURVE",
"208 0 LINE",
"16 0 LINE"
);
}
);
width = 1847;
}
);
leftKerningGroup = mnpr_LC;
rightKerningGroup = hmn_LC;
unicode = 006D;
},
{
glyphname = n;
layers = (
{
layerId = "D8F064C8-C1A6-4DD6-979F-3446BEDB940F";
paths = (
{
closed = 1;
nodes = (
"201 1089 LINE",
"376 1089 LINE",
"361 945 LINE",
"366 945 LINE",
"441 1024 OFFCURVE",
"630 1109 OFFCURVE",
"737 1109 QCURVE SMOOTH",
"906 1109 OFFCURVE",
"1073 915 OFFCURVE",
"1036 686 QCURVE SMOOTH",
"916 0 LINE",
"723 0 LINE",
"843 688 LINE SMOOTH",
"865 823 OFFCURVE",
"762 939 OFFCURVE",
"651 939 QCURVE SMOOTH",
"555 939 OFFCURVE",
"394 838 OFFCURVE",
"339 758 QCURVE",
"208 0 LINE",
"16 0 LINE"
);
}
);
width = 1178;
}
);
leftKerningGroup = mnpr_LC;
rightKerningGroup = hmn_LC;
unicode = 006E;
},
{
glyphname = o;
layers = (
{
layerId = "D8F064C8-C1A6-4DD6-979F-3446BEDB940F";
paths = (
{
closed = 1;
nodes = (
"50 561 LINE SMOOTH",
"92 807 OFFCURVE",
"430 1119 OFFCURVE",
"667 1119 QCURVE SMOOTH",
"906 1119 OFFCURVE",
"1137 807 OFFCURVE",
"1095 561 QCURVE SMOOTH",
"1090 529 LINE SMOOTH",
"1048 282 OFFCURVE",
"710 -30 OFFCURVE",
"471 -30 QCURVE SMOOTH",
"234 -30 OFFCURVE",
"2 282 OFFCURVE",
"44 529 QCURVE SMOOTH"
);
},
{
closed = 1;
nodes = (
"242 529 LINE SMOOTH",
"213 364 OFFCURVE",
"337 136 OFFCURVE",
"498 136 QCURVE SMOOTH",
"661 136 OFFCURVE",
"864 364 OFFCURVE",
"892 529 QCURVE SMOOTH",
"898 561 LINE SMOOTH",
"927 725 OFFCURVE",
"803 953 OFFCURVE",
"641 953 QCURVE SMOOTH",
"479 953 OFFCURVE",
"276 725 OFFCURVE",
"247 561 QCURVE SMOOTH"
);
}
);
width = 1210;
}
);
leftKerningGroup = o_LC;
rightKerningGroup = o_LC;
unicode = 006F;
},
{
glyphname = p;
layers = (
{
layerId = "D8F064C8-C1A6-4DD6-979F-3446BEDB940F";
paths = (
{
closed = 1;
nodes = (
"201 1089 LINE",
"376 1089 LINE",
"361 947 LINE",
"365 947 LINE",
"420 1014 OFFCURVE",
"613 1109 OFFCURVE",
"731 1109 QCURVE SMOOTH",
"941 1109 OFFCURVE",
"1140 799 OFFCURVE",
"1099 561 QCURVE SMOOTH",
"1093 529 LINE SMOOTH",
"1053 291 OFFCURVE",
"748 -20 OFFCURVE",
"538 -20 QCURVE SMOOTH",
"420 -20 OFFCURVE",
"268 61 OFFCURVE",
"230 129 QCURVE",
"135 -416 LINE",
"-58 -416 LINE"
);
},
{
closed = 1;
nodes = (
"284 259 OFFCURVE",
"414 146 OFFCURVE",
"521 146 QCURVE SMOOTH",
"681 146 OFFCURVE",
"868 367 OFFCURVE",
"896 529 QCURVE SMOOTH",
"902 561 LINE SMOOTH",
"930 722 OFFCURVE",
"820 943 OFFCURVE",
"660 943 QCURVE SMOOTH",
"553 943 OFFCURVE",
"384 830 OFFCURVE",
"338 758 QCURVE",
"263 331 LINE"
);
}
);
width = 1214;
}
);
leftKerningGroup = mnpr_LC;
rightKerningGroup = b_LC;
unicode = 0070;
},
{
glyphname = q;
layers = (
{
layerId = "D8F064C8-C1A6-4DD6-979F-3446BEDB940F";
paths = (
{
closed = 1;
nodes = (
"50 561 LINE SMOOTH",
"91 799 OFFCURVE",
"395 1109 OFFCURVE",
"605 1109 QCURVE SMOOTH",
"723 1109 OFFCURVE",
"884 1014 OFFCURVE",
"915 947 QCURVE",
"920 947 LINE",
"953 1089 LINE",
"1128 1089 LINE",
"869 -416 LINE",
"677 -416 LINE",
"772 129 LINE",
"772 129 LINE",
"711 61 OFFCURVE",
"530 -20 OFFCURVE",
"413 -20 QCURVE SMOOTH",
"203 -20 OFFCURVE",
"4 291 OFFCURVE",
"44 529 QCURVE SMOOTH"
);
},
{
closed = 1;
nodes = (
"213 367 OFFCURVE",
"324 146 OFFCURVE",
"483 146 QCURVE SMOOTH",
"590 146 OFFCURVE",
"760 259 OFFCURVE",
"805 331 QCURVE",
"880 758 LINE",
"860 830 OFFCURVE",
"729 943 OFFCURVE",
"622 943 QCURVE SMOOTH",
"463 943 OFFCURVE",
"276 722 OFFCURVE",
"247 561 QCURVE SMOOTH",
"242 529 LINE SMOOTH"
);
}
);
width = 1214;
}
);
leftKerningGroup = alpha;
unicode = 0071;
},
{
glyphname = r;
layers = (
{
layerId = "D8F064C8-C1A6-4DD6-979F-3446BEDB940F";
paths = (
{
closed = 1;
nodes = (
"201 1089 LINE",
"376 1089 LINE",
"361 948 LINE",
"366 948 LINE",
"420 1016 OFFCURVE",
"577 1119 OFFCURVE",
"673 1119 QCURVE SMOOTH",
"695 1119 OFFCURVE",
"743 1109 OFFCURVE",
"752 1105 QCURVE",
"722 916 LINE",
"702 920 OFFCURVE",
"658 924 OFFCURVE",
"631 924 QCURVE SMOOTH",
"535 924 OFFCURVE",
"384 826 OFFCURVE",
"338 754 QCURVE",
"208 0 LINE",
"16 0 LINE"
);
}
);
width = 721;
}
);
leftKerningGroup = mnpr_LC;
rightKerningGroup = r_LC;
unicode = 0072;
},
{
glyphname = s;
layers = (
{
layerId = "D8F064C8-C1A6-4DD6-979F-3446BEDB940F";
paths = (
{
closed = 1;
nodes = (
"197 320 LINE",
"196 315 LINE SMOOTH",
"180 224 OFFCURVE",
"308 129 OFFCURVE",
"425 129 QCURVE SMOOTH",
"543 129 OFFCURVE",
"686 199 OFFCURVE",
"698 269 QCURVE SMOOTH",
"710 341 OFFCURVE",
"627 433 OFFCURVE",
"449 481 QCURVE SMOOTH",
"276 528 OFFCURVE",
"108 696 OFFCURVE",
"129 826 QCURVE SMOOTH",
"151 961 OFFCURVE",
"404 1119 OFFCURVE",
"595 1119 QCURVE SMOOTH",
"789 1119 OFFCURVE",
"988 936 OFFCURVE",
"962 787 QCURVE SMOOTH",
"961 782 LINE",
"770 782 LINE",
"771 787 LINE SMOOTH",
"784 867 OFFCURVE",
"687 961 OFFCURVE",
"568 961 QCURVE SMOOTH",
"449 961 OFFCURVE",
"333 897 OFFCURVE",
"323 837 QCURVE SMOOTH",
"312 775 OFFCURVE",
"406 688 OFFCURVE",
"580 641 QCURVE SMOOTH",
"757 593 OFFCURVE",
"917 420 OFFCURVE",
"893 280 QCURVE SMOOTH",
"868 135 OFFCURVE",
"620 -30 OFFCURVE",
"398 -30 QCURVE SMOOTH",
"177 -30 OFFCURVE",
"-23 159 OFFCURVE",
"3 315 QCURVE SMOOTH",
"4 320 LINE"
);
}
);
width = 1054;
}
);
leftKerningGroup = s_LC;
rightKerningGroup = s_LC;
unicode = 0073;
},
{
glyphname = t;
layers = (
{
layerId = "D8F064C8-C1A6-4DD6-979F-3446BEDB940F";
paths = (
{
closed = 1;
nodes = (
"57 1089 LINE",
"686 1089 LINE",
"661 933 LINE",
"32 933 LINE"
);
},
{
closed = 1;
nodes = (
"240 996 LINE",
"245 1026 LINE",
"301 1312 LINE",
"493 1312 LINE",
"308 272 LINE SMOOTH",
"295 202 OFFCURVE",
"343 142 OFFCURVE",
"405 142 QCURVE SMOOTH",
"434 142 OFFCURVE",
"492 154 OFFCURVE",
"523 164 QCURVE",
"496 0 LINE",
"467 -12 OFFCURVE",
"378 -30 OFFCURVE",
"328 -30 QCURVE SMOOTH",
"207 -30 OFFCURVE",
"89 116 OFFCURVE",
"115 272 QCURVE SMOOTH"
);
}
);
width = 678;
}
);
leftKerningGroup = t_LC;
rightKerningGroup = t_LC;
unicode = 0074;
},
{
glyphname = u;
layers = (
{
layerId = "D8F064C8-C1A6-4DD6-979F-3446BEDB940F";
paths = (
{
closed = 1;
nodes = (
"191 1089 LINE",
"384 1089 LINE",
"264 401 LINE SMOOTH",
"241 266 OFFCURVE",
"344 150 OFFCURVE",
"457 150 QCURVE SMOOTH",
"551 150 OFFCURVE",
"712 251 OFFCURVE",
"767 331 QCURVE",
"898 1089 LINE",
"1092 1089 LINE",
"906 0 LINE",
"730 0 LINE",
"746 145 LINE",
"742 145 LINE",
"667 66 OFFCURVE",
"476 -20 OFFCURVE",
"369 -20 QCURVE SMOOTH",
"202 -20 OFFCURVE",
"34 175 OFFCURVE",
"72 403 QCURVE SMOOTH"
);
}
);
width = 1178;
}
);
leftKerningGroup = u_LC;
rightKerningGroup = u_LC;
unicode = 0075;
},
{
glyphname = v;
layers = (
{
layerId = "D8F064C8-C1A6-4DD6-979F-3446BEDB940F";
paths = (
{
closed = 1;
nodes = (
"244 1089 LINE",
"380 372 LINE SMOOTH",
"388 331 OFFCURVE",
"396 262 OFFCURVE",
"400 222 QCURVE",
"405 222 LINE",
"416 262 OFFCURVE",
"451 332 OFFCURVE",
"472 372 QCURVE SMOOTH",
"854 1089 LINE",
"1043 1089 LINE",
"444 0 LINE",
"286 0 LINE",
"57 1089 LINE"
);
}
);
width = 986;
}
);
leftKerningGroup = gamma;
rightKerningGroup = gamma;
unicode = 0076;
},
{
glyphname = w;
layers = (
{
layerId = "D8F064C8-C1A6-4DD6-979F-3446BEDB940F";
paths = (
{
closed = 1;
nodes = (
"268 1089 LINE",
"344 390 LINE SMOOTH",
"348 350 OFFCURVE",
"361 270 OFFCURVE",
"359 230 QCURVE",
"364 230 LINE",
"377 270 OFFCURVE",
"406 350 OFFCURVE",
"426 390 QCURVE SMOOTH",
"782 1089 LINE",
"956 1089 LINE",
"1068 390 LINE SMOOTH",
"1074 350 OFFCURVE",
"1085 270 OFFCURVE",
"1084 230 QCURVE",
"1090 230 LINE",
"1101 270 OFFCURVE",
"1133 350 OFFCURVE",
"1151 390 QCURVE SMOOTH",
"1470 1089 LINE",
"1651 1089 LINE",
"1131 0 LINE",
"968 0 LINE",
"853 717 LINE SMOOTH",
"847 757 OFFCURVE",
"836 837 OFFCURVE",
"833 877 QCURVE",
"827 877 LINE",
"809 837 OFFCURVE",
"771 757 OFFCURVE",
"750 717 QCURVE SMOOTH",
"394 0 LINE",
"231 0 LINE",
"82 1089 LINE"
);
}
);
width = 1617;
}
);
leftKerningGroup = w_LC;
rightKerningGroup = w_LC;
unicode = 0077;
},
{
glyphname = x;
layers = (
{
layerId = "D8F064C8-C1A6-4DD6-979F-3446BEDB940F";
paths = (
{
closed = 1;
nodes = (
"405 601 LINE",
"424 601 LINE",
"815 1089 LINE",
"1045 1089 LINE",
"552 503 LINE",
"533 503 LINE",
"122 0 LINE",
"-109 0 LINE"
);
},
{
closed = 1;
nodes = (
"325 1089 LINE",
"548 601 LINE",
"560 601 LINE",
"868 0 LINE",
"654 0 LINE",
"414 503 LINE",
"403 503 LINE",
"109 1089 LINE"
);
}
);
width = 1016;
}
);
unicode = 0078;
},
{
glyphname = y;
layers = (
{
layerId = "D8F064C8-C1A6-4DD6-979F-3446BEDB940F";
paths = (
{
closed = 1;
nodes = (
"-118 -246 LINE",
"-92 -254 OFFCURVE",
"-40 -264 OFFCURVE",
"-9 -264 QCURVE SMOOTH",
"65 -264 OFFCURVE",
"185 -179 OFFCURVE",
"289 27 QCURVE",
"289 27 LINE",
"67 1089 LINE",
"251 1089 LINE",
"385 382 LINE SMOOTH",
"393 341 OFFCURVE",
"406 262 OFFCURVE",
"407 222 QCURVE",
"413 222 LINE",
"425 262 OFFCURVE",
"464 341 OFFCURVE",
"485 382 QCURVE SMOOTH",
"853 1089 LINE",
"1044 1089 LINE",
"388 -140 LINE SMOOTH",
"311 -280 OFFCURVE",
"111 -436 OFFCURVE",
"-14 -436 QCURVE SMOOTH",
"-56 -436 OFFCURVE",
"-118 -426 OFFCURVE",
"-146 -416 QCURVE"
);
}
);
width = 985;
}
);
leftKerningGroup = gamma;
rightKerningGroup = gamma;
unicode = 0079;
},
{
glyphname = z;
layers = (
{
layerId = "D8F064C8-C1A6-4DD6-979F-3446BEDB940F";
paths = (
{
closed = 1;
nodes = (
"-36 150 LINE",
"723 923 LINE",
"106 923 LINE",
"133 1089 LINE",
"995 1089 LINE",
"971 942 LINE",
"208 166 LINE",
"866 166 LINE",
"839 0 LINE",
"-60 0 LINE"
);
}
);
width = 1029;
}
);
leftKerningGroup = z_LC;
rightKerningGroup = z_LC;
unicode = 007A;
},
{
glyphname = germandbls;
layers = (
{
layerId = "D8F064C8-C1A6-4DD6-979F-3446BEDB940F";
paths = (
{
closed = 1;
nodes = (
"346 0 LINE",
"148 0 LINE",
"148 1092 LINE SMOOTH",
"148 1295 OFFCURVE",
"372 1534 OFFCURVE",
"586 1534 QCURVE SMOOTH",
"763 1534 OFFCURVE",
"976 1361 OFFCURVE",
"976 1215 QCURVE SMOOTH",
"976 1127 OFFCURVE",
"922 1016 OFFCURVE",
"882 973 QCURVE SMOOTH",
"848 935 OFFCURVE",
"784 859 OFFCURVE",
"784 830 QCURVE SMOOTH",
"784 782 OFFCURVE",
"927 681 OFFCURVE",
"1014 619 QCURVE SMOOTH",
"1098 560 OFFCURVE",
"1214 411 OFFCURVE",
"1214 282 QCURVE SMOOTH",
"1214 157 OFFCURVE",
"979 -20 OFFCURVE",
"799 -20 QCURVE SMOOTH",
"623 -20 OFFCURVE",
"411 129 OFFCURVE",
"411 278 QCURVE SMOOTH",
"411 304 LINE",
"586 304 LINE",
"586 295 LINE SMOOTH",
"586 211 OFFCURVE",
"699 131 OFFCURVE",
"801 131 QCURVE SMOOTH",
"910 131 OFFCURVE",
"1025 218 OFFCURVE",
"1025 302 QCURVE SMOOTH",
"1025 371 OFFCURVE",
"919 466 OFFCURVE",
"857 512 QCURVE SMOOTH",
"780 569 OFFCURVE",
"595 706 OFFCURVE",
"595 797 QCURVE SMOOTH",
"595 871 OFFCURVE",
"684 982 OFFCURVE",
"718 1026 QCURVE SMOOTH",
"750 1066 OFFCURVE",
"787 1149 OFFCURVE",
"787 1204 QCURVE SMOOTH",
"787 1293 OFFCURVE",
"670 1383 OFFCURVE",
"582 1383 QCURVE SMOOTH",
"471 1383 OFFCURVE",
"346 1241 OFFCURVE",
"346 1092 QCURVE {name = hr00;}"
);
}
);
width = 1294;
}
);
unicode = 00DF;
},
{
glyphname = ae;
layers = (
{
layerId = "D8F064C8-C1A6-4DD6-979F-3446BEDB940F";
paths = (
{
closed = 1;
nodes = (
"293 239 OFFCURVE",
"407 133 OFFCURVE",
"527 133 QCURVE SMOOTH",
"648 133 OFFCURVE",
"842 290 OFFCURVE",
"842 378 QCURVE",
"842 534 LINE",
"604 534 LINE SMOOTH",
"451 534 OFFCURVE",
"293 425 OFFCURVE",
"293 332 QCURVE SMOOTH"
);
},
{
closed = 1;
nodes = (
"90 487 OFFCURVE",
"368 671 OFFCURVE",
"582 671 QCURVE SMOOTH",
"842 671 LINE",
"842 745 LINE SMOOTH",
"842 844 OFFCURVE",
"735 967 OFFCURVE",
"604 967 QCURVE SMOOTH",
"473 967 OFFCURVE",
"360 864 OFFCURVE",
"360 797 QCURVE SMOOTH",
"360 792 LINE",
"158 792 LINE",
"158 797 LINE SMOOTH",
"158 926 OFFCURVE",
"402 1120 OFFCURVE",
"609 1120 QCURVE SMOOTH",
"789 1120 OFFCURVE",
"977 982 OFFCURVE",
"988 902 QCURVE",
"1009 983 OFFCURVE",
"1193 1120 OFFCURVE",
"1353 1120 QCURVE SMOOTH",
"1588 1120 OFFCURVE",
"1841 828 OFFCURVE",
"1841 580 QCURVE SMOOTH",
"1841 501 LINE",
"957 501 LINE",
"957 654 LINE",
"1636 654 LINE",
"1637 679 LINE",
"1636 797 OFFCURVE",
"1495 962 OFFCURVE",
"1349 962 QCURVE SMOOTH",
"1200 962 OFFCURVE",
"1040 730 OFFCURVE",
"1040 561 QCURVE SMOOTH",
"1040 528 LINE SMOOTH",
"1040 360 OFFCURVE",
"1208 127 OFFCURVE",
"1386 127 QCURVE SMOOTH",
"1495 127 OFFCURVE",
"1652 218 OFFCURVE",
"1701 280 QCURVE",
"1833 182 LINE",
"1778 104 OFFCURVE",
"1550 -30 OFFCURVE",
"1386 -30 QCURVE SMOOTH",
"1226 -30 OFFCURVE",
"972 94 OFFCURVE",
"913 221 QCURVE",
"868 103 OFFCURVE",
"650 -20 OFFCURVE",
"484 -20 QCURVE SMOOTH",
"320 -20 OFFCURVE",
"90 156 OFFCURVE",
"90 311 QCURVE SMOOTH"
);
}
);
width = 1895;
}
);
leftKerningGroup = a_LC;
rightKerningGroup = e_LC;
unicode = 00E6;
},
{
glyphname = eth;
layers = (
{
layerId = "D8F064C8-C1A6-4DD6-979F-3446BEDB940F";
paths = (
{
closed = 1;
nodes = (
"297 1581 LINE",
"680 1506 OFFCURVE",
"1160 1008 OFFCURVE",
"1160 633 QCURVE",
"1160 535 LINE",
"1160 289 OFFCURVE",
"857 -20 OFFCURVE",
"627 -20 QCURVE SMOOTH",
"388 -20 OFFCURVE",
"85 265 OFFCURVE",
"85 468 QCURVE SMOOTH",
"85 698 OFFCURVE",
"375 978 OFFCURVE",
"595 978 QCURVE SMOOTH",
"788 978 OFFCURVE",
"1051 748 OFFCURVE",
"1051 613 QCURVE",
"972 614 LINE",
"972 680 OFFCURVE",
"808 826 OFFCURVE",
"645 826 QCURVE SMOOTH",
"479 826 OFFCURVE",
"297 632 OFFCURVE",
"297 468 QCURVE SMOOTH",
"297 345 OFFCURVE",
"471 132 OFFCURVE",
"632 132 QCURVE SMOOTH",
"777 132 OFFCURVE",
"948 363 OFFCURVE",
"948 535 QCURVE SMOOTH",
"948 635 LINE SMOOTH",
"948 984 OFFCURVE",
"521 1355 OFFCURVE",
"232 1421 QCURVE"
);
},
{
closed = 1;
nodes = (
"444 1061 LINE",
"349 1181 LINE",
"961 1546 LINE",
"1055 1427 LINE"
);
}
);
width = 1245;
}
);
unicode = 00F0;
},
{
glyphname = thorn;
layers = (
{
layerId = "D8F064C8-C1A6-4DD6-979F-3446BEDB940F";
paths = (
{
closed = 1;
nodes = (
"148 1536 LINE",
"337 1536 LINE",
"337 947 LINE",
"386 1014 OFFCURVE",
"568 1109 OFFCURVE",
"689 1109 QCURVE SMOOTH",
"905 1109 OFFCURVE",
"1164 799 OFFCURVE",
"1164 561 QCURVE SMOOTH",
"1164 529 LINE SMOOTH",
"1164 291 OFFCURVE",
"905 -20 OFFCURVE",
"689 -20 QCURVE SMOOTH",
"568 -20 OFFCURVE",
"397 61 OFFCURVE",
"351 129 QCURVE",
"346 129 LINE",
"346 -416 LINE",
"148 -416 LINE"
);
},
{
closed = 1;
nodes = (
"380 259 OFFCURVE",
"534 146 OFFCURVE",
"644 146 QCURVE SMOOTH",
"808 146 OFFCURVE",
"961 367 OFFCURVE",
"961 529 QCURVE SMOOTH",
"961 561 LINE SMOOTH",
"961 722 OFFCURVE",
"808 943 OFFCURVE",
"644 943 QCURVE SMOOTH",
"534 943 OFFCURVE",
"380 830 OFFCURVE",
"346 758 QCURVE",
"346 331 LINE"
);
}
);
width = 1249;
}
);
rightKerningGroup = b_LC;
unicode = 00FE;
},
{
glyphname = kgreenlandic;
layers = (
{
layerId = "D8F064C8-C1A6-4DD6-979F-3446BEDB940F";
paths = (
{
closed = 1;
nodes = (
"346 0 LINE",
"148 0 LINE",
"148 1089 LINE",
"346 1089 LINE"
);
},
{
closed = 1;
nodes = (
"523 465 LINE",
"247 465 LINE",
"247 628 LINE",
"435 628 LINE",
"845 1089 LINE",
"1078 1089 LINE"
);
},
{
closed = 1;
nodes = (
"426 493 LINE",
"549 628 LINE",
"1115 0 LINE",
"872 0 LINE"
);
}
);
width = 1100;
}
);
leftKerningGroup = mnpr_LC;
rightKerningGroup = k_LC;
unicode = 0138;
},
{
glyphname = oe;
layers = (
{
layerId = "D8F064C8-C1A6-4DD6-979F-3446BEDB940F";
paths = (
{
closed = 1;
nodes = (
"288 529 LINE SMOOTH",
"288 364 OFFCURVE",
"456 136 OFFCURVE",
"622 136 QCURVE SMOOTH",
"789 136 OFFCURVE",
"957 364 OFFCURVE",
"957 529 QCURVE SMOOTH",
"957 561 LINE SMOOTH",
"957 725 OFFCURVE",
"789 953 OFFCURVE",
"622 953 QCURVE SMOOTH",
"456 953 OFFCURVE",
"288 725 OFFCURVE",
"288 561 QCURVE SMOOTH"
);
},
{
closed = 1;
nodes = (
"1123 1008 OFFCURVE",
"1337 1119 OFFCURVE",
"1472 1119 QCURVE SMOOTH",
"1706 1119 OFFCURVE",
"1957 827 OFFCURVE",
"1957 579 QCURVE SMOOTH",
"1957 495 LINE",
"1080 495 LINE",
"1080 654 LINE",
"1756 654 LINE",
"1756 661 LINE",
"1755 784 OFFCURVE",
"1626 955 OFFCURVE",
"1472 955 QCURVE SMOOTH",
"1319 955 OFFCURVE",
"1158 727 OFFCURVE",
"1158 561 QCURVE SMOOTH",
"1158 529 LINE SMOOTH",
"1158 363 OFFCURVE",
"1327 134 OFFCURVE",
"1504 134 QCURVE SMOOTH",
"1613 134 OFFCURVE",
"1770 222 OFFCURVE",
"1818 283 QCURVE",
"1946 175 LINE",
"1893 99 OFFCURVE",
"1666 -30 OFFCURVE",
"1504 -30 QCURVE SMOOTH",
"1350 -30 OFFCURVE",
"1123 80 OFFCURVE",
"1055 177 QCURVE",
"987 80 OFFCURVE",
"765 -30 OFFCURVE",
"622 -30 QCURVE SMOOTH",
"378 -30 OFFCURVE",
"85 282 OFFCURVE",
"85 529 QCURVE SMOOTH",
"85 561 LINE SMOOTH",
"85 807 OFFCURVE",
"378 1119 OFFCURVE",
"622 1119 QCURVE SMOOTH",
"765 1119 OFFCURVE",
"987 1008 OFFCURVE",
"1056 911 QCURVE"
);
}
);
width = 2011;
}
);
leftKerningGroup = alpha;
rightKerningGroup = e_LC;
unicode = 0153;
},
{
glyphname = schwa;
layers = (
{
layerId = "D8F064C8-C1A6-4DD6-979F-3446BEDB940F";
paths = (
{
closed = 1;
nodes = (
"1054 528 LINE SMOOTH",
"1054 282 OFFCURVE",
"771 -30 OFFCURVE",
"539 -30 QCURVE SMOOTH",
"305 -30 OFFCURVE",
"54 262 OFFCURVE",
"54 510 QCURVE SMOOTH",
"54 594 LINE",
"931 594 LINE",
"931 435 LINE",
"255 435 LINE",
"255 438 LINE",
"255 307 OFFCURVE",
"384 134 OFFCURVE",
"539 134 QCURVE SMOOTH",
"692 134 OFFCURVE",
"853 362 OFFCURVE",
"853 528 QCURVE SMOOTH",
"853 560 LINE SMOOTH",
"853 726 OFFCURVE",
"684 955 OFFCURVE",
"507 955 QCURVE SMOOTH",
"398 955 OFFCURVE",
"241 867 OFFCURVE",
"193 806 QCURVE",
"65 914 LINE",
"118 990 OFFCURVE",
"345 1119 OFFCURVE",
"507 1119 QCURVE SMOOTH",
"772 1119 OFFCURVE",
"1054 807 OFFCURVE",
"1054 560 QCURVE SMOOTH"
);
}
);
width = 1139;
}
);
rightKerningGroup = o_LC;
unicode = 0259;
},
{
glyphname = primemod;
layers = (
{
layerId = "D8F064C8-C1A6-4DD6-979F-3446BEDB940F";
paths = (
{
closed = 1;
nodes = (
"482 1502 LINE",
"329 845 LINE",
"172 851 LINE",
"239 1502 LINE"
);
}
);
width = 642;
}
);
unicode = 02B9;
},
{
glyphname = doubleprimemod;
layers = (
{
layerId = "D8F064C8-C1A6-4DD6-979F-3446BEDB940F";
paths = (
{
closed = 1;
nodes = (
"482 1502 LINE",
"329 845 LINE",
"172 851 LINE",
"239 1502 LINE"
);
},
{
closed = 1;
nodes = (
"932 1502 LINE",
"779 845 LINE",
"622 851 LINE",
"689 1502 LINE"
);
}
);
width = 1082;
}
);
unicode = 02BA;
},
{
glyphname = apostrophemod;
layers = (
{
layerId = "D8F064C8-C1A6-4DD6-979F-3446BEDB940F";
paths = (
{
closed = 1;
nodes = (
"204 986 OFFCURVE",
"333 1131 OFFCURVE",
"351 1214 QCURVE",
"264 1214 OFFCURVE",
"165 1307 OFFCURVE",
"165 1379 QCURVE SMOOTH",
"165 1451 OFFCURVE",
"265 1546 OFFCURVE",
"343 1546 QCURVE SMOOTH",
"415 1546 OFFCURVE",
"534 1428 OFFCURVE",
"534 1332 QCURVE SMOOTH",
"534 1182 OFFCURVE",
"338 950 OFFCURVE",
"208 888 QCURVE",
"155 949 LINE"
);
}
);
width = 684;
}
);
leftKerningGroup = minute;
rightKerningGroup = minute;
unicode = 02BC;
},
{
glyphname = ordfeminine;
layers = (
{
guideLines = (
{
position = "{0, 1681}";
},
{
position = "{0, 909}";
}
);
layerId = "D8F064C8-C1A6-4DD6-979F-3446BEDB940F";
paths = (
{
closed = 1;
nodes = (
"691 830 OFFCURVE",
"714 739 OFFCURVE",
"741 707 QCURVE",
"898 707 LINE",
"881 753 OFFCURVE",
"867 848 OFFCURVE",
"867 900 QCURVE SMOOTH",
"867 1235 LINE SMOOTH",
"867 1381 OFFCURVE",
"682 1530 OFFCURVE",
"526 1530 QCURVE SMOOTH",
"378 1530 OFFCURVE",
"178 1400 OFFCURVE",
"178 1299 QCURVE SMOOTH",
"178 1270 LINE",
"358 1270 LINE",
"358 1284 LINE SMOOTH",
"358 1332 OFFCURVE",
"445 1390 OFFCURVE",
"528 1390 QCURVE SMOOTH",
"606 1390 OFFCURVE",
"691 1315 OFFCURVE",
"691 1236 QCURVE SMOOTH",
"691 873 LINE"
);
},
{
closed = 1;
nodes = (
"541 1180 LINE SMOOTH",
"344 1180 OFFCURVE",
"150 1051 OFFCURVE",
"150 933 QCURVE SMOOTH",
"150 824 OFFCURVE",
"298 692 OFFCURVE",
"436 692 QCURVE SMOOTH",
"553 692 OFFCURVE",
"706 794 OFFCURVE",
"731 847 QCURVE",
"710 966 LINE",
"710 926 OFFCURVE",
"556 831 OFFCURVE",
"481 831 QCURVE SMOOTH",
"407 831 OFFCURVE",
"333 892 OFFCURVE",
"333 937 QCURVE SMOOTH",
"333 988 OFFCURVE",
"437 1065 OFFCURVE",
"542 1065 QCURVE SMOOTH",
"724 1065 LINE",
"724 1180 LINE"
);
}
);
width = 1048;
}
);
unicode = 00AA;
userData = {
com.typemytype.robofont.guideline.magnetic.3CJlALCfkl = 5;
com.typemytype.robofont.guideline.magnetic.Zdl6NZVQAy = 5;
};
},
{
glyphname = ordmasculine;
layers = (
{
guideLines = (
{
position = "{0, 1975}";
}
);
layerId = "D8F064C8-C1A6-4DD6-979F-3446BEDB940F";
paths = (
{
closed = 1;
nodes = (
"150 1124 LINE",
"150 1278 OFFCURVE",
"359 1477 OFFCURVE",
"536 1477 QCURVE SMOOTH",
"715 1477 OFFCURVE",
"923 1278 OFFCURVE",
"923 1124 QCURVE",
"923 1043 LINE",
"923 889 OFFCURVE",
"716 691 OFFCURVE",
"539 691 QCURVE SMOOTH",
"360 691 OFFCURVE",
"150 889 OFFCURVE",
"150 1043 QCURVE"
);
},
{
closed = 1;
nodes = (
"334 1043 LINE",
"334 952 OFFCURVE",
"435 830 OFFCURVE",
"539 830 QCURVE SMOOTH",
"639 830 OFFCURVE",
"740 952 OFFCURVE",
"740 1043 QCURVE",
"740 1124 LINE",
"740 1213 OFFCURVE",
"639 1336 OFFCURVE",
"536 1336 QCURVE SMOOTH",
"434 1336 OFFCURVE",
"334 1213 OFFCURVE",
"334 1124 QCURVE"
);
}
);
width = 1073;
}
);
unicode = 00BA;
userData = {
com.typemytype.robofont.guideline.magnetic.Jnt0R9CyOf = 5;
};
},
{
glyphname = hookabovecomb;
layers = (
{
layerId = "D8F064C8-C1A6-4DD6-979F-3446BEDB940F";
paths = (
{
closed = 1;
nodes = (
"447 1188 LINE SMOOTH",
"447 1243 OFFCURVE",
"509 1316 OFFCURVE",
"589 1328 QCURVE SMOOTH",
"648 1336 OFFCURVE",
"690 1370 OFFCURVE",
"690 1413 QCURVE SMOOTH",
"690 1454 OFFCURVE",
"628 1491 OFFCURVE",
"571 1491 QCURVE SMOOTH",
"504 1491 OFFCURVE",
"386 1457 OFFCURVE",
"376 1448 QCURVE",
"319 1580 LINE",
"356 1600 OFFCURVE",
"518 1643 OFFCURVE",
"604 1643 QCURVE SMOOTH",
"730 1643 OFFCURVE",
"861 1523 OFFCURVE",
"861 1422 QCURVE SMOOTH",
"861 1316 OFFCURVE",
"727 1191 OFFCURVE",
"576 1180 QCURVE",
"576 1147 LINE",
"447 1147 LINE"
);
}
);
width = 1024;
}
);
unicode = 0309;
},
{
glyphname = breveinvertedcomb;
layers = (
{
layerId = "D8F064C8-C1A6-4DD6-979F-3446BEDB940F";
paths = (
{
closed = 1;
nodes = (
"160 1255 LINE",
"197 1359 OFFCURVE",
"381 1534 OFFCURVE",
"513 1534 QCURVE SMOOTH",
"632 1534 OFFCURVE",
"822 1373 OFFCURVE",
"866 1254 QCURVE",
"757 1198 LINE",
"720 1258 OFFCURVE",
"595 1362 OFFCURVE",
"512 1362 QCURVE SMOOTH",
"424 1362 OFFCURVE",
"298 1262 OFFCURVE",
"260 1198 QCURVE"
);
}
);
width = 1024;
}
);
unicode = 030F;
},
{
glyphname = horncomb;
layers = (
{
layerId = "D8F064C8-C1A6-4DD6-979F-3446BEDB940F";
paths = (
{
closed = 1;
nodes = (
"79 998 LINE SMOOTH",
"129 998 OFFCURVE",
"205 1033 OFFCURVE",
"205 1088 QCURVE SMOOTH",
"205 1136 OFFCURVE",
"191 1213 OFFCURVE",
"181 1251 QCURVE",
"334 1251 LINE",
"355 1216 OFFCURVE",
"390 1108 OFFCURVE",
"390 1041 QCURVE SMOOTH",
"390 948 OFFCURVE",
"243 859 OFFCURVE",
"142 859 QCURVE SMOOTH",
"93 859 OFFCURVE",
"18 872 OFFCURVE",
"-9 881 QCURVE",
"-9 998 LINE"
);
}
);
width = 1024;
}
);
unicode = 031B;
},
{
glyphname = dotbelowcomb;
layers = (
{
layerId = "D8F064C8-C1A6-4DD6-979F-3446BEDB940F";
paths = (
{
closed = 1;
nodes = (
"394 -224 OFFCURVE",
"454 -164 OFFCURVE",
"512 -164 QCURVE SMOOTH",
"566 -164 OFFCURVE",
"630 -228 OFFCURVE",
"630 -279 QCURVE SMOOTH",
"630 -335 OFFCURVE",
"570 -395 OFFCURVE",
"512 -395 QCURVE SMOOTH",
"458 -395 OFFCURVE",
"394 -331 OFFCURVE",
"394 -279 QCURVE SMOOTH"
);
}
);
width = 1024;
}
);
unicode = 0323;
},
{
glyphname = dieresisbelowcomb;
layers = (
{
layerId = "D8F064C8-C1A6-4DD6-979F-3446BEDB940F";
paths = (
{
closed = 1;
nodes = (
"166 -273 OFFCURVE",
"226 -214 OFFCURVE",
"282 -214 QCURVE SMOOTH",
"335 -214 OFFCURVE",
"398 -277 OFFCURVE",
"398 -328 QCURVE SMOOTH",
"398 -382 OFFCURVE",
"339 -441 OFFCURVE",
"282 -441 QCURVE SMOOTH",
"229 -441 OFFCURVE",
"166 -379 OFFCURVE",
"166 -328 QCURVE SMOOTH"
);
},
{
closed = 1;
nodes = (
"626 -273 OFFCURVE",
"686 -214 OFFCURVE",
"742 -214 QCURVE SMOOTH",
"795 -214 OFFCURVE",
"858 -277 OFFCURVE",
"858 -328 QCURVE SMOOTH",
"858 -382 OFFCURVE",
"799 -441 OFFCURVE",
"742 -441 QCURVE SMOOTH",
"689 -441 OFFCURVE",
"626 -379 OFFCURVE",
"626 -328 QCURVE SMOOTH"
);
}
);
width = 1024;
}
);
unicode = 0324;
},
{
glyphname = commaaccentcomb;
layers = (
{
layerId = "D8F064C8-C1A6-4DD6-979F-3446BEDB940F";
paths = (
{
closed = 1;
nodes = (
"398 -437 OFFCURVE",
"436 -290 OFFCURVE",
"460 -156 QCURVE",
"672 -154 LINE",
"539 -550 LINE",
"368 -547 LINE"
);
}
);
width = 1024;
}
);
unicode = 0326;
},
{
glyphname = brevebelowcomb;
layers = (
{
layerId = "D8F064C8-C1A6-4DD6-979F-3446BEDB940F";
paths = (
{
closed = 1;
nodes = (
"896 -197 LINE",
"857 -296 OFFCURVE",
"656 -463 OFFCURVE",
"512 -463 QCURVE SMOOTH",
"384 -463 OFFCURVE",
"177 -310 OFFCURVE",
"129 -196 QCURVE",
"229 -127 LINE",
"272 -190 OFFCURVE",
"417 -294 OFFCURVE",
"512 -294 QCURVE SMOOTH",
"614 -294 OFFCURVE",
"760 -195 OFFCURVE",
"803 -127 QCURVE"
);
}
);
width = 1024;
}
);
unicode = 032E;
},
{
glyphname = macronbelowcomb;
layers = (
{
layerId = "D8F064C8-C1A6-4DD6-979F-3446BEDB940F";
paths = (
{
closed = 1;
nodes = (
"216 -103 LINE",
"808 -103 LINE",
"808 -259 LINE",
"216 -259 LINE"
);
}
);
width = 1024;
}
);
unicode = 0331;
},
{
glyphname = zero;
layers = (
{
layerId = "D8F064C8-C1A6-4DD6-979F-3446BEDB940F";
paths = (
{
closed = 1;
nodes = (
"140 964 LINE SMOOTH",
"186 1198 OFFCURVE",
"485 1486 OFFCURVE",
"714 1486 QCURVE SMOOTH",
"940 1486 OFFCURVE",
"1159 1198 OFFCURVE",
"1112 964 QCURVE SMOOTH",
"1018 492 LINE SMOOTH",
"971 258 OFFCURVE",
"673 -30 OFFCURVE",
"446 -30 QCURVE SMOOTH",
"218 -30 OFFCURVE",
"1 257 OFFCURVE",
"47 492 QCURVE SMOOTH"
);
},
{
closed = 1;
nodes = (
"216 334 OFFCURVE",
"328 143 OFFCURVE",
"474 143 QCURVE SMOOTH",
"619 143 OFFCURVE",
"788 334 OFFCURVE",
"817 482 QCURVE SMOOTH",
"915 974 LINE SMOOTH",
"944 1122 OFFCURVE",
"831 1313 OFFCURVE",
"686 1313 QCURVE SMOOTH",
"540 1313 OFFCURVE",
"372 1121 OFFCURVE",
"343 974 QCURVE SMOOTH",
"245 482 LINE SMOOTH"
);
}
);
width = 1159;
}
);
unicode = 0030;
},
{
glyphname = one;
layers = (
{
layerId = "D8F064C8-C1A6-4DD6-979F-3446BEDB940F";
paths = (
{
closed = 1;
nodes = (
"629 1234 LINE",
"223 1078 LINE",
"256 1276 LINE",
"826 1476 LINE",
"870 1476 LINE",
"610 0 LINE",
"410 0 LINE"
);
}
);
width = 1158;
}
);
unicode = 0031;
},
{
glyphname = two;
layers = (
{
layerId = "D8F064C8-C1A6-4DD6-979F-3446BEDB940F";
paths = (
{
closed = 1;
nodes = (
"-9 157 LINE",
"623 713 LINE SMOOTH",
"742 817 OFFCURVE",
"897 977 OFFCURVE",
"914 1073 QCURVE SMOOTH",
"932 1170 OFFCURVE",
"817 1313 OFFCURVE",
"693 1313 QCURVE SMOOTH",
"565 1313 OFFCURVE",
"369 1158 OFFCURVE",
"345 1025 QCURVE SMOOTH",
"343 1006 LINE",
"145 1006 LINE",
"146 1025 LINE SMOOTH",
"161 1228 OFFCURVE",
"509 1486 OFFCURVE",
"720 1486 QCURVE SMOOTH",
"928 1486 OFFCURVE",
"1142 1245 OFFCURVE",
"1113 1083 QCURVE SMOOTH",
"1088 940 OFFCURVE",
"890 701 OFFCURVE",
"751 583 QCURVE SMOOTH",
"269 173 LINE",
"989 173 LINE",
"960 0 LINE",
"-33 0 LINE"
);
}
);
width = 1158;
}
);
unicode = 0032;
},
{
glyphname = three;
layers = (
{
layerId = "D8F064C8-C1A6-4DD6-979F-3446BEDB940F";
paths = (
{
closed = 1;
nodes = (
"4 395 LINE",
"199 395 LINE",
"197 385 LINE SMOOTH",
"176 269 OFFCURVE",
"318 141 OFFCURVE",
"455 141 QCURVE SMOOTH",
"592 141 OFFCURVE",
"778 269 OFFCURVE",
"803 405 QCURVE SMOOTH",
"828 539 OFFCURVE",
"669 675 OFFCURVE",
"515 675 QCURVE SMOOTH",
"390 675 LINE",
"417 842 LINE",
"531 842 LINE SMOOTH",
"674 842 OFFCURVE",
"853 971 OFFCURVE",
"874 1086 QCURVE SMOOTH",
"895 1201 OFFCURVE",
"781 1315 OFFCURVE",
"666 1315 QCURVE SMOOTH",
"553 1315 OFFCURVE",
"384 1201 OFFCURVE",
"365 1095 QCURVE SMOOTH",
"363 1085 LINE",
"169 1085 LINE",
"170 1095 LINE SMOOTH",
"199 1257 OFFCURVE",
"496 1486 OFFCURVE",
"694 1486 QCURVE SMOOTH",
"893 1486 OFFCURVE",
"1106 1269 OFFCURVE",
"1076 1098 QCURVE SMOOTH",
"1059 998 OFFCURVE",
"914 817 OFFCURVE",
"787 766 QCURVE",
"786 762 LINE",
"909 730 OFFCURVE",
"1030 541 OFFCURVE",
"1005 403 QCURVE SMOOTH",
"970 201 OFFCURVE",
"645 -30 OFFCURVE",
"427 -30 QCURVE SMOOTH",
"210 -30 OFFCURVE",
"-29 203 OFFCURVE",
"3 385 QCURVE SMOOTH"
);
}
);
width = 1158;
}
);
unicode = 0033;
},
{
glyphname = four;
layers = (
{
layerId = "D8F064C8-C1A6-4DD6-979F-3446BEDB940F";
paths = (
{
closed = 1;
nodes = (
"674 398 LINE",
"684 450 LINE",
"807 1163 LINE",
"795 1163 LINE",
"226 510 LINE",
"737 510 LINE",
"815 510 LINE",
"1088 510 LINE",
"1060 339 LINE",
"-29 339 LINE",
"-7 484 LINE",
"864 1456 LINE",
"1051 1456 LINE",
"794 0 LINE",
"604 0 LINE"
);
}
);
width = 1159;
}
);
unicode = 0034;
},
{
glyphname = five;
layers = (
{
layerId = "D8F064C8-C1A6-4DD6-979F-3446BEDB940F";
paths = (
{
closed = 1;
nodes = (
"21 380 LINE",
"214 380 LINE",
"212 370 LINE SMOOTH",
"192 264 OFFCURVE",
"331 141 OFFCURVE",
"466 141 QCURVE SMOOTH",
"601 141 OFFCURVE",
"804 311 OFFCURVE",
"832 465 QCURVE SMOOTH",
"860 619 OFFCURVE",
"718 780 OFFCURVE",
"584 780 QCURVE SMOOTH",
"492 780 OFFCURVE",
"340 714 OFFCURVE",
"269 654 QCURVE",
"135 726 LINE",
"335 1456 LINE",
"1127 1456 LINE",
"1097 1270 LINE",
"468 1270 LINE",
"354 871 LINE",
"410 903 OFFCURVE",
"561 952 OFFCURVE",
"647 952 QCURVE SMOOTH",
"842 952 OFFCURVE",
"1071 695 OFFCURVE",
"1030 465 QCURVE SMOOTH",
"990 235 OFFCURVE",
"656 -30 OFFCURVE",
"439 -30 QCURVE SMOOTH",
"220 -30 OFFCURVE",
"-11 198 OFFCURVE",
"19 370 QCURVE SMOOTH"
);
}
);
width = 1158;
}
);
unicode = 0035;
},
{
glyphname = six;
layers = (
{
layerId = "D8F064C8-C1A6-4DD6-979F-3446BEDB940F";
paths = (
{
closed = 1;
nodes = (
"55 644 LINE SMOOTH",
"122 1024 OFFCURVE",
"632 1486 OFFCURVE",
"1028 1486 QCURVE SMOOTH",
"1048 1486 LINE",
"1020 1313 LINE",
"1000 1313 LINE SMOOTH",
"709 1313 OFFCURVE",
"314 996 OFFCURVE",
"252 654 QCURVE SMOOTH",
"243 604 LINE SMOOTH",
"197 351 OFFCURVE",
"350 141 OFFCURVE",
"495 141 QCURVE SMOOTH",
"639 141 OFFCURVE",
"830 311 OFFCURVE",
"858 465 QCURVE SMOOTH",
"886 619 OFFCURVE",
"758 787 OFFCURVE",
"613 787 QCURVE SMOOTH",
"479 787 OFFCURVE",
"241 619 OFFCURVE",
"213 465 QCURVE",
"140 465 LINE",
"179 686 OFFCURVE",
"475 958 OFFCURVE",
"682 958 QCURVE SMOOTH",
"890 958 OFFCURVE",
"1095 686 OFFCURVE",
"1056 465 QCURVE SMOOTH",
"1018 245 OFFCURVE",
"684 -30 OFFCURVE",
"467 -30 QCURVE SMOOTH",
"249 -30 OFFCURVE",
"-10 274 OFFCURVE",
"50 614 QCURVE SMOOTH"
);
}
);
width = 1158;
}
);
unicode = 0036;
},
{
glyphname = seven;
layers = (
{
layerId = "D8F064C8-C1A6-4DD6-979F-3446BEDB940F";
paths = (
{
closed = 1;
nodes = (
"958 1280 LINE",
"168 1280 LINE",
"196 1456 LINE",
"1196 1456 LINE",
"1178 1333 LINE",
"371 0 LINE",
"165 0 LINE"
);
}
);
width = 1158;
}
);
unicode = 0037;
},
{
glyphname = eight;
layers = (
{
layerId = "D8F064C8-C1A6-4DD6-979F-3446BEDB940F";
paths = (
{
closed = 1;
nodes = (
"50 516 OFFCURVE",
"229 699 OFFCURVE",
"351 743 QCURVE",
"351 747 LINE",
"272 790 OFFCURVE",
"176 967 OFFCURVE",
"197 1087 QCURVE SMOOTH",
"229 1267 OFFCURVE",
"527 1486 OFFCURVE",
"714 1486 QCURVE SMOOTH",
"899 1486 OFFCURVE",
"1121 1267 OFFCURVE",
"1088 1087 QCURVE SMOOTH",
"1067 967 OFFCURVE",
"911 790 OFFCURVE",
"815 747 QCURVE",
"815 743 LINE",
"921 699 OFFCURVE",
"1035 516 OFFCURVE",
"1013 386 QCURVE SMOOTH",
"978 188 OFFCURVE",
"652 -30 OFFCURVE",
"446 -30 QCURVE SMOOTH",
"239 -30 OFFCURVE",
"-8 188 OFFCURVE",
"27 386 QCURVE SMOOTH"
);
},
{
closed = 1;
nodes = (
"204 283 OFFCURVE",
"341 140 OFFCURVE",
"474 140 QCURVE SMOOTH",
"607 140 OFFCURVE",
"797 283 OFFCURVE",
"818 398 QCURVE SMOOTH",
"839 515 OFFCURVE",
"702 660 OFFCURVE",
"569 660 QCURVE SMOOTH",
"436 660 OFFCURVE",
"246 515 OFFCURVE",
"225 398 QCURVE SMOOTH"
);
},
{
closed = 1;
nodes = (
"368 968 OFFCURVE",
"484 830 OFFCURVE",
"597 830 QCURVE SMOOTH",
"710 830 OFFCURVE",
"876 968 OFFCURVE",
"895 1075 QCURVE SMOOTH",
"915 1180 OFFCURVE",
"798 1316 OFFCURVE",
"686 1316 QCURVE SMOOTH",
"573 1316 OFFCURVE",
"407 1180 OFFCURVE",
"388 1075 QCURVE SMOOTH"
);
}
);
width = 1159;
}
);
unicode = 0038;
},
{
glyphname = nine;
layers = (
{
layerId = "D8F064C8-C1A6-4DD6-979F-3446BEDB940F";
paths = (
{
closed = 1;
nodes = (
"143 1217 OFFCURVE",
"475 1486 OFFCURVE",
"692 1486 QCURVE SMOOTH",
"910 1486 OFFCURVE",
"1170 1182 OFFCURVE",
"1110 842 QCURVE SMOOTH",
"1105 812 LINE SMOOTH",
"1038 432 OFFCURVE",
"527 -30 OFFCURVE",
"131 -30 QCURVE SMOOTH",
"111 -30 LINE",
"139 143 LINE",
"159 143 LINE SMOOTH",
"451 143 OFFCURVE",
"845 460 OFFCURVE",
"907 802 QCURVE SMOOTH",
"916 852 LINE SMOOTH",
"962 1105 OFFCURVE",
"809 1315 OFFCURVE",
"664 1315 QCURVE SMOOTH",
"520 1315 OFFCURVE",
"330 1150 OFFCURVE",
"303 1001 QCURVE SMOOTH",
"275 852 OFFCURVE",
"405 689 OFFCURVE",
"550 689 QCURVE SMOOTH",
"684 689 OFFCURVE",
"921 852 OFFCURVE",
"948 1001 QCURVE",
"1021 1001 LINE",
"983 784 OFFCURVE",
"687 518 OFFCURVE",
"480 518 QCURVE SMOOTH",
"274 518 OFFCURVE",
"66 784 OFFCURVE",
"105 1001 QCURVE SMOOTH"
);
}
);
width = 1158;
}
);
unicode = 0039;
},
{
glyphname = onesuperior;
layers = (
{
layerId = "D8F064C8-C1A6-4DD6-979F-3446BEDB940F";
paths = (
{
closed = 1;
nodes = (
"105 1359 LINE",
"471 1486 LINE",
"519 1486 LINE",
"519 621 LINE",
"342 621 LINE",
"342 1269 LINE",
"105 1184 LINE"
);
}
);
width = 751;
}
);
unicode = 00B9;
},
{
glyphname = twosuperior;
layers = (
{
layerId = "D8F064C8-C1A6-4DD6-979F-3446BEDB940F";
paths = (
{
closed = 1;
nodes = (
"100 739 LINE",
"416 1025 LINE SMOOTH",
"490 1092 OFFCURVE",
"534 1190 OFFCURVE",
"534 1226 QCURVE SMOOTH",
"534 1279 OFFCURVE",
"477 1333 OFFCURVE",
"412 1333 QCURVE SMOOTH",
"341 1333 OFFCURVE",
"263 1252 OFFCURVE",
"264 1170 QCURVE",
"80 1170 LINE",
"79 1314 OFFCURVE",
"252 1487 OFFCURVE",
"408 1487 QCURVE SMOOTH",
"555 1487 OFFCURVE",
"722 1347 OFFCURVE",
"722 1228 QCURVE SMOOTH",
"722 1140 OFFCURVE",
"617 1005 OFFCURVE",
"520 921 QCURVE SMOOTH",
"361 783 LINE",
"756 783 LINE",
"756 620 LINE",
"100 620 LINE"
);
}
);
width = 836;
}
);
unicode = 00B2;
},
{
glyphname = threesuperior;
layers = (
{
layerId = "D8F064C8-C1A6-4DD6-979F-3446BEDB940F";
paths = (
{
closed = 1;
nodes = (
"232 865 LINE",
"232 816 OFFCURVE",
"320 760 OFFCURVE",
"392 760 QCURVE SMOOTH",
"468 760 OFFCURVE",
"538 817 OFFCURVE",
"538 871 QCURVE SMOOTH",
"538 929 OFFCURVE",
"455 984 OFFCURVE",
"375 985 QCURVE SMOOTH",
"282 985 LINE",
"282 1118 LINE",
"375 1118 LINE SMOOTH",
"454 1118 OFFCURVE",
"524 1180 OFFCURVE",
"524 1233 QCURVE SMOOTH",
"524 1281 OFFCURVE",
"464 1336 OFFCURVE",
"389 1336 QCURVE SMOOTH",
"326 1336 OFFCURVE",
"244 1281 OFFCURVE",
"244 1234 QCURVE",
"72 1234 LINE",
"72 1344 OFFCURVE",
"255 1487 OFFCURVE",
"386 1487 QCURVE SMOOTH",
"528 1487 OFFCURVE",
"710 1361 OFFCURVE",
"710 1241 QCURVE SMOOTH",
"710 1185 OFFCURVE",
"641 1084 OFFCURVE",
"575 1060 QCURVE",
"650 1035 OFFCURVE",
"722 934 OFFCURVE",
"722 862 QCURVE SMOOTH",
"722 741 OFFCURVE",
"529 608 OFFCURVE",
"387 608 QCURVE SMOOTH",
"241 608 OFFCURVE",
"60 736 OFFCURVE",
"60 865 QCURVE"
);
}
);
width = 782;
}
);
unicode = 00B3;
},
{
glyphname = foursuperior;
layers = (
{
layerId = "D8F064C8-C1A6-4DD6-979F-3446BEDB940F";
paths = (
{
closed = 1;
nodes = (
"60 932 LINE",
"524 1496 LINE",
"676 1496 LINE",
"483 1248 LINE",
"254 963 LINE",
"853 963 LINE",
"853 820 LINE",
"68 820 LINE"
);
},
{
closed = 1;
nodes = (
"721 620 LINE",
"528 620 LINE",
"528 1496 LINE",
"721 1496 LINE"
);
}
);
width = 913;
}
);
unicode = 2074;
},
{
glyphname = underscore;
layers = (
{
layerId = "D8F064C8-C1A6-4DD6-979F-3446BEDB940F";
paths = (
{
closed = 1;
nodes = (
"-171 -244 LINE",
"822 -244 LINE",
"792 -416 LINE",
"-201 -416 LINE"
);
}
);
width = 993;
}
);
unicode = 005F;
},
{
glyphname = hyphen;
layers = (
{
layerId = "D8F064C8-C1A6-4DD6-979F-3446BEDB940F";
paths = (
{
closed = 1;
nodes = (
"36 721 LINE",
"613 721 LINE",
"582 539 LINE",
"6 539 LINE"
);
}
);
width = 652;
}
);
leftKerningGroup = emdash;
rightKerningGroup = emdash;
unicode = 002D;
},
{
glyphname = endash;
layers = (
{
layerId = "D8F064C8-C1A6-4DD6-979F-3446BEDB940F";
paths = (
{
closed = 1;
nodes = (
"0 721 LINE",
"1124 721 LINE",
"1124 539 LINE",
"0 539 LINE"
);
}
);
width = 1124;
}
);
leftKerningGroup = emdash;
rightKerningGroup = emdash;
unicode = 2013;
},
{
glyphname = emdash;
layers = (
{
layerId = "D8F064C8-C1A6-4DD6-979F-3446BEDB940F";
paths = (
{
closed = 1;
nodes = (
"260 721 LINE",
"1888 721 LINE",
"1888 539 LINE",
"260 539 LINE"
);
}
);
width = 2048;
}
);
leftKerningGroup = emdash;
rightKerningGroup = emdash;
unicode = 2014;
},
{
glyphname = horizontalbar;
layers = (
{
layerId = "D8F064C8-C1A6-4DD6-979F-3446BEDB940F";
paths = (
{
closed = 1;
nodes = (
"20 799 LINE",
"725 799 LINE",
"725 617 LINE",
"20 617 LINE"
);
}
);
width = 745;
}
);
leftKerningGroup = emdash;
rightKerningGroup = emdash;
unicode = 2015;
},
{
glyphname = parenleft;
layers = (
{
layerId = "D8F064C8-C1A6-4DD6-979F-3446BEDB940F";
paths = (
{
closed = 1;
nodes = (
"276 -341 OFFCURVE",
"14 123 OFFCURVE",
"83 515 QCURVE SMOOTH",
"94 577 LINE SMOOTH",
"154 917 OFFCURVE",
"580 1381 OFFCURVE",
"809 1476 QCURVE",
"778 1302 LINE",
"634 1229 OFFCURVE",
"345 870 OFFCURVE",
"287 532 QCURVE SMOOTH",
"283 508 LINE SMOOTH",
"227 170 OFFCURVE",
"387 -189 OFFCURVE",
"504 -262 QCURVE",
"472 -436 LINE"
);
}
);
width = 691;
}
);
rightKerningGroup = parens;
unicode = 0028;
},
{
glyphname = parenright;
layers = (
{
layerId = "D8F064C8-C1A6-4DD6-979F-3446BEDB940F";
paths = (
{
closed = 1;
nodes = (
"-160 -262 LINE",
"-16 -189 OFFCURVE",
"276 170 OFFCURVE",
"331 508 QCURVE SMOOTH",
"335 532 LINE SMOOTH",
"393 870 OFFCURVE",
"231 1229 OFFCURVE",
"113 1302 QCURVE",
"145 1476 LINE",
"342 1381 OFFCURVE",
"609 917 OFFCURVE",
"535 525 QCURVE SMOOTH",
"527 485 LINE SMOOTH",
"459 128 OFFCURVE",
"39 -341 OFFCURVE",
"-192 -436 QCURVE"
);
}
);
width = 691;
}
);
leftKerningGroup = parens;
unicode = 0029;
},
{
glyphname = bracketleft;
layers = (
{
layerId = "D8F064C8-C1A6-4DD6-979F-3446BEDB940F";
paths = (
{
closed = 1;
nodes = (
"268 1456 LINE",
"761 1456 LINE",
"733 1284 LINE",
"432 1284 LINE",
"177 -138 LINE",
"478 -138 LINE",
"450 -310 LINE",
"-43 -310 LINE"
);
}
);
width = 641;
}
);
rightKerningGroup = parens;
unicode = 005B;
},
{
glyphname = bracketright;
layers = (
{
layerId = "D8F064C8-C1A6-4DD6-979F-3446BEDB940F";
paths = (
{
closed = 1;
nodes = (
"-174 -310 LINE",
"-146 -138 LINE",
"155 -138 LINE",
"410 1284 LINE",
"109 1284 LINE",
"137 1456 LINE",
"630 1456 LINE",
"319 -310 LINE"
);
}
);
width = 641;
}
);
leftKerningGroup = parens;
unicode = 005D;
},
{
glyphname = braceleft;
layers = (
{
layerId = "D8F064C8-C1A6-4DD6-979F-3446BEDB940F";
paths = (
{
closed = 1;
nodes = (
"253 -312 OFFCURVE",
"43 -34 OFFCURVE",
"110 129 QCURVE SMOOTH",
"197 329 LINE SMOOTH",
"241 436 OFFCURVE",
"127 503 OFFCURVE",
"16 503 QCURVE",
"39 645 LINE",
"151 645 OFFCURVE",
"288 712 OFFCURVE",
"281 819 QCURVE SMOOTH",
"269 1019 LINE SMOOTH",
"256 1182 OFFCURVE",
"565 1460 OFFCURVE",
"804 1460 QCURVE",
"779 1303 LINE",
"621 1303 OFFCURVE",
"453 1138 OFFCURVE",
"462 1014 QCURVE SMOOTH",
"474 814 LINE SMOOTH",
"479 730 OFFCURVE",
"386 598 OFFCURVE",
"287 574 QCURVE",
"377 550 OFFCURVE",
"424 418 OFFCURVE",
"389 334 QCURVE SMOOTH",
"303 134 LINE SMOOTH",
"251 10 OFFCURVE",
"360 -155 OFFCURVE",
"518 -155 QCURVE",
"492 -312 LINE"
);
}
);
width = 689;
}
);
rightKerningGroup = parens;
unicode = 007B;
},
{
glyphname = braceright;
layers = (
{
layerId = "D8F064C8-C1A6-4DD6-979F-3446BEDB940F";
paths = (
{
closed = 1;
nodes = (
"-144 -155 LINE",
"14 -155 OFFCURVE",
"183 10 OFFCURVE",
"173 134 QCURVE SMOOTH",
"162 334 LINE SMOOTH",
"156 418 OFFCURVE",
"249 550 OFFCURVE",
"349 574 QCURVE",
"258 598 OFFCURVE",
"211 730 OFFCURVE",
"246 814 QCURVE SMOOTH",
"332 1014 LINE SMOOTH",
"385 1138 OFFCURVE",
"275 1303 OFFCURVE",
"117 1303 QCURVE",
"143 1460 LINE",
"383 1460 OFFCURVE",
"593 1182 OFFCURVE",
"525 1019 QCURVE SMOOTH",
"439 819 LINE SMOOTH",
"395 712 OFFCURVE",
"508 645 OFFCURVE",
"620 645 QCURVE",
"596 503 LINE",
"485 503 OFFCURVE",
"348 436 OFFCURVE",
"354 329 QCURVE SMOOTH",
"365 129 LINE SMOOTH",
"379 -34 OFFCURVE",
"70 -312 OFFCURVE",
"-170 -312 QCURVE"
);
}
);
width = 689;
}
);
leftKerningGroup = parens;
unicode = 007D;
},
{
glyphname = leftanglebracket;
layers = (
{
layerId = "D8F064C8-C1A6-4DD6-979F-3446BEDB940F";
paths = (
{
closed = 1;
nodes = (
"-16 677 LINE",
"665 1521 LINE",
"793 1434 LINE",
"200 615 LINE",
"792 -218 LINE",
"665 -304 LINE",
"-16 546 LINE"
);
}
);
width = 794;
}
);
rightKerningGroup = parens;
unicode = 27E8;
},
{
glyphname = rightanglebracket;
layers = (
{
layerId = "D8F064C8-C1A6-4DD6-979F-3446BEDB940F";
paths = (
{
closed = 1;
nodes = (
"592 602 LINE",
"0 1435 LINE",
"127 1521 LINE",
"808 671 LINE",
"808 540 LINE",
"127 -304 LINE",
"-1 -217 LINE"
);
}
);
width = 792;
}
);
leftKerningGroup = parens;
unicode = 27E9;
},
{
glyphname = numbersign;
layers = (
{
layerId = "D8F064C8-C1A6-4DD6-979F-3446BEDB940F";
paths = (
{
closed = 1;
nodes = (
"704 1476 LINE",
"854 1476 LINE",
"318 -20 LINE",
"169 -20 LINE"
);
},
{
closed = 1;
nodes = (
"1229 1476 LINE",
"1379 1476 LINE",
"842 -20 LINE",
"694 -20 LINE"
);
},
{
closed = 1;
nodes = (
"15 548 LINE",
"1386 548 LINE",
"1362 396 LINE",
"-10 396 LINE"
);
},
{
closed = 1;
nodes = (
"186 1060 LINE",
"1557 1060 LINE",
"1533 908 LINE",
"162 908 LINE"
);
}
);
width = 1541;
}
);
unicode = 0023;
},
{
glyphname = quotesingle;
layers = (
{
layerId = "D8F064C8-C1A6-4DD6-979F-3446BEDB940F";
paths = (
{
closed = 1;
nodes = (
"202 1312 LINE",
"226 1456 LINE",
"430 1456 LINE",
"406 1312 LINE",
"317 937 LINE",
"165 937 LINE"
);
}
);
width = 398;
}
);
leftKerningGroup = minute;
rightKerningGroup = minute;
unicode = 0027;
},
{
glyphname = quotedbl;
layers = (
{
layerId = "D8F064C8-C1A6-4DD6-979F-3446BEDB940F";
paths = (
{
closed = 1;
nodes = (
"202 1312 LINE",
"226 1456 LINE",
"409 1456 LINE",
"385 1312 LINE",
"307 937 LINE",
"155 937 LINE"
);
},
{
closed = 1;
nodes = (
"579 1312 LINE",
"603 1456 LINE",
"786 1456 LINE",
"762 1312 LINE",
"685 937 LINE",
"531 937 LINE"
);
}
);
width = 754;
}
);
leftKerningGroup = minute;
rightKerningGroup = minute;
unicode = 0022;
},
{
glyphname = quoteleft;
layers = (
{
layerId = "D8F064C8-C1A6-4DD6-979F-3446BEDB940F";
paths = (
{
closed = 1;
nodes = (
"92 1179 LINE SMOOTH",
"92 1294 OFFCURVE",
"183 1486 OFFCURVE",
"265 1556 QCURVE",
"376 1476 LINE",
"327 1410 OFFCURVE",
"283 1272 OFFCURVE",
"282 1179 QCURVE SMOOTH",
"282 1073 LINE",
"92 1073 LINE"
);
}
);
width = 410;
}
);
leftKerningGroup = minute;
rightKerningGroup = minute;
unicode = 2018;
},
{
glyphname = quoteright;
layers = (
{
layerId = "D8F064C8-C1A6-4DD6-979F-3446BEDB940F";
paths = (
{
closed = 1;
nodes = (
"318 1352 LINE SMOOTH",
"318 1237 OFFCURVE",
"227 1045 OFFCURVE",
"145 975 QCURVE",
"34 1055 LINE",
"83 1121 OFFCURVE",
"127 1259 OFFCURVE",
"128 1352 QCURVE SMOOTH",
"128 1458 LINE",
"318 1458 LINE"
);
}
);
width = 410;
}
);
leftKerningGroup = minute;
rightKerningGroup = minute;
unicode = 2019;
},
{
glyphname = quotedblleft;
layers = (
{
layerId = "D8F064C8-C1A6-4DD6-979F-3446BEDB940F";
paths = (
{
closed = 1;
nodes = (
"92 1179 LINE SMOOTH",
"92 1294 OFFCURVE",
"183 1486 OFFCURVE",
"265 1556 QCURVE",
"376 1476 LINE",
"327 1410 OFFCURVE",
"283 1272 OFFCURVE",
"282 1179 QCURVE SMOOTH",
"282 1073 LINE",
"92 1073 LINE"
);
},
{
closed = 1;
nodes = (
"512 1179 LINE SMOOTH",
"512 1294 OFFCURVE",
"603 1486 OFFCURVE",
"685 1556 QCURVE",
"796 1476 LINE",
"747 1410 OFFCURVE",
"703 1272 OFFCURVE",
"702 1179 QCURVE SMOOTH",
"702 1073 LINE",
"512 1073 LINE"
);
}
);
width = 830;
}
);
leftKerningGroup = minute;
rightKerningGroup = minute;
unicode = 201C;
},
{
glyphname = quotedblright;
layers = (
{
layerId = "D8F064C8-C1A6-4DD6-979F-3446BEDB940F";
paths = (
{
closed = 1;
nodes = (
"324 1352 LINE SMOOTH",
"324 1237 OFFCURVE",
"233 1045 OFFCURVE",
"151 975 QCURVE",
"40 1055 LINE",
"89 1121 OFFCURVE",
"133 1259 OFFCURVE",
"134 1352 QCURVE SMOOTH",
"134 1458 LINE",
"324 1458 LINE"
);
},
{
closed = 1;
nodes = (
"744 1352 LINE SMOOTH",
"744 1237 OFFCURVE",
"653 1045 OFFCURVE",
"571 975 QCURVE",
"460 1055 LINE",
"509 1121 OFFCURVE",
"553 1259 OFFCURVE",
"554 1352 QCURVE SMOOTH",
"554 1458 LINE",
"744 1458 LINE"
);
}
);
width = 830;
}
);
leftKerningGroup = minute;
rightKerningGroup = minute;
unicode = 201D;
},
{
glyphname = quotesinglbase;
layers = (
{
layerId = "D8F064C8-C1A6-4DD6-979F-3446BEDB940F";
paths = (
{
closed = 1;
nodes = (
"324 114 LINE SMOOTH",
"324 -1 OFFCURVE",
"233 -193 OFFCURVE",
"151 -263 QCURVE",
"40 -183 LINE",
"89 -117 OFFCURVE",
"133 21 OFFCURVE",
"134 114 QCURVE SMOOTH",
"134 220 LINE",
"324 220 LINE"
);
}
);
width = 416;
}
);
leftKerningGroup = comma;
rightKerningGroup = comma;
unicode = 201A;
},
{
glyphname = quotedblbase;
layers = (
{
layerId = "D8F064C8-C1A6-4DD6-979F-3446BEDB940F";
paths = (
{
closed = 1;
nodes = (
"324 114 LINE SMOOTH",
"324 -1 OFFCURVE",
"233 -193 OFFCURVE",
"151 -263 QCURVE",
"40 -183 LINE",
"89 -117 OFFCURVE",
"133 21 OFFCURVE",
"134 114 QCURVE SMOOTH",
"134 220 LINE",
"324 220 LINE"
);
},
{
closed = 1;
nodes = (
"744 114 LINE SMOOTH",
"744 -1 OFFCURVE",
"653 -193 OFFCURVE",
"571 -263 QCURVE",
"460 -183 LINE",
"509 -117 OFFCURVE",
"553 21 OFFCURVE",
"554 114 QCURVE SMOOTH",
"554 220 LINE",
"744 220 LINE"
);
}
);
width = 836;
}
);
leftKerningGroup = comma;
rightKerningGroup = comma;
unicode = 201E;
},
{
glyphname = guilsinglleft;
layers = (
{
guideLines = (
{
position = "{0, 901}";
},
{
position = "{0, 555}";
}
);
layerId = "D8F064C8-C1A6-4DD6-979F-3446BEDB940F";
paths = (
{
closed = 1;
nodes = (
"119 580 LINE",
"481 1030 LINE",
"679 1030 LINE",
"363 543 LINE",
"679 57 LINE",
"481 57 LINE",
"119 508 LINE"
);
}
);
width = 782;
}
);
leftKerningGroup = guillemotleft;
rightKerningGroup = guillemotleft;
unicode = 2039;
userData = {
com.typemytype.robofont.guideline.magnetic.Amp5Ormvx4 = 5;
com.typemytype.robofont.guideline.magnetic.JDX5vz3jKp = 5;
};
},
{
glyphname = guilsinglright;
layers = (
{
guideLines = (
{
position = "{0, 901}";
},
{
position = "{0, 555}";
}
);
layerId = "D8F064C8-C1A6-4DD6-979F-3446BEDB940F";
paths = (
{
closed = 1;
nodes = (
"420 544 LINE",
"103 1030 LINE",
"301 1030 LINE",
"663 579 LINE",
"663 507 LINE",
"301 57 LINE",
"103 57 LINE"
);
}
);
width = 782;
}
);
leftKerningGroup = guillemotright;
rightKerningGroup = guillemotright;
unicode = 203A;
userData = {
com.typemytype.robofont.guideline.magnetic.Amp5Ormvx4 = 5;
com.typemytype.robofont.guideline.magnetic.JDX5vz3jKp = 5;
};
},
{
glyphname = guillemotleft;
layers = (
{
guideLines = (
{
position = "{0, 901}";
},
{
position = "{0, 555}";
}
);
layerId = "D8F064C8-C1A6-4DD6-979F-3446BEDB940F";
paths = (
{
closed = 1;
nodes = (
"119 580 LINE",
"481 1030 LINE",
"679 1030 LINE",
"363 543 LINE",
"679 57 LINE",
"481 57 LINE",
"119 508 LINE"
);
},
{
closed = 1;
nodes = (
"659 580 LINE",
"1021 1030 LINE",
"1219 1030 LINE",
"902 543 LINE",
"1219 57 LINE",
"1021 57 LINE",
"659 508 LINE"
);
}
);
width = 1322;
}
);
leftKerningGroup = guillemotleft;
rightKerningGroup = guillemotleft;
unicode = 00AB;
userData = {
com.typemytype.robofont.guideline.magnetic.MVJpdoVRVd = 5;
com.typemytype.robofont.guideline.magnetic.ZftBQarVKw = 5;
};
},
{
glyphname = guillemotright;
layers = (
{
guideLines = (
{
position = "{0, 98}";
},
{
position = "{0, 443}";
}
);
layerId = "D8F064C8-C1A6-4DD6-979F-3446BEDB940F";
paths = (
{
closed = 1;
nodes = (
"420 544 LINE",
"103 1030 LINE",
"301 1030 LINE",
"663 579 LINE",
"663 507 LINE",
"301 57 LINE",
"103 57 LINE"
);
},
{
closed = 1;
nodes = (
"959 544 LINE",
"643 1030 LINE",
"841 1030 LINE",
"1203 579 LINE",
"1203 507 LINE",
"841 57 LINE",
"643 57 LINE"
);
}
);
width = 1322;
}
);
leftKerningGroup = guillemotright;
rightKerningGroup = guillemotright;
unicode = 00BB;
userData = {
com.typemytype.robofont.guideline.magnetic.G9bQni2n1K = 5;
com.typemytype.robofont.guideline.magnetic.MTEldNnfdj = 5;
};
},
{
glyphname = asterisk;
layers = (
{
layerId = "D8F064C8-C1A6-4DD6-979F-3446BEDB940F";
paths = (
{
closed = 1;
nodes = (
"208 1233 LINE",
"533 1073 LINE",
"566 1476 LINE",
"762 1476 LINE",
"655 1073 LINE",
"1053 1233 LINE",
"1082 1035 LINE",
"683 945 LINE",
"890 642 LINE",
"711 519 LINE",
"571 868 LINE",
"309 519 LINE",
"170 642 LINE",
"482 945 LINE",
"115 1035 LINE"
);
}
);
width = 1080;
}
);
unicode = 002A;
},
{
glyphname = dagger;
layers = (
{
layerId = "D8F064C8-C1A6-4DD6-979F-3446BEDB940F";
paths = (
{
closed = 1;
nodes = (
"503 14 LINE",
"526 763 LINE",
"526 869 LINE",
"130 869 LINE",
"130 1044 LINE",
"522 1044 LINE",
"507 1533 LINE",
"723 1533 LINE",
"708 1044 LINE",
"1100 1044 LINE",
"1100 869 LINE",
"704 869 LINE",
"704 763 LINE",
"727 14 LINE",
"723 -272 LINE",
"640 -415 OFFCURVE",
"591 -416 OFFCURVE",
"507 -272 QCURVE"
);
}
);
width = 1230;
}
);
unicode = 2020;
},
{
glyphname = daggerdbl;
layers = (
{
layerId = "D8F064C8-C1A6-4DD6-979F-3446BEDB940F";
paths = (
{
closed = 1;
nodes = (
"130 213 LINE",
"544 213 LINE",
"521 547 LINE",
"538 872 LINE",
"130 872 LINE",
"130 1041 LINE",
"523 1041 LINE",
"519 1534 LINE",
"712 1534 LINE",
"709 1041 LINE",
"1102 1041 LINE",
"1102 872 LINE",
"693 872 LINE",
"710 547 LINE",
"687 213 LINE",
"1102 213 LINE",
"1102 44 LINE",
"716 44 LINE",
"720 -452 LINE",
"512 -452 LINE",
"516 44 LINE",
"130 44 LINE"
);
}
);
width = 1232;
}
);
unicode = 2021;
},
{
glyphname = period;
layers = (
{
layerId = "D8F064C8-C1A6-4DD6-979F-3446BEDB940F";
paths = (
{
closed = 1;
nodes = (
"48 168 OFFCURVE",
"121 246 OFFCURVE",
"186 246 QCURVE SMOOTH",
"251 246 OFFCURVE",
"315 167 OFFCURVE",
"313 111 QCURVE SMOOTH",
"310 56 OFFCURVE",
"237 -22 OFFCURVE",
"171 -22 QCURVE SMOOTH",
"107 -22 OFFCURVE",
"43 57 OFFCURVE",
"45 113 QCURVE SMOOTH"
);
}
);
width = 578;
}
);
leftKerningGroup = comma;
rightKerningGroup = comma;
unicode = 002E;
},
{
glyphname = comma;
layers = (
{
layerId = "D8F064C8-C1A6-4DD6-979F-3446BEDB940F";
paths = (
{
closed = 1;
nodes = (
"-3 -156 OFFCURVE",
"72 -18 OFFCURVE",
"88 75 QCURVE SMOOTH",
"114 236 LINE",
"299 236 LINE",
"273 75 LINE SMOOTH",
"253 -40 OFFCURVE",
"125 -232 OFFCURVE",
"33 -302 QCURVE",
"-62 -222 LINE"
);
}
);
width = 573;
}
);
leftKerningGroup = comma;
rightKerningGroup = comma;
unicode = 002C;
},
{
glyphname = colon;
layers = (
{
layerId = "D8F064C8-C1A6-4DD6-979F-3446BEDB940F";
paths = (
{
closed = 1;
nodes = (
"60 159 OFFCURVE",
"127 233 OFFCURVE",
"188 233 QCURVE SMOOTH",
"250 233 OFFCURVE",
"315 158 OFFCURVE",
"314 105 QCURVE SMOOTH",
"314 53 OFFCURVE",
"247 -22 OFFCURVE",
"186 -22 QCURVE SMOOTH",
"124 -22 OFFCURVE",
"59 54 OFFCURVE",
"60 106 QCURVE SMOOTH"
);
},
{
closed = 1;
nodes = (
"211 1032 OFFCURVE",
"278 1107 OFFCURVE",
"339 1107 QCURVE SMOOTH",
"401 1107 OFFCURVE",
"465 1031 OFFCURVE",
"465 978 QCURVE SMOOTH",
"464 927 OFFCURVE",
"398 852 OFFCURVE",
"336 852 QCURVE SMOOTH",
"275 852 OFFCURVE",
"209 928 OFFCURVE",
"210 980 QCURVE SMOOTH"
);
}
);
width = 596;
}
);
leftKerningGroup = colon;
rightKerningGroup = colon;
unicode = 003A;
},
{
glyphname = semicolon;
layers = (
{
layerId = "D8F064C8-C1A6-4DD6-979F-3446BEDB940F";
paths = (
{
closed = 1;
nodes = (
"10 -156 OFFCURVE",
"85 -18 OFFCURVE",
"101 75 QCURVE SMOOTH",
"127 233 LINE",
"310 233 LINE",
"283 75 LINE SMOOTH",
"264 -40 OFFCURVE",
"136 -232 OFFCURVE",
"46 -302 QCURVE",
"-49 -222 LINE"
);
},
{
closed = 1;
nodes = (
"213 1032 OFFCURVE",
"284 1107 OFFCURVE",
"345 1107 QCURVE SMOOTH",
"407 1107 OFFCURVE",
"467 1031 OFFCURVE",
"465 978 QCURVE SMOOTH",
"462 927 OFFCURVE",
"392 852 OFFCURVE",
"330 852 QCURVE SMOOTH",
"269 852 OFFCURVE",
"207 928 OFFCURVE",
"210 980 QCURVE SMOOTH"
);
}
);
width = 596;
}
);
leftKerningGroup = colon;
rightKerningGroup = colon;
unicode = 003B;
},
{
glyphname = exclam;
layers = (
{
layerId = "D8F064C8-C1A6-4DD6-979F-3446BEDB940F";
paths = (
{
closed = 1;
nodes = (
"65 158 OFFCURVE",
"139 233 OFFCURVE",
"200 233 QCURVE SMOOTH",
"261 233 OFFCURVE",
"320 157 OFFCURVE",
"315 105 QCURVE SMOOTH",
"310 52 OFFCURVE",
"237 -22 OFFCURVE",
"176 -22 QCURVE SMOOTH",
"115 -22 OFFCURVE",
"56 53 OFFCURVE",
"61 106 QCURVE SMOOTH"
);
},
{
closed = 1;
nodes = (
"335 1456 LINE",
"538 1456 LINE",
"337 421 LINE",
"167 421 LINE"
);
}
);
width = 616;
}
);
unicode = 0021;
},
{
glyphname = exclamdown;
layers = (
{
layerId = "D8F064C8-C1A6-4DD6-979F-3446BEDB940F";
paths = (
{
closed = 1;
nodes = (
"434 1004 OFFCURVE",
"370 934 OFFCURVE",
"310 934 QCURVE SMOOTH",
"250 934 OFFCURVE",
"186 1004 OFFCURVE",
"186 1053 QCURVE SMOOTH",
"186 1102 OFFCURVE",
"250 1172 OFFCURVE",
"310 1172 QCURVE SMOOTH",
"370 1172 OFFCURVE",
"434 1102 OFFCURVE",
"434 1053 QCURVE SMOOTH"
);
},
{
closed = 1;
nodes = (
"407 -306 LINE",
"213 -306 LINE",
"228 740 LINE",
"392 740 LINE"
);
}
);
width = 620;
}
);
unicode = 00A1;
},
{
glyphname = question;
layers = (
{
layerId = "D8F064C8-C1A6-4DD6-979F-3446BEDB940F";
paths = (
{
closed = 1;
nodes = (
"208 158 OFFCURVE",
"280 233 OFFCURVE",
"341 233 QCURVE SMOOTH",
"402 233 OFFCURVE",
"463 157 OFFCURVE",
"460 105 QCURVE SMOOTH",
"457 53 OFFCURVE",
"387 -22 OFFCURVE",
"326 -22 QCURVE SMOOTH",
"265 -22 OFFCURVE",
"203 54 OFFCURVE",
"206 107 QCURVE SMOOTH"
);
},
{
closed = 1;
nodes = (
"112 1108 LINE SMOOTH",
"141 1274 OFFCURVE",
"405 1476 OFFCURVE",
"603 1476 QCURVE SMOOTH",
"801 1476 OFFCURVE",
"989 1264 OFFCURVE",
"959 1094 QCURVE SMOOTH",
"935 961 OFFCURVE",
"752 757 OFFCURVE",
"665 693 QCURVE SMOOTH",
"561 616 OFFCURVE",
"491 494 OFFCURVE",
"478 425 QCURVE SMOOTH",
"476 415 LINE",
"282 415 LINE",
"284 425 LINE SMOOTH",
"306 550 OFFCURVE",
"402 698 OFFCURVE",
"517 786 QCURVE SMOOTH",
"617 866 OFFCURVE",
"747 997 OFFCURVE",
"764 1094 QCURVE SMOOTH",
"782 1190 OFFCURVE",
"689 1302 OFFCURVE",
"575 1302 QCURVE SMOOTH",
"460 1302 OFFCURVE",
"322 1199 OFFCURVE",
"305 1108 QCURVE SMOOTH",
"302 1086 LINE",
"108 1086 LINE"
);
}
);
width = 967;
}
);
unicode = 003F;
},
{
glyphname = questiondown;
layers = (
{
guideLines = (
{
position = "{0, -181}";
},
{
position = "{0, 921}";
}
);
layerId = "D8F064C8-C1A6-4DD6-979F-3446BEDB940F";
paths = (
{
closed = 1;
nodes = (
"670 990 OFFCURVE",
"602 915 OFFCURVE",
"539 915 QCURVE SMOOTH",
"476 915 OFFCURVE",
"408 990 OFFCURVE",
"408 1042 QCURVE SMOOTH",
"408 1095 OFFCURVE",
"476 1170 OFFCURVE",
"539 1170 QCURVE SMOOTH",
"602 1170 OFFCURVE",
"670 1095 OFFCURVE",
"670 1042 QCURVE SMOOTH"
);
},
{
closed = 1;
nodes = (
"951 40 LINE SMOOTH",
"951 -126 OFFCURVE",
"715 -328 OFFCURVE",
"511 -328 QCURVE SMOOTH",
"307 -328 OFFCURVE",
"77 -116 OFFCURVE",
"77 54 QCURVE SMOOTH",
"77 187 OFFCURVE",
"228 391 OFFCURVE",
"306 455 QCURVE SMOOTH",
"399 532 OFFCURVE",
"448 654 OFFCURVE",
"448 723 QCURVE SMOOTH",
"448 733 LINE",
"648 733 LINE",
"648 723 LINE SMOOTH",
"648 598 OFFCURVE",
"575 450 OFFCURVE",
"474 362 QCURVE SMOOTH",
"386 282 OFFCURVE",
"277 151 OFFCURVE",
"277 54 QCURVE SMOOTH",
"277 -42 OFFCURVE",
"393 -154 OFFCURVE",
"511 -154 QCURVE SMOOTH",
"629 -154 OFFCURVE",
"752 -51 OFFCURVE",
"752 40 QCURVE SMOOTH",
"752 62 LINE",
"951 62 LINE"
);
}
);
width = 996;
}
);
unicode = 00BF;
userData = {
com.typemytype.robofont.guideline.magnetic.5ZPZZL8Rim = 5;
com.typemytype.robofont.guideline.magnetic.apukwP5ffL = 5;
};
},
{
glyphname = slash;
layers = (
{
layerId = "D8F064C8-C1A6-4DD6-979F-3446BEDB940F";
paths = (
{
closed = 1;
nodes = (
"651 1456 LINE",
"831 1456 LINE",
"-67 -125 LINE",
"-247 -125 LINE"
);
}
);
width = 605;
}
);
unicode = 002F;
},
{
glyphname = backslash;
layers = (
{
layerId = "D8F064C8-C1A6-4DD6-979F-3446BEDB940F";
paths = (
{
closed = 1;
nodes = (
"211 1456 LINE",
"552 -125 LINE",
"373 -125 LINE",
"32 1456 LINE"
);
}
);
width = 605;
}
);
unicode = 005C;
},
{
glyphname = fraction;
layers = (
{
guideLines = (
{
position = "{0, 901}";
},
{
position = "{0, 555}";
}
);
layerId = "D8F064C8-C1A6-4DD6-979F-3446BEDB940F";
paths = (
{
closed = 1;
nodes = (
"-355 -43 LINE",
"-475 51 LINE",
"698 1513 LINE",
"816 1417 LINE"
);
}
);
width = 342;
}
);
unicode = 2044;
userData = {
com.typemytype.robofont.guideline.magnetic.0lx51aIE0d = 5;
com.typemytype.robofont.guideline.magnetic.tcCoNUQTdD = 5;
};
},
{
glyphname = bar;
layers = (
{
layerId = "D8F064C8-C1A6-4DD6-979F-3446BEDB940F";
paths = (
{
closed = 1;
nodes = (
"347 1456 LINE",
"522 1456 LINE",
"178 -416 LINE",
"2 -416 LINE"
);
}
);
width = 583;
}
);
unicode = 007C;
},
{
glyphname = brokenbar;
layers = (
{
guideLines = (
{
position = "{0, 901}";
},
{
position = "{0, 555}";
}
);
layerId = "D8F064C8-C1A6-4DD6-979F-3446BEDB940F";
paths = (
{
closed = 1;
nodes = (
"205 -416 LINE",
"205 359 LINE",
"407 359 LINE",
"407 -416 LINE"
);
},
{
closed = 1;
nodes = (
"407 761 LINE",
"205 761 LINE",
"205 1536 LINE",
"407 1536 LINE"
);
}
);
width = 612;
}
);
unicode = 00A6;
userData = {
com.typemytype.robofont.guideline.magnetic.Z0RZpP7MTi = 5;
com.typemytype.robofont.guideline.magnetic.jmguX8NWKI = 5;
};
},
{
glyphname = at;
layers = (
{
layerId = "D8F064C8-C1A6-4DD6-979F-3446BEDB940F";
paths = (
{
closed = 1;
nodes = (
"620 680 OFFCURVE",
"990 1052 OFFCURVE",
"1185 1052 QCURVE SMOOTH",
"1276 1052 OFFCURVE",
"1415 985 OFFCURVE",
"1459 946 QCURVE",
"1559 946 LINE",
"1333 350 LINE SMOOTH",
"1287 234 OFFCURVE",
"1355 144 OFFCURVE",
"1436 144 QCURVE SMOOTH",
"1581 144 OFFCURVE",
"1813 423 OFFCURVE",
"1853 650 QCURVE SMOOTH",
"1901 916 OFFCURVE",
"1585 1320 OFFCURVE",
"1235 1320 QCURVE SMOOTH",
"884 1320 OFFCURVE",
"320 816 OFFCURVE",
"256 460 QCURVE SMOOTH",
"193 105 OFFCURVE",
"538 -280 OFFCURVE",
"848 -280 QCURVE SMOOTH",
"989 -280 OFFCURVE",
"1194 -226 OFFCURVE",
"1268 -190 QCURVE",
"1240 -356 LINE",
"1162 -400 OFFCURVE",
"961 -446 OFFCURVE",
"820 -446 QCURVE SMOOTH",
"448 -446 OFFCURVE",
"-10 40 OFFCURVE",
"64 460 QCURVE SMOOTH",
"138 880 OFFCURVE",
"849 1486 OFFCURVE",
"1262 1486 QCURVE SMOOTH",
"1675 1486 OFFCURVE",
"2102 1000 OFFCURVE",
"2041 650 QCURVE SMOOTH",
"1990 360 OFFCURVE",
"1638 0 OFFCURVE",
"1429 0 QCURVE SMOOTH",
"1314 0 OFFCURVE",
"1158 100 OFFCURVE",
"1132 180 QCURVE",
"1066 99 OFFCURVE",
"901 0 OFFCURVE",
"817 0 QCURVE SMOOTH",
"673 0 OFFCURVE",
"539 220 OFFCURVE",
"571 400 QCURVE SMOOTH"
);
},
{
closed = 1;
nodes = (
"743 284 OFFCURVE",
"811 164 OFFCURVE",
"895 164 QCURVE SMOOTH",
"969 164 OFFCURVE",
"1107 267 OFFCURVE",
"1157 396 QCURVE SMOOTH",
"1341 860 LINE",
"1312 881 OFFCURVE",
"1232 902 OFFCURVE",
"1189 902 QCURVE SMOOTH",
"1044 902 OFFCURVE",
"803 616 OFFCURVE",
"764 400 QCURVE SMOOTH"
);
}
);
width = 2165;
}
);
unicode = 0040;
},
{
glyphname = ampersand;
layers = (
{
layerId = "D8F064C8-C1A6-4DD6-979F-3446BEDB940F";
paths = (
{
closed = 1;
nodes = (
"45 541 OFFCURVE",
"300 762 OFFCURVE",
"482 859 QCURVE SMOOTH",
"671 961 LINE SMOOTH",
"761 1009 OFFCURVE",
"841 1104 OFFCURVE",
"852 1163 QCURVE SMOOTH",
"864 1231 OFFCURVE",
"786 1321 OFFCURVE",
"699 1321 QCURVE SMOOTH",
"611 1321 OFFCURVE",
"488 1221 OFFCURVE",
"476 1153 QCURVE SMOOTH",
"463 1084 OFFCURVE",
"524 957 OFFCURVE",
"602 841 QCURVE SMOOTH",
"1165 0 LINE",
"943 0 LINE",
"450 733 LINE SMOOTH",
"362 864 OFFCURVE",
"269 1053 OFFCURVE",
"286 1153 QCURVE SMOOTH",
"311 1297 OFFCURVE",
"563 1486 OFFCURVE",
"726 1486 QCURVE SMOOTH",
"887 1486 OFFCURVE",
"1058 1308 OFFCURVE",
"1035 1173 QCURVE SMOOTH",
"1014 1052 OFFCURVE",
"867 892 OFFCURVE",
"758 832 QCURVE SMOOTH",
"567 729 LINE SMOOTH",
"402 640 OFFCURVE",
"228 485 OFFCURVE",
"209 382 QCURVE SMOOTH",
"190 277 OFFCURVE",
"326 145 OFFCURVE",
"459 145 QCURVE SMOOTH",
"644 145 OFFCURVE",
"963 426 OFFCURVE",
"1008 674 QCURVE",
"1189 674 LINE",
"1137 380 OFFCURVE",
"701 -20 OFFCURVE",
"432 -20 QCURVE SMOOTH",
"205 -20 OFFCURVE",
"-14 205 OFFCURVE",
"17 380 QCURVE SMOOTH"
);
}
);
width = 1317;
}
);
unicode = 0026;
},
{
glyphname = section;
layers = (
{
guideLines = (
{
position = "{0, 1658}";
},
{
position = "{0, 578}";
}
);
layerId = "D8F064C8-C1A6-4DD6-979F-3446BEDB940F";
paths = (
{
closed = 1;
nodes = (
"802 283 LINE",
"932 283 OFFCURVE",
"1113 412 OFFCURVE",
"1113 503 QCURVE",
"1113 599 OFFCURVE",
"916 720 OFFCURVE",
"702 785 QCURVE SMOOTH",
"472 847 OFFCURVE",
"216 1008 OFFCURVE",
"216 1196 QCURVE SMOOTH",
"216 1378 OFFCURVE",
"482 1571 OFFCURVE",
"722 1572 QCURVE SMOOTH",
"950 1573 OFFCURVE",
"1215 1367 OFFCURVE",
"1214 1165 QCURVE",
"1018 1165 LINE",
"1019 1269 OFFCURVE",
"864 1412 OFFCURVE",
"722 1412 QCURVE SMOOTH",
"556 1412 OFFCURVE",
"411 1310 OFFCURVE",
"411 1207 QCURVE SMOOTH",
"411 1112 OFFCURVE",
"557 1021 OFFCURVE",
"793 954 QCURVE SMOOTH",
"1011 894 OFFCURVE",
"1328 699 OFFCURVE",
"1328 518 QCURVE SMOOTH",
"1328 349 OFFCURVE",
"1014 159 OFFCURVE",
"802 159 QCURVE"
);
},
{
closed = 1;
nodes = (
"618 807 LINE",
"487 807 OFFCURVE",
"340 696 OFFCURVE",
"340 611 QCURVE SMOOTH",
"340 528 OFFCURVE",
"514 423 OFFCURVE",
"736 351 QCURVE SMOOTH",
"945 283 OFFCURVE",
"1224 90 OFFCURVE",
"1224 -97 QCURVE SMOOTH",
"1224 -290 OFFCURVE",
"923 -509 OFFCURVE",
"693 -509 QCURVE SMOOTH",
"462 -509 OFFCURVE",
"139 -295 OFFCURVE",
"139 -54 QCURVE",
"333 -52 LINE",
"333 -218 OFFCURVE",
"567 -349 OFFCURVE",
"693 -349 QCURVE SMOOTH",
"831 -349 OFFCURVE",
"1030 -234 OFFCURVE",
"1030 -120 QCURVE SMOOTH",
"1030 -15 OFFCURVE",
"862 118 OFFCURVE",
"623 188 QCURVE SMOOTH",
"404 252 OFFCURVE",
"125 458 OFFCURVE",
"125 621 QCURVE SMOOTH",
"125 778 OFFCURVE",
"428 951 OFFCURVE",
"619 951 QCURVE"
);
}
);
width = 1453;
}
);
unicode = 00A7;
userData = {
com.typemytype.robofont.guideline.magnetic.9Hxjf2sdFw = 5;
com.typemytype.robofont.guideline.magnetic.QzZ5gIiCyn = 5;
};
},
{
glyphname = paragraph;
layers = (
{
guideLines = (
{
position = "{0, 901}";
},
{
position = "{0, 555}";
}
);
layerId = "D8F064C8-C1A6-4DD6-979F-3446BEDB940F";
paths = (
{
closed = 1;
nodes = (
"614 -198 LINE",
"614 671 LINE",
"519 671 LINE SMOOTH",
"307 671 OFFCURVE",
"80 894 OFFCURVE",
"80 1064 QCURVE SMOOTH",
"80 1231 OFFCURVE",
"307 1456 OFFCURVE",
"519 1456 QCURVE SMOOTH",
"816 1456 LINE",
"816 -198 LINE"
);
},
{
closed = 1;
nodes = (
"1173 1459 LINE",
"1173 -198 LINE",
"971 -198 LINE",
"971 1459 LINE"
);
}
);
width = 1323;
}
);
unicode = 00B6;
userData = {
com.typemytype.robofont.guideline.magnetic.27539Lsr1A = 5;
com.typemytype.robofont.guideline.magnetic.e34wUdCmXR = 5;
};
},
{
glyphname = numero;
layers = (
{
layerId = "D8F064C8-C1A6-4DD6-979F-3446BEDB940F";
paths = (
{
closed = 1;
nodes = (
"170 1456 LINE",
"385 1456 LINE",
"1081 434 LINE SMOOTH",
"1101 404 OFFCURVE",
"1141 329 OFFCURVE",
"1153 304 QCURVE",
"1163 304 LINE",
"1161 334 OFFCURVE",
"1157 439 OFFCURVE",
"1157 469 QCURVE SMOOTH",
"1157 1456 LINE",
"1353 1456 LINE",
"1353 0 LINE",
"1137 0 LINE",
"437 1029 LINE SMOOTH",
"416 1059 OFFCURVE",
"381 1119 OFFCURVE",
"369 1144 QCURVE",
"359 1144 LINE",
"361 1114 OFFCURVE",
"365 1039 OFFCURVE",
"365 1009 QCURVE SMOOTH",
"365 0 LINE",
"170 0 LINE"
);
},
{
closed = 1;
nodes = (
"1483 1002 LINE SMOOTH",
"1483 1210 OFFCURVE",
"1732 1473 OFFCURVE",
"1935 1473 QCURVE SMOOTH",
"2138 1473 OFFCURVE",
"2388 1210 OFFCURVE",
"2388 1002 QCURVE SMOOTH",
"2388 974 LINE SMOOTH",
"2388 767 OFFCURVE",
"2151 505 OFFCURVE",
"1935 505 QCURVE SMOOTH",
"1719 505 OFFCURVE",
"1483 767 OFFCURVE",
"1483 974 QCURVE SMOOTH"
);
},
{
closed = 1;
nodes = (
"1686 973 LINE SMOOTH",
"1686 842 OFFCURVE",
"1810 671 OFFCURVE",
"1935 671 QCURVE SMOOTH",
"2060 671 OFFCURVE",
"2185 842 OFFCURVE",
"2185 973 QCURVE SMOOTH",
"2185 999 LINE SMOOTH",
"2185 1131 OFFCURVE",
"2059 1302 OFFCURVE",
"1935 1302 QCURVE SMOOTH",
"1811 1302 OFFCURVE",
"1686 1131 OFFCURVE",
"1686 999 QCURVE SMOOTH"
);
},
{
closed = 1;
nodes = (
"1524 375 LINE",
"2346 375 LINE",
"2346 187 LINE",
"1524 187 LINE"
);
}
);
width = 2468;
}
);
unicode = 2116;
},
{
glyphname = periodcentered;
layers = (
{
layerId = "D8F064C8-C1A6-4DD6-979F-3446BEDB940F";
paths = (
{
closed = 1;
nodes = (
"160 806 OFFCURVE",
"231 884 OFFCURVE",
"297 884 QCURVE SMOOTH",
"364 884 OFFCURVE",
"435 806 OFFCURVE",
"435 750 QCURVE SMOOTH",
"435 694 OFFCURVE",
"364 616 OFFCURVE",
"297 616 QCURVE SMOOTH",
"231 616 OFFCURVE",
"160 694 OFFCURVE",
"160 750 QCURVE SMOOTH"
);
}
);
width = 595;
}
);
unicode = 00B7;
},
{
glyphname = bullet;
layers = (
{
layerId = "D8F064C8-C1A6-4DD6-979F-3446BEDB940F";
paths = (
{
closed = 1;
nodes = (
"104 870 OFFCURVE",
"284 1061 OFFCURVE",
"424 1061 QCURVE SMOOTH",
"563 1061 OFFCURVE",
"743 870 OFFCURVE",
"743 741 QCURVE SMOOTH",
"743 615 OFFCURVE",
"563 424 OFFCURVE",
"424 424 QCURVE SMOOTH",
"284 424 OFFCURVE",
"104 615 OFFCURVE",
"104 741 QCURVE SMOOTH"
);
}
);
width = 847;
}
);
unicode = 2022;
},
{
glyphname = minute;
layers = (
{
layerId = "D8F064C8-C1A6-4DD6-979F-3446BEDB940F";
paths = (
{
closed = 1;
nodes = (
"423 1559 LINE",
"634 1442 LINE",
"243 820 LINE",
"100 908 LINE"
);
}
);
width = 714;
}
);
leftKerningGroup = minute;
rightKerningGroup = minute;
unicode = 2032;
},
{
glyphname = second;
layers = (
{
layerId = "D8F064C8-C1A6-4DD6-979F-3446BEDB940F";
paths = (
{
closed = 1;
nodes = (
"423 1559 LINE",
"634 1442 LINE",
"243 820 LINE",
"100 908 LINE"
);
},
{
closed = 1;
nodes = (
"923 1559 LINE",
"1134 1442 LINE",
"743 820 LINE",
"600 908 LINE"
);
}
);
width = 1214;
}
);
leftKerningGroup = minute;
rightKerningGroup = minute;
unicode = 2033;
},
{
glyphname = plus;
layers = (
{
layerId = "D8F064C8-C1A6-4DD6-979F-3446BEDB940F";
paths = (
{
closed = 1;
nodes = (
"72 763 LINE",
"1077 763 LINE",
"1048 585 LINE",
"43 585 LINE"
);
},
{
closed = 1;
nodes = (
"553 1206 LINE",
"739 1206 LINE",
"568 142 LINE",
"381 142 LINE"
);
}
);
width = 1139;
}
);
unicode = 002B;
},
{
glyphname = minus;
layers = (
{
layerId = "D8F064C8-C1A6-4DD6-979F-3446BEDB940F";
paths = (
{
closed = 1;
nodes = (
"57 768 LINE",
"967 768 LINE",
"967 588 LINE",
"57 588 LINE"
);
}
);
width = 1024;
}
);
unicode = 2212;
},
{
glyphname = plusminus;
layers = (
{
layerId = "D8F064C8-C1A6-4DD6-979F-3446BEDB940F";
paths = (
{
closed = 1;
nodes = (
"69 763 LINE",
"1101 763 LINE",
"1101 585 LINE",
"69 585 LINE"
);
},
{
closed = 1;
nodes = (
"489 1206 LINE",
"681 1206 LINE",
"681 142 LINE",
"489 142 LINE"
);
},
{
closed = 1;
nodes = (
"130 171 LINE",
"1040 171 LINE",
"1040 1 LINE",
"130 1 LINE"
);
}
);
width = 1170;
}
);
unicode = 00B1;
},
{
glyphname = divide;
layers = (
{
layerId = "D8F064C8-C1A6-4DD6-979F-3446BEDB940F";
paths = (
{
closed = 1;
nodes = (
"430 1138 OFFCURVE",
"502 1212 OFFCURVE",
"572 1212 QCURVE SMOOTH",
"641 1212 OFFCURVE",
"715 1138 OFFCURVE",
"715 1082 QCURVE SMOOTH",
"715 1028 OFFCURVE",
"641 955 OFFCURVE",
"572 955 QCURVE SMOOTH",
"502 955 OFFCURVE",
"430 1028 OFFCURVE",
"430 1082 QCURVE SMOOTH"
);
},
{
closed = 1;
nodes = (
"430 317 OFFCURVE",
"502 392 OFFCURVE",
"572 392 QCURVE SMOOTH",
"641 392 OFFCURVE",
"715 317 OFFCURVE",
"715 262 QCURVE SMOOTH",
"715 208 OFFCURVE",
"641 134 OFFCURVE",
"572 134 QCURVE SMOOTH",
"502 134 OFFCURVE",
"430 208 OFFCURVE",
"430 262 QCURVE SMOOTH"
);
},
{
closed = 1;
nodes = (
"69 763 LINE",
"1101 763 LINE",
"1101 585 LINE",
"69 585 LINE"
);
}
);
width = 1170;
}
);
unicode = 00F7;
},
{
glyphname = multiply;
layers = (
{
layerId = "D8F064C8-C1A6-4DD6-979F-3446BEDB940F";
paths = (
{
closed = 1;
nodes = (
"140 319 LINE",
"943 1140 LINE",
"1061 1017 LINE",
"258 197 LINE"
);
},
{
closed = 1;
nodes = (
"143 1005 LINE",
"273 1140 LINE",
"1064 331 LINE",
"934 197 LINE"
);
}
);
width = 1204;
}
);
unicode = 00D7;
},
{
glyphname = equal;
layers = (
{
layerId = "D8F064C8-C1A6-4DD6-979F-3446BEDB940F";
paths = (
{
closed = 1;
nodes = (
"118 558 LINE",
"993 558 LINE",
"963 382 LINE",
"88 382 LINE"
);
},
{
closed = 1;
nodes = (
"188 966 LINE",
"1063 966 LINE",
"1033 790 LINE",
"158 790 LINE"
);
}
);
width = 1174;
}
);
unicode = 003D;
},
{
glyphname = less;
layers = (
{
layerId = "D8F064C8-C1A6-4DD6-979F-3446BEDB940F";
paths = (
{
closed = 1;
nodes = (
"144 594 LINE",
"169 754 LINE",
"1068 1137 LINE",
"1035 919 LINE",
"386 665 LINE",
"946 411 LINE",
"909 211 LINE"
);
}
);
width = 1172;
}
);
unicode = 003C;
},
{
glyphname = greater;
layers = (
{
layerId = "D8F064C8-C1A6-4DD6-979F-3446BEDB940F";
paths = (
{
closed = 1;
nodes = (
"120 425 LINE",
"769 679 LINE",
"209 933 LINE",
"244 1137 LINE",
"1009 754 LINE",
"984 594 LINE",
"85 211 LINE"
);
}
);
width = 1173;
}
);
unicode = 003E;
},
{
glyphname = lessequal;
layers = (
{
layerId = "D8F064C8-C1A6-4DD6-979F-3446BEDB940F";
paths = (
{
closed = 1;
nodes = (
"169 594 LINE",
"169 754 LINE",
"1026 1137 LINE",
"1026 928 LINE",
"403 674 LINE",
"1026 420 LINE",
"1026 211 LINE"
);
},
{
closed = 1;
nodes = (
"122 170 LINE",
"1062 170 LINE",
"1062 1 LINE",
"122 1 LINE"
);
}
);
width = 1203;
}
);
unicode = 2264;
},
{
glyphname = greaterequal;
layers = (
{
layerId = "D8F064C8-C1A6-4DD6-979F-3446BEDB940F";
paths = (
{
closed = 1;
nodes = (
"177 420 LINE",
"800 674 LINE",
"177 928 LINE",
"177 1137 LINE",
"1034 754 LINE",
"1034 594 LINE",
"177 211 LINE"
);
},
{
closed = 1;
nodes = (
"141 1 LINE",
"141 170 LINE",
"1081 170 LINE",
"1081 1 LINE"
);
}
);
width = 1203;
}
);
unicode = 2265;
},
{
glyphname = approxequal;
layers = (
{
layerId = "D8F064C8-C1A6-4DD6-979F-3446BEDB940F";
paths = (
{
closed = 1;
nodes = (
"46 894 LINE",
"96 948 OFFCURVE",
"236 1010 OFFCURVE",
"305 1011 QCURVE SMOOTH",
"389 1012 OFFCURVE",
"487 966 OFFCURVE",
"554 933 QCURVE SMOOTH",
"617 901 OFFCURVE",
"707 859 OFFCURVE",
"786 859 QCURVE SMOOTH",
"855 859 OFFCURVE",
"988 931 OFFCURVE",
"1038 995 QCURVE",
"1038 786 LINE",
"988 731 OFFCURVE",
"856 670 OFFCURVE",
"787 670 QCURVE SMOOTH",
"708 670 OFFCURVE",
"618 711 OFFCURVE",
"555 743 QCURVE SMOOTH",
"488 776 OFFCURVE",
"389 821 OFFCURVE",
"305 821 QCURVE SMOOTH",
"236 821 OFFCURVE",
"96 748 OFFCURVE",
"46 685 QCURVE"
);
},
{
closed = 1;
nodes = (
"45 451 LINE",
"95 505 OFFCURVE",
"235 566 OFFCURVE",
"304 567 QCURVE SMOOTH",
"388 568 OFFCURVE",
"486 522 OFFCURVE",
"553 489 QCURVE SMOOTH",
"616 457 OFFCURVE",
"706 416 OFFCURVE",
"785 416 QCURVE SMOOTH",
"854 416 OFFCURVE",
"987 488 OFFCURVE",
"1037 552 QCURVE",
"1037 341 LINE",
"987 287 OFFCURVE",
"855 225 OFFCURVE",
"786 225 QCURVE SMOOTH",
"707 225 OFFCURVE",
"617 267 OFFCURVE",
"554 299 QCURVE SMOOTH",
"487 332 OFFCURVE",
"388 376 OFFCURVE",
"304 376 QCURVE SMOOTH",
"235 376 OFFCURVE",
"95 305 OFFCURVE",
"45 241 QCURVE"
);
}
);
width = 1083;
}
);
unicode = 2248;
},
{
glyphname = notequal;
layers = (
{
layerId = "D8F064C8-C1A6-4DD6-979F-3446BEDB940F";
paths = (
{
closed = 1;
nodes = (
"793 861 LINE",
"766 832 LINE",
"552 461 LINE",
"548 437 LINE",
"347 89 LINE",
"209 169 LINE",
"369 447 LINE",
"392 469 LINE",
"599 828 LINE",
"610 864 LINE",
"835 1261 LINE",
"973 1181 LINE"
);
},
{
closed = 1;
nodes = (
"151 558 LINE",
"1053 558 LINE",
"1053 382 LINE",
"151 382 LINE"
);
},
{
closed = 1;
nodes = (
"151 966 LINE",
"1053 966 LINE",
"1053 790 LINE",
"151 790 LINE"
);
}
);
width = 1205;
}
);
unicode = 2260;
},
{
glyphname = logicalnot;
layers = (
{
layerId = "D8F064C8-C1A6-4DD6-979F-3446BEDB940F";
paths = (
{
closed = 1;
nodes = (
"1015 376 LINE",
"811 376 LINE",
"811 663 LINE",
"58 663 LINE",
"58 843 LINE",
"1015 843 LINE"
);
}
);
width = 1160;
}
);
unicode = 00AC;
},
{
glyphname = commercialMinusSign;
layers = (
{
layerId = "D8F064C8-C1A6-4DD6-979F-3446BEDB940F";
paths = (
{
closed = 1;
nodes = (
"689 1501 LINE",
"869 1455 LINE",
"285 -44 LINE",
"105 2 LINE"
);
},
{
closed = 1;
nodes = (
"564 229 OFFCURVE",
"661 333 OFFCURVE",
"737 333 QCURVE SMOOTH",
"814 333 OFFCURVE",
"911 229 OFFCURVE",
"911 159 QCURVE SMOOTH",
"911 90 OFFCURVE",
"814 -14 OFFCURVE",
"737 -14 QCURVE SMOOTH",
"661 -14 OFFCURVE",
"564 90 OFFCURVE",
"564 159 QCURVE SMOOTH"
);
},
{
closed = 1;
nodes = (
"60 1359 OFFCURVE",
"158 1463 OFFCURVE",
"234 1463 QCURVE SMOOTH",
"310 1463 OFFCURVE",
"408 1359 OFFCURVE",
"408 1290 QCURVE SMOOTH",
"408 1221 OFFCURVE",
"310 1117 OFFCURVE",
"234 1117 QCURVE SMOOTH",
"158 1117 OFFCURVE",
"60 1221 OFFCURVE",
"60 1290 QCURVE SMOOTH"
);
}
);
width = 971;
}
);
unicode = 2052;
},
{
glyphname = divisionslash;
layers = (
{
layerId = "D8F064C8-C1A6-4DD6-979F-3446BEDB940F";
paths = (
{
closed = 1;
nodes = (
"584 1555 LINE",
"775 1512 LINE",
"159 -161 LINE",
"-32 -118 LINE"
);
}
);
width = 766;
}
);
unicode = 2215;
},
{
glyphname = bulletoperator;
layers = (
{
layerId = "D8F064C8-C1A6-4DD6-979F-3446BEDB940F";
paths = (
{
closed = 1;
nodes = (
"304 758 OFFCURVE",
"421 882 OFFCURVE",
"512 882 QCURVE SMOOTH",
"603 882 OFFCURVE",
"720 758 OFFCURVE",
"720 674 QCURVE SMOOTH",
"720 591 OFFCURVE",
"603 467 OFFCURVE",
"512 467 QCURVE SMOOTH",
"421 467 OFFCURVE",
"304 591 OFFCURVE",
"304 674 QCURVE SMOOTH"
);
}
);
width = 1024;
}
);
unicode = 2219;
},
{
glyphname = dollar;
layers = (
{
layerId = "D8F064C8-C1A6-4DD6-979F-3446BEDB940F";
paths = (
{
closed = 1;
nodes = (
"10 429 LINE",
"201 429 LINE",
"199 417 LINE SMOOTH",
"178 295 OFFCURVE",
"334 170 OFFCURVE",
"493 170 QCURVE SMOOTH",
"650 170 OFFCURVE",
"836 268 OFFCURVE",
"854 356 QCURVE SMOOTH",
"870 460 OFFCURVE",
"754 602 OFFCURVE",
"522 669 QCURVE SMOOTH",
"294 735 OFFCURVE",
"143 939 OFFCURVE",
"170 1105 QCURVE SMOOTH",
"198 1268 OFFCURVE",
"483 1456 OFFCURVE",
"715 1456 QCURVE SMOOTH",
"945 1456 OFFCURVE",
"1176 1214 OFFCURVE",
"1148 1045 QCURVE SMOOTH",
"1146 1033 LINE",
"954 1033 LINE",
"956 1045 LINE SMOOTH",
"975 1152 OFFCURVE",
"842 1286 OFFCURVE",
"689 1286 QCURVE SMOOTH",
"535 1286 OFFCURVE",
"377 1208 OFFCURVE",
"359 1120 QCURVE SMOOTH",
"345 1033 OFFCURVE",
"457 883 OFFCURVE",
"683 821 QCURVE SMOOTH",
"905 761 OFFCURVE",
"1072 547 OFFCURVE",
"1044 372 QCURVE SMOOTH",
"1015 199 OFFCURVE",
"706 0 OFFCURVE",
"467 0 QCURVE SMOOTH",
"228 0 OFFCURVE",
"-23 227 OFFCURVE",
"9 417 QCURVE SMOOTH"
);
},
{
closed = 1;
nodes = (
"524 728 LINE",
"669 728 LINE",
"550 100 LINE",
"559 90 LINE",
"516 -150 LINE",
"360 -150 LINE"
);
},
{
closed = 1;
nodes = (
"644 1356 LINE",
"635 1366 LINE",
"669 1606 LINE",
"824 1606 LINE",
"678 728 LINE",
"533 728 LINE"
);
}
);
width = 1171;
}
);
unicode = 0024;
},
{
glyphname = cent;
layers = (
{
layerId = "D8F064C8-C1A6-4DD6-979F-3446BEDB940F";
paths = (
{
closed = 1;
nodes = (
"689 292 OFFCURVE",
"847 415 OFFCURVE",
"855 510 QCURVE",
"1045 510 LINE",
"1035 360 OFFCURVE",
"765 135 OFFCURVE",
"582 135 QCURVE SMOOTH",
"321 135 OFFCURVE",
"65 470 OFFCURVE",
"65 694 QCURVE SMOOTH",
"65 737 LINE SMOOTH",
"65 961 OFFCURVE",
"321 1297 OFFCURVE",
"582 1297 QCURVE SMOOTH",
"784 1297 OFFCURVE",
"1036 1063 OFFCURVE",
"1045 891 QCURVE",
"855 891 LINE",
"847 993 OFFCURVE",
"700 1139 OFFCURVE",
"582 1139 QCURVE SMOOTH",
"399 1139 OFFCURVE",
"265 882 OFFCURVE",
"265 737 QCURVE SMOOTH",
"265 694 LINE SMOOTH",
"265 547 OFFCURVE",
"397 292 OFFCURVE",
"582 292 QCURVE SMOOTH"
);
},
{
closed = 1;
nodes = (
"497 245 LINE",
"504 260 LINE",
"504 733 LINE",
"654 733 LINE",
"654 259 LINE",
"659 249 LINE",
"659 0 LINE",
"497 0 LINE"
);
},
{
closed = 1;
nodes = (
"504 1224 LINE",
"497 1235 LINE",
"497 1452 LINE",
"659 1452 LINE",
"659 1235 LINE",
"654 1221 LINE",
"654 733 LINE",
"504 733 LINE"
);
}
);
width = 1100;
}
);
unicode = 00A2;
},
{
glyphname = sterling;
layers = (
{
layerId = "D8F064C8-C1A6-4DD6-979F-3446BEDB940F";
paths = (
{
closed = 1;
nodes = (
"36 0 LINE",
"36 162 LINE",
"97 162 LINE SMOOTH",
"197 162 OFFCURVE",
"284 327 OFFCURVE",
"269 471 QCURVE SMOOTH",
"209 1049 LINE SMOOTH",
"189 1240 OFFCURVE",
"410 1490 OFFCURVE",
"629 1490 QCURVE SMOOTH",
"836 1490 OFFCURVE",
"1068 1282 OFFCURVE",
"1068 1114 QCURVE SMOOTH",
"1068 1097 LINE",
"858 1097 LINE",
"858 1114 LINE SMOOTH",
"851 1230 OFFCURVE",
"731 1322 OFFCURVE",
"631 1322 QCURVE SMOOTH",
"526 1322 OFFCURVE",
"398 1196 OFFCURVE",
"413 1049 QCURVE SMOOTH",
"469 513 LINE SMOOTH",
"483 376 OFFCURVE",
"424 209 OFFCURVE",
"347 168 QCURVE",
"1115 168 LINE",
"1115 0 LINE"
);
},
{
closed = 1;
nodes = (
"53 631 LINE",
"53 787 LINE",
"893 787 LINE",
"893 631 LINE"
);
}
);
width = 1115;
}
);
unicode = 00A3;
},
{
glyphname = currency;
layers = (
{
guideLines = (
{
position = "{0, 901}";
},
{
position = "{0, 555}";
}
);
layerId = "D8F064C8-C1A6-4DD6-979F-3446BEDB940F";
paths = (
{
closed = 1;
nodes = (
"275 591 OFFCURVE",
"470 386 OFFCURVE",
"608 386 QCURVE SMOOTH",
"745 386 OFFCURVE",
"939 591 OFFCURVE",
"939 744 QCURVE SMOOTH",
"939 895 OFFCURVE",
"745 1100 OFFCURVE",
"608 1100 QCURVE SMOOTH",
"470 1100 OFFCURVE",
"275 895 OFFCURVE",
"275 744 QCURVE"
);
},
{
closed = 1;
nodes = (
"82 977 OFFCURVE",
"395 1286 OFFCURVE",
"607 1286 QCURVE SMOOTH",
"819 1286 OFFCURVE",
"1132 977 OFFCURVE",
"1132 750 QCURVE SMOOTH",
"1132 524 OFFCURVE",
"819 212 OFFCURVE",
"607 212 QCURVE SMOOTH",
"395 212 OFFCURVE",
"82 524 OFFCURVE",
"82 750 QCURVE"
);
},
{
closed = 1;
nodes = (
"968 1017 LINE",
"839 1151 LINE",
"1053 1368 LINE",
"1182 1234 LINE"
);
},
{
closed = 1;
nodes = (
"140 148 LINE",
"12 281 LINE",
"225 498 LINE",
"353 366 LINE"
);
},
{
closed = 1;
nodes = (
"867 373 LINE",
"997 506 LINE",
"1210 290 LINE",
"1080 155 LINE"
);
},
{
closed = 1;
nodes = (
"30 1249 LINE",
"158 1382 LINE",
"371 1164 LINE",
"243 1031 LINE"
);
}
);
width = 1222;
}
);
unicode = 00A4;
userData = {
com.typemytype.robofont.guideline.magnetic.917FhrihjR = 5;
com.typemytype.robofont.guideline.magnetic.bRYxxRaQQf = 5;
};
},
{
glyphname = yen;
layers = (
{
layerId = "D8F064C8-C1A6-4DD6-979F-3446BEDB940F";
paths = (
{
closed = 1;
nodes = (
"85 470 LINE",
"1127 470 LINE",
"1127 311 LINE",
"85 311 LINE"
);
},
{
closed = 1;
nodes = (
"85 775 LINE",
"488 775 LINE",
"546 669 LINE",
"667 669 LINE",
"719 775 LINE",
"1127 775 LINE",
"1127 621 LINE",
"85 621 LINE"
);
},
{
closed = 1;
nodes = (
"500 548 LINE",
"-1 1456 LINE",
"229 1456 LINE",
"533 849 LINE SMOOTH",
"549 819 OFFCURVE",
"585 716 OFFCURVE",
"593 679 QCURVE",
"615 679 LINE",
"625 735 OFFCURVE",
"659 819 OFFCURVE",
"674 849 QCURVE SMOOTH",
"983 1456 LINE",
"1204 1456 LINE",
"703 548 LINE",
"703 0 LINE",
"500 0 LINE"
);
}
);
width = 1203;
}
);
unicode = 00A5;
},
{
glyphname = coloncurrency;
layers = (
{
guideLines = (
{
position = "{0, 1570}";
}
);
layerId = "D8F064C8-C1A6-4DD6-979F-3446BEDB940F";
paths = (
{
closed = 1;
nodes = (
"944 1324 LINE",
"931 1301 LINE",
"759 68 LINE",
"765 43 LINE",
"741 -125 LINE",
"582 -125 LINE",
"605 40 LINE",
"619 66 LINE",
"804 1361 LINE",
"797 1381 LINE",
"825 1570 LINE",
"983 1570 LINE"
);
},
{
closed = 1;
nodes = (
"686 1395 LINE",
"673 1374 LINE",
"486 66 LINE",
"492 39 LINE",
"469 -125 LINE",
"310 -125 LINE",
"345 122 LINE",
"359 148 LINE",
"535 1376 LINE",
"528 1399 LINE",
"553 1570 LINE",
"711 1570 LINE"
);
},
{
closed = 1;
nodes = (
"85 844 LINE SMOOTH",
"85 1154 OFFCURVE",
"408 1486 OFFCURVE",
"642 1486 QCURVE SMOOTH",
"877 1486 OFFCURVE",
"1170 1233 OFFCURVE",
"1166 1040 QCURVE SMOOTH",
"1166 990 LINE",
"962 990 LINE",
"962 1041 LINE SMOOTH",
"962 1161 OFFCURVE",
"805 1308 OFFCURVE",
"642 1308 QCURVE SMOOTH",
"480 1308 OFFCURVE",
"292 1085 OFFCURVE",
"292 844 QCURVE SMOOTH",
"292 592 LINE SMOOTH",
"292 369 OFFCURVE",
"490 148 OFFCURVE",
"652 148 QCURVE SMOOTH",
"815 148 OFFCURVE",
"969 291 OFFCURVE",
"967 412 QCURVE SMOOTH",
"967 466 LINE",
"1166 466 LINE",
"1166 426 LINE SMOOTH",
"1166 241 OFFCURVE",
"887 -30 OFFCURVE",
"652 -30 QCURVE SMOOTH",
"413 -30 OFFCURVE",
"85 308 OFFCURVE",
"85 612 QCURVE SMOOTH"
);
}
);
width = 1223;
}
);
unicode = 20A1;
userData = {
com.typemytype.robofont.guideline.magnetic.0DwZ2nfhdf = 5;
};
},
{
glyphname = franc;
layers = (
{
layerId = "D8F064C8-C1A6-4DD6-979F-3446BEDB940F";
paths = (
{
closed = 1;
nodes = (
"170 1456 LINE",
"1129 1456 LINE",
"1129 1285 LINE",
"375 1285 LINE",
"375 868 LINE",
"1026 868 LINE",
"1026 697 LINE",
"375 697 LINE",
"375 0 LINE",
"170 0 LINE"
);
},
{
closed = 1;
nodes = (
"20 454 LINE",
"845 454 LINE",
"845 296 LINE",
"20 296 LINE"
);
}
);
width = 1187;
}
);
unicode = 20A3;
},
{
glyphname = lira;
layers = (
{
layerId = "D8F064C8-C1A6-4DD6-979F-3446BEDB940F";
paths = (
{
closed = 1;
nodes = (
"36 0 LINE",
"36 162 LINE",
"97 162 LINE SMOOTH",
"197 162 OFFCURVE",
"284 327 OFFCURVE",
"269 471 QCURVE SMOOTH",
"209 1049 LINE SMOOTH",
"189 1240 OFFCURVE",
"410 1490 OFFCURVE",
"629 1490 QCURVE SMOOTH",
"836 1490 OFFCURVE",
"1068 1282 OFFCURVE",
"1068 1114 QCURVE SMOOTH",
"1068 1097 LINE",
"858 1097 LINE",
"858 1114 LINE SMOOTH",
"851 1230 OFFCURVE",
"731 1322 OFFCURVE",
"631 1322 QCURVE SMOOTH",
"526 1322 OFFCURVE",
"398 1196 OFFCURVE",
"413 1049 QCURVE SMOOTH",
"469 513 LINE SMOOTH",
"483 376 OFFCURVE",
"424 209 OFFCURVE",
"347 168 QCURVE",
"1115 168 LINE",
"1115 0 LINE"
);
},
{
closed = 1;
nodes = (
"53 759 LINE",
"53 915 LINE",
"893 915 LINE",
"893 759 LINE"
);
},
{
closed = 1;
nodes = (
"53 430 LINE",
"53 586 LINE",
"893 586 LINE",
"893 430 LINE"
);
}
);
width = 1115;
}
);
unicode = 20A4;
},
{
glyphname = naira;
layers = (
{
layerId = "D8F064C8-C1A6-4DD6-979F-3446BEDB940F";
paths = (
{
closed = 1;
nodes = (
"0 987 LINE",
"227 987 LINE",
"227 977 LINE",
"939 977 LINE",
"939 987 LINE",
"1131 989 LINE",
"1131 852 LINE",
"939 850 LINE",
"939 855 LINE",
"227 855 LINE",
"227 850 LINE",
"0 850 LINE"
);
},
{
closed = 1;
nodes = (
"0 677 LINE",
"227 677 LINE",
"227 672 LINE",
"939 672 LINE",
"939 677 LINE",
"1131 679 LINE",
"1131 542 LINE",
"939 540 LINE",
"939 550 LINE",
"227 550 LINE",
"227 540 LINE",
"0 540 LINE"
);
},
{
closed = 1;
nodes = (
"1018 0 LINE",
"791 0 LINE",
"320 1082 LINE",
"298 1193 LINE",
"286 1193 LINE",
"299 1065 LINE",
"299 0 LINE",
"104 0 LINE",
"104 1456 LINE",
"335 1456 LINE",
"789 407 LINE",
"818 287 LINE",
"832 290 LINE",
"822 411 LINE",
"822 1456 LINE",
"1018 1456 LINE"
);
}
);
width = 1131;
}
);
unicode = 20A6;
},
{
glyphname = peseta;
layers = (
{
layerId = "D8F064C8-C1A6-4DD6-979F-3446BEDB940F";
paths = (
{
closed = 1;
nodes = (
"273 558 LINE",
"273 729 LINE",
"684 729 LINE",
"865 729 OFFCURVE",
"1010 892 OFFCURVE",
"1010 1009 QCURVE",
"1010 1126 OFFCURVE",
"865 1285 OFFCURVE",
"684 1285 QCURVE",
"375 1285 LINE",
"375 0 LINE",
"170 0 LINE",
"170 1456 LINE",
"684 1456 LINE",
"940 1456 OFFCURVE",
"1214 1212 OFFCURVE",
"1214 1009 QCURVE",
"1214 806 OFFCURVE",
"940 558 OFFCURVE",
"684 558 QCURVE"
);
},
{
closed = 1;
nodes = (
"1847 933 LINE",
"1110 933 LINE",
"1110 1089 LINE",
"1847 1089 LINE"
);
},
{
closed = 1;
nodes = (
"1601 1345 LINE",
"1601 272 LINE",
"1601 202 OFFCURVE",
"1661 142 OFFCURVE",
"1725 142 QCURVE SMOOTH",
"1755 142 OFFCURVE",
"1812 154 OFFCURVE",
"1842 164 QCURVE",
"1842 0 LINE",
"1814 -12 OFFCURVE",
"1726 -30 OFFCURVE",
"1674 -30 QCURVE SMOOTH",
"1550 -30 OFFCURVE",
"1403 116 OFFCURVE",
"1403 272 QCURVE",
"1403 1345 LINE"
);
}
);
width = 1897;
}
);
unicode = 20A7;
},
{
glyphname = won;
layers = (
{
layerId = "D8F064C8-C1A6-4DD6-979F-3446BEDB940F";
paths = (
{
closed = 1;
nodes = (
"48 1017 LINE",
"336 1017 LINE",
"336 1007 LINE",
"1632 1007 LINE",
"1632 1017 LINE",
"1813 1019 LINE",
"1813 882 LINE",
"1632 880 LINE",
"1632 885 LINE",
"336 885 LINE",
"336 880 LINE",
"48 880 LINE"
);
},
{
closed = 1;
nodes = (
"79 657 LINE",
"427 657 LINE",
"427 652 LINE",
"1553 652 LINE",
"1553 657 LINE",
"1774 659 LINE",
"1774 522 LINE",
"1553 520 LINE",
"1553 530 LINE",
"427 530 LINE",
"427 520 LINE",
"79 520 LINE"
);
},
{
closed = 1;
nodes = (
"50 1456 LINE",
"253 1456 LINE",
"504 375 LINE",
"527 257 LINE",
"540 257 LINE",
"562 375 LINE SMOOTH",
"826 1456 LINE",
"1039 1456 LINE",
"1314 375 LINE",
"1337 257 LINE",
"1350 257 LINE",
"1372 375 LINE SMOOTH",
"1616 1456 LINE",
"1811 1456 LINE",
"1445 -9 LINE",
"1242 -9 LINE",
"966 1066 LINE",
"938 1194 LINE",
"925 1194 LINE",
"898 1068 LINE SMOOTH",
"618 -7 LINE",
"416 -9 LINE"
);
}
);
width = 1861;
}
);
unicode = 20A9;
},
{
glyphname = dong;
layers = (
{
layerId = "D8F064C8-C1A6-4DD6-979F-3446BEDB940F";
paths = (
{
closed = 1;
nodes = (
"85 511 LINE SMOOTH",
"85 728 OFFCURVE",
"353 1009 OFFCURVE",
"560 1009 QCURVE SMOOTH",
"681 1009 OFFCURVE",
"852 928 OFFCURVE",
"903 860 QCURVE",
"903 1456 LINE",
"1101 1456 LINE",
"1101 0 LINE",
"921 0 LINE",
"912 142 LINE",
"907 142 LINE",
"863 75 OFFCURVE",
"681 -20 OFFCURVE",
"560 -20 QCURVE SMOOTH",
"353 -20 OFFCURVE",
"85 261 OFFCURVE",
"85 479 QCURVE SMOOTH"
);
},
{
closed = 1;
nodes = (
"288 334 OFFCURVE",
"467 146 OFFCURVE",
"605 146 QCURVE SMOOTH",
"715 146 OFFCURVE",
"869 259 OFFCURVE",
"903 331 QCURVE",
"903 658 LINE",
"869 730 OFFCURVE",
"715 843 OFFCURVE",
"605 843 QCURVE SMOOTH",
"467 843 OFFCURVE",
"288 656 OFFCURVE",
"288 511 QCURVE SMOOTH",
"288 479 LINE SMOOTH"
);
},
{
closed = 1;
nodes = (
"405 1156 LINE",
"405 1322 LINE",
"1231 1322 LINE",
"1231 1156 LINE"
);
},
{
closed = 1;
nodes = (
"107 -286 LINE",
"107 -128 LINE",
"1181 -128 LINE",
"1181 -286 LINE"
);
}
);
width = 1300;
}
);
unicode = 20AB;
},
{
glyphname = Euro;
layers = (
{
layerId = "D8F064C8-C1A6-4DD6-979F-3446BEDB940F";
paths = (
{
closed = 1;
nodes = (
"899 827 LINE",
"22 827 LINE",
"22 987 LINE",
"895 987 LINE"
);
},
{
closed = 1;
nodes = (
"899 502 LINE",
"22 502 LINE",
"22 661 LINE",
"899 661 LINE"
);
},
{
closed = 1;
nodes = (
"203 903 LINE SMOOTH",
"203 1183 OFFCURVE",
"472 1484 OFFCURVE",
"723 1484 QCURVE SMOOTH",
"852 1484 OFFCURVE",
"1069 1408 OFFCURVE",
"1142 1337 QCURVE",
"1007 1206 LINE",
"956 1254 OFFCURVE",
"817 1306 OFFCURVE",
"739 1306 QCURVE SMOOTH",
"580 1306 OFFCURVE",
"409 1099 OFFCURVE",
"409 906 QCURVE SMOOTH",
"409 541 LINE SMOOTH",
"409 350 OFFCURVE",
"592 145 OFFCURVE",
"763 145 QCURVE SMOOTH",
"838 145 OFFCURVE",
"980 195 OFFCURVE",
"1038 242 QCURVE",
"1157 126 LINE",
"1087 51 OFFCURVE",
"863 -30 OFFCURVE",
"725 -30 QCURVE SMOOTH",
"473 -30 OFFCURVE",
"203 267 OFFCURVE",
"203 544 QCURVE SMOOTH"
);
}
);
width = 1187;
}
);
unicode = 20AC;
},
{
glyphname = florin;
layers = (
{
layerId = "D8F064C8-C1A6-4DD6-979F-3446BEDB940F";
paths = (
{
closed = 1;
nodes = (
"930 730 LINE",
"595 730 LINE",
"595 111 LINE SMOOTH",
"595 -173 OFFCURVE",
"374 -437 OFFCURVE",
"111 -437 QCURVE SMOOTH",
"78 -437 OFFCURVE",
"21 -430 OFFCURVE",
"-9 -420 QCURVE",
"6 -271 LINE",
"22 -277 OFFCURVE",
"96 -284 OFFCURVE",
"111 -284 QCURVE SMOOTH",
"241 -284 OFFCURVE",
"397 -122 OFFCURVE",
"397 111 QCURVE SMOOTH",
"397 730 LINE",
"139 730 LINE",
"139 892 LINE",
"397 892 LINE",
"397 1126 LINE SMOOTH",
"397 1301 OFFCURVE",
"591 1487 OFFCURVE",
"759 1487 QCURVE SMOOTH",
"851 1487 OFFCURVE",
"989 1434 OFFCURVE",
"1032 1404 QCURVE",
"945 1259 LINE",
"903 1290 OFFCURVE",
"813 1320 OFFCURVE",
"763 1320 QCURVE SMOOTH",
"688 1320 OFFCURVE",
"595 1224 OFFCURVE",
"595 1126 QCURVE SMOOTH",
"595 892 LINE",
"930 892 LINE"
);
}
);
width = 1085;
}
);
unicode = 0192;
},
{
glyphname = uni20AD;
layers = (
{
layerId = "D8F064C8-C1A6-4DD6-979F-3446BEDB940F";
paths = (
{
closed = 1;
nodes = (
"130 1456 LINE",
"317 1456 LINE",
"317 769 LINE",
"835 1456 LINE",
"1037 1456 LINE",
"317 500 LINE",
"317 0 LINE",
"130 0 LINE"
);
},
{
closed = 1;
nodes = (
"441 756 LINE",
"557 901 LINE",
"1061 0 LINE",
"845 0 LINE"
);
},
{
closed = 1;
nodes = (
"-9 661 LINE",
"-9 809 LINE",
"267 809 LINE",
"267 661 LINE"
);
},
{
closed = 1;
nodes = (
"1021 661 LINE",
"590 661 LINE",
"590 809 LINE",
"1021 809 LINE"
);
}
);
width = 1024;
}
);
unicode = 20AD;
},
{
glyphname = uni20B1;
layers = (
{
layerId = "D8F064C8-C1A6-4DD6-979F-3446BEDB940F";
paths = (
{
closed = 1;
nodes = (
"213 407 LINE",
"213 578 LINE",
"546 578 LINE SMOOTH",
"670 578 OFFCURVE",
"768 785 OFFCURVE",
"768 934 QCURVE SMOOTH",
"768 1084 OFFCURVE",
"670 1285 OFFCURVE",
"546 1285 QCURVE SMOOTH",
"335 1285 LINE",
"335 0 LINE",
"130 0 LINE",
"130 1456 LINE",
"546 1456 LINE SMOOTH",
"753 1456 OFFCURVE",
"975 1171 OFFCURVE",
"975 934 QCURVE SMOOTH",
"975 697 OFFCURVE",
"753 407 OFFCURVE",
"546 407 QCURVE SMOOTH"
);
},
{
closed = 1;
nodes = (
"-1 1137 LINE",
"241 1137 LINE",
"241 1112 LINE",
"827 1112 LINE",
"827 1137 LINE",
"1099 1139 LINE",
"1099 982 LINE",
"847 980 LINE",
"847 995 LINE",
"241 995 LINE",
"241 980 LINE",
"-1 980 LINE"
);
},
{
closed = 1;
nodes = (
"-1 867 LINE",
"241 867 LINE",
"241 852 LINE",
"847 852 LINE",
"847 867 LINE",
"1099 869 LINE",
"1099 712 LINE",
"807 710 LINE",
"807 713 LINE",
"241 713 LINE",
"241 710 LINE",
"-1 710 LINE"
);
}
);
width = 1113;
}
);
unicode = 20B1;
},
{
glyphname = uni20B2;
layers = (
{
layerId = "D8F064C8-C1A6-4DD6-979F-3446BEDB940F";
paths = (
{
closed = 1;
nodes = (
"497 57 LINE",
"517 71 LINE",
"517 708 LINE",
"652 708 LINE",
"652 70 LINE",
"675 60 LINE",
"675 -190 LINE",
"497 -190 LINE"
);
},
{
closed = 1;
nodes = (
"517 1342 LINE",
"500 1352 LINE",
"500 1582 LINE",
"668 1582 LINE",
"668 1352 LINE",
"652 1339 LINE",
"652 708 LINE",
"517 708 LINE"
);
},
{
closed = 1;
nodes = (
"1037 452 LINE SMOOTH",
"1037 259 OFFCURVE",
"785 -5 OFFCURVE",
"594 -5 QCURVE SMOOTH",
"362 -5 OFFCURVE",
"94 288 OFFCURVE",
"94 542 QCURVE SMOOTH",
"94 897 LINE SMOOTH",
"94 1196 OFFCURVE",
"362 1485 OFFCURVE",
"571 1485 QCURVE SMOOTH",
"757 1485 OFFCURVE",
"981 1340 OFFCURVE",
"1032 1265 QCURVE",
"909 1131 LINE",
"852 1204 OFFCURVE",
"701 1299 OFFCURVE",
"579 1299 QCURVE SMOOTH",
"440 1299 OFFCURVE",
"297 1112 OFFCURVE",
"297 899 QCURVE SMOOTH",
"297 544 LINE SMOOTH",
"297 359 OFFCURVE",
"451 152 OFFCURVE",
"608 152 QCURVE SMOOTH",
"700 152 OFFCURVE",
"858 299 OFFCURVE",
"858 433 QCURVE SMOOTH",
"858 569 LINE",
"724 569 LINE",
"724 735 LINE",
"1037 735 LINE"
);
}
);
width = 1061;
}
);
unicode = 20B2;
},
{
glyphname = uni20B5;
layers = (
{
guideLines = (
{
position = "{0, -125}";
}
);
layerId = "D8F064C8-C1A6-4DD6-979F-3446BEDB940F";
paths = (
{
closed = 1;
nodes = (
"492 37 LINE",
"506 51 LINE",
"506 708 LINE",
"658 708 LINE",
"658 50 LINE",
"671 40 LINE",
"671 -190 LINE",
"492 -190 LINE"
);
},
{
closed = 1;
nodes = (
"506 1362 LINE",
"495 1372 LINE",
"495 1582 LINE",
"664 1582 LINE",
"664 1372 LINE",
"658 1359 LINE",
"658 708 LINE",
"506 708 LINE"
);
},
{
closed = 1;
nodes = (
"858 460 LINE",
"1057 458 LINE",
"1056 436 LINE SMOOTH",
"1038 244 OFFCURVE",
"814 -25 OFFCURVE",
"589 -25 QCURVE SMOOTH",
"357 -25 OFFCURVE",
"102 237 OFFCURVE",
"102 462 QCURVE SMOOTH",
"102 1002 LINE SMOOTH",
"102 1216 OFFCURVE",
"357 1485 OFFCURVE",
"587 1485 QCURVE SMOOTH",
"815 1485 OFFCURVE",
"1046 1236 OFFCURVE",
"1056 1030 QCURVE SMOOTH",
"1057 1008 LINE",
"853 1006 LINE",
"853 1030 LINE SMOOTH",
"849 1135 OFFCURVE",
"744 1319 OFFCURVE",
"590 1319 QCURVE SMOOTH",
"435 1319 OFFCURVE",
"306 1150 OFFCURVE",
"306 1004 QCURVE SMOOTH",
"306 464 LINE SMOOTH",
"306 311 OFFCURVE",
"446 132 OFFCURVE",
"604 132 QCURVE SMOOTH",
"728 132 OFFCURVE",
"858 302 OFFCURVE",
"858 436 QCURVE SMOOTH"
);
}
);
width = 1062;
}
);
unicode = 20B5;
userData = {
com.typemytype.robofont.guideline.magnetic.1Am3eQoiKr = 5;
};
},
{
glyphname = rupeeIndian;
layers = (
{
layerId = "D8F064C8-C1A6-4DD6-979F-3446BEDB940F";
paths = (
{
closed = 1;
nodes = (
"19 1089 LINE",
"1070 1089 LINE",
"1070 934 LINE",
"19 934 LINE"
);
},
{
closed = 1;
nodes = (
"713 267 LINE SMOOTH",
"611 439 OFFCURVE",
"347 556 OFFCURVE",
"141 564 QCURVE SMOOTH",
"19 569 LINE",
"19 732 LINE",
"331 732 LINE SMOOTH",
"537 732 OFFCURVE",
"705 885 OFFCURVE",
"705 1019 QCURVE SMOOTH",
"705 1145 OFFCURVE",
"531 1283 OFFCURVE",
"346 1289 QCURVE SMOOTH",
"19 1289 LINE",
"19 1456 LINE",
"1079 1456 LINE",
"1079 1290 LINE",
"825 1290 LINE",
"742 1298 LINE",
"744 1290 LINE",
"806 1262 OFFCURVE",
"905 1112 OFFCURVE",
"905 1019 QCURVE SMOOTH",
"905 831 OFFCURVE",
"714 663 OFFCURVE",
"512 642 QCURVE",
"614 619 OFFCURVE",
"823 461 OFFCURVE",
"906 317 QCURVE SMOOTH",
"1090 0 LINE",
"871 0 LINE"
);
}
);
width = 1024;
}
);
unicode = 20B9;
},
{
glyphname = liraTurkish;
layers = (
{
layerId = "D8F064C8-C1A6-4DD6-979F-3446BEDB940F";
paths = (
{
closed = 1;
nodes = (
"6 502 LINE",
"953 876 LINE",
"946 709 LINE",
"6 334 LINE"
);
},
{
closed = 1;
nodes = (
"200 1456 LINE",
"403 1456 LINE",
"403 163 LINE",
"488 163 LINE SMOOTH",
"720 163 OFFCURVE",
"934 363 OFFCURVE",
"930 521 QCURVE SMOOTH",
"930 558 LINE",
"1130 558 LINE",
"1130 523 LINE SMOOTH",
"1130 298 OFFCURVE",
"809 -5 OFFCURVE",
"447 -2 QCURVE SMOOTH",
"200 0 LINE"
);
},
{
closed = 1;
nodes = (
"6 862 LINE",
"953 1236 LINE",
"946 1069 LINE",
"6 694 LINE"
);
}
);
width = 1159;
}
);
unicode = 20BA;
},
{
glyphname = manat;
layers = (
{
layerId = "D8F064C8-C1A6-4DD6-979F-3446BEDB940F";
paths = (
{
closed = 1;
nodes = (
"1179 0 LINE",
"976 0 LINE",
"976 916 LINE SMOOTH",
"973 1086 OFFCURVE",
"779 1242 OFFCURVE",
"624 1242 QCURVE SMOOTH",
"468 1242 OFFCURVE",
"271 1086 OFFCURVE",
"271 916 QCURVE SMOOTH",
"271 0 LINE",
"68 0 LINE",
"68 916 LINE SMOOTH",
"71 1166 OFFCURVE",
"390 1416 OFFCURVE",
"624 1416 QCURVE SMOOTH",
"858 1416 OFFCURVE",
"1179 1166 OFFCURVE",
"1179 916 QCURVE SMOOTH"
);
},
{
closed = 1;
nodes = (
"534 0 LINE",
"534 1582 LINE",
"713 1582 LINE",
"713 0 LINE"
);
}
);
width = 1247;
}
);
unicode = 20BC;
},
{
glyphname = ruble;
layers = (
{
layerId = "D8F064C8-C1A6-4DD6-979F-3446BEDB940F";
paths = (
{
closed = 1;
nodes = (
"30 608 LINE",
"30 779 LINE",
"554 779 LINE SMOOTH",
"735 779 OFFCURVE",
"880 917 OFFCURVE",
"880 1034 QCURVE SMOOTH",
"880 1151 OFFCURVE",
"735 1285 OFFCURVE",
"554 1285 QCURVE SMOOTH",
"375 1285 LINE",
"375 0 LINE",
"170 0 LINE",
"170 1456 LINE",
"554 1456 LINE SMOOTH",
"810 1456 OFFCURVE",
"1084 1237 OFFCURVE",
"1084 1034 QCURVE SMOOTH",
"1084 831 OFFCURVE",
"810 608 OFFCURVE",
"554 608 QCURVE SMOOTH"
);
},
{
closed = 1;
nodes = (
"804 254 LINE",
"30 254 LINE",
"30 423 LINE",
"804 423 LINE"
);
}
);
width = 1124;
}
);
unicode = 20BD;
},
{
glyphname = asciicircum;
layers = (
{
layerId = "D8F064C8-C1A6-4DD6-979F-3446BEDB940F";
paths = (
{
closed = 1;
nodes = (
"636 1456 LINE",
"817 1456 LINE",
"1171 720 LINE",
"961 720 LINE",
"697 1277 LINE",
"233 720 LINE",
"23 720 LINE"
);
}
);
width = 1196;
}
);
unicode = 005E;
},
{
glyphname = asciitilde;
layers = (
{
layerId = "D8F064C8-C1A6-4DD6-979F-3446BEDB940F";
paths = (
{
closed = 1;
nodes = (
"101 739 LINE",
"161 795 OFFCURVE",
"312 858 OFFCURVE",
"382 859 QCURVE SMOOTH",
"436 860 OFFCURVE",
"560 808 OFFCURVE",
"621 778 QCURVE SMOOTH",
"678 750 OFFCURVE",
"792 703 OFFCURVE",
"840 703 QCURVE SMOOTH",
"909 703 OFFCURVE",
"1056 778 OFFCURVE",
"1117 844 QCURVE",
"1081 621 LINE",
"1021 564 OFFCURVE",
"879 501 OFFCURVE",
"809 501 QCURVE SMOOTH",
"758 501 OFFCURVE",
"640 550 OFFCURVE",
"581 579 QCURVE SMOOTH",
"522 608 OFFCURVE",
"402 657 OFFCURVE",
"350 657 QCURVE SMOOTH",
"279 657 OFFCURVE",
"127 583 OFFCURVE",
"65 517 QCURVE"
);
}
);
width = 1198;
}
);
unicode = 007E;
},
{
glyphname = acute;
layers = (
{
layerId = "D8F064C8-C1A6-4DD6-979F-3446BEDB940F";
paths = (
{
closed = 1;
nodes = (
"591 1622 LINE",
"752 1485 LINE",
"445 1201 LINE",
"333 1287 LINE"
);
}
);
width = 1024;
}
);
unicode = 00B4;
},
{
glyphname = grave;
layers = (
{
layerId = "D8F064C8-C1A6-4DD6-979F-3446BEDB940F";
paths = (
{
closed = 1;
nodes = (
"404 1485 LINE",
"579 1622 LINE",
"777 1287 LINE",
"654 1201 LINE"
);
}
);
width = 1005;
}
);
unicode = 0060;
},
{
glyphname = hungarumlaut;
layers = (
{
layerId = "D8F064C8-C1A6-4DD6-979F-3446BEDB940F";
paths = (
{
closed = 1;
nodes = (
"564 1600 LINE",
"719 1480 LINE",
"394 1166 LINE",
"301 1264 LINE"
);
},
{
closed = 1;
nodes = (
"901 1600 LINE",
"1057 1480 LINE",
"731 1166 LINE",
"639 1264 LINE"
);
}
);
width = 1024;
}
);
unicode = 02DD;
},
{
glyphname = circumflex;
layers = (
{
layerId = "D8F064C8-C1A6-4DD6-979F-3446BEDB940F";
paths = (
{
closed = 1;
nodes = (
"847 1203 LINE",
"677 1203 LINE",
"512 1378 LINE",
"347 1203 LINE",
"180 1203 LINE",
"450 1548 LINE",
"574 1548 LINE"
);
}
);
width = 1024;
}
);
unicode = 02C6;
},
{
glyphname = caron;
layers = (
{
layerId = "D8F064C8-C1A6-4DD6-979F-3446BEDB940F";
paths = (
{
closed = 1;
nodes = (
"180 1528 LINE",
"350 1528 LINE",
"515 1353 LINE",
"680 1528 LINE",
"847 1528 LINE",
"577 1183 LINE",
"453 1183 LINE"
);
}
);
width = 1024;
}
);
unicode = 02C7;
},
{
glyphname = breve;
layers = (
{
layerId = "D8F064C8-C1A6-4DD6-979F-3446BEDB940F";
paths = (
{
closed = 1;
nodes = (
"866 1477 LINE",
"829 1373 OFFCURVE",
"645 1198 OFFCURVE",
"513 1198 QCURVE SMOOTH",
"394 1198 OFFCURVE",
"204 1359 OFFCURVE",
"160 1478 QCURVE",
"269 1534 LINE",
"306 1474 OFFCURVE",
"431 1370 OFFCURVE",
"514 1370 QCURVE SMOOTH",
"602 1370 OFFCURVE",
"728 1470 OFFCURVE",
"766 1534 QCURVE"
);
}
);
width = 1022;
}
);
unicode = 02D8;
},
{
glyphname = tilde;
layers = (
{
layerId = "D8F064C8-C1A6-4DD6-979F-3446BEDB940F";
paths = (
{
closed = 1;
nodes = (
"172 1367 OFFCURVE",
"317 1470 OFFCURVE",
"387 1470 QCURVE SMOOTH",
"430 1470 OFFCURVE",
"509 1444 OFFCURVE",
"548 1419 QCURVE SMOOTH",
"583 1396 OFFCURVE",
"665 1350 OFFCURVE",
"705 1350 QCURVE SMOOTH",
"747 1350 OFFCURVE",
"821 1405 OFFCURVE",
"845 1443 QCURVE",
"930 1340 LINE",
"890 1266 OFFCURVE",
"750 1190 OFFCURVE",
"690 1190 QCURVE SMOOTH",
"639 1190 OFFCURVE",
"540 1235 OFFCURVE",
"508 1253 QCURVE SMOOTH",
"472 1273 OFFCURVE",
"401 1309 OFFCURVE",
"370 1309 QCURVE SMOOTH",
"321 1309 OFFCURVE",
"236 1233 OFFCURVE",
"217 1205 QCURVE",
"137 1301 LINE"
);
}
);
width = 1024;
}
);
unicode = 02DC;
},
{
glyphname = macron;
layers = (
{
layerId = "D8F064C8-C1A6-4DD6-979F-3446BEDB940F";
paths = (
{
closed = 1;
nodes = (
"826 1278 LINE",
"198 1278 LINE",
"198 1430 LINE",
"826 1430 LINE"
);
}
);
width = 1024;
}
);
unicode = 00AF;
},
{
glyphname = dieresis;
layers = (
{
layerId = "D8F064C8-C1A6-4DD6-979F-3446BEDB940F";
paths = (
{
closed = 1;
nodes = (
"171 1364 OFFCURVE",
"230 1429 OFFCURVE",
"285 1429 QCURVE SMOOTH",
"342 1429 OFFCURVE",
"401 1364 OFFCURVE",
"401 1316 QCURVE SMOOTH",
"401 1271 OFFCURVE",
"342 1207 OFFCURVE",
"285 1207 QCURVE SMOOTH",
"230 1207 OFFCURVE",
"171 1271 OFFCURVE",
"171 1316 QCURVE SMOOTH"
);
},
{
closed = 1;
nodes = (
"623 1361 OFFCURVE",
"681 1427 OFFCURVE",
"738 1427 QCURVE SMOOTH",
"793 1427 OFFCURVE",
"853 1361 OFFCURVE",
"853 1314 QCURVE SMOOTH",
"853 1269 OFFCURVE",
"793 1205 OFFCURVE",
"738 1205 QCURVE SMOOTH",
"681 1205 OFFCURVE",
"623 1269 OFFCURVE",
"623 1314 QCURVE SMOOTH"
);
}
);
width = 1024;
}
);
unicode = 00A8;
},
{
glyphname = dotaccent;
layers = (
{
layerId = "D8F064C8-C1A6-4DD6-979F-3446BEDB940F";
paths = (
{
closed = 1;
nodes = (
"392 1385 OFFCURVE",
"458 1457 OFFCURVE",
"512 1457 QCURVE SMOOTH",
"565 1457 OFFCURVE",
"632 1385 OFFCURVE",
"632 1341 QCURVE SMOOTH",
"632 1297 OFFCURVE",
"565 1226 OFFCURVE",
"512 1226 QCURVE SMOOTH",
"458 1226 OFFCURVE",
"392 1297 OFFCURVE",
"392 1341 QCURVE SMOOTH"
);
}
);
width = 1024;
}
);
unicode = 02D9;
},
{
glyphname = ring;
layers = (
{
layerId = "D8F064C8-C1A6-4DD6-979F-3446BEDB940F";
paths = (
{
closed = 1;
nodes = (
"275 1494 OFFCURVE",
"411 1629 OFFCURVE",
"512 1629 QCURVE SMOOTH",
"611 1629 OFFCURVE",
"749 1494 OFFCURVE",
"749 1400 QCURVE SMOOTH",
"749 1304 OFFCURVE",
"611 1175 OFFCURVE",
"512 1175 QCURVE SMOOTH",
"411 1175 OFFCURVE",
"275 1304 OFFCURVE",
"275 1400 QCURVE"
);
},
{
closed = 1;
nodes = (
"390 1354 OFFCURVE",
"458 1279 OFFCURVE",
"512 1279 QCURVE SMOOTH",
"566 1279 OFFCURVE",
"634 1351 OFFCURVE",
"634 1400 QCURVE SMOOTH",
"634 1448 OFFCURVE",
"566 1524 OFFCURVE",
"512 1524 QCURVE SMOOTH",
"458 1524 OFFCURVE",
"390 1448 OFFCURVE",
"390 1400 QCURVE"
);
}
);
width = 1024;
}
);
unicode = 02DA;
},
{
glyphname = cedilla;
layers = (
{
layerId = "D8F064C8-C1A6-4DD6-979F-3446BEDB940F";
paths = (
{
closed = 1;
nodes = (
"571 42 LINE",
"541 -58 LINE",
"601 -68 OFFCURVE",
"734 -148 OFFCURVE",
"734 -239 QCURVE SMOOTH",
"734 -337 OFFCURVE",
"551 -459 OFFCURVE",
"339 -459 QCURVE",
"331 -347 LINE",
"460 -347 OFFCURVE",
"542 -297 OFFCURVE",
"542 -241 QCURVE SMOOTH",
"542 -190 OFFCURVE",
"481 -151 OFFCURVE",
"392 -144 QCURVE",
"435 42 LINE"
);
}
);
width = 1024;
}
);
unicode = 00B8;
},
{
glyphname = ogonek;
layers = (
{
layerId = "D8F064C8-C1A6-4DD6-979F-3446BEDB940F";
paths = (
{
closed = 1;
nodes = (
"615 -3 LINE",
"548 -53 OFFCURVE",
"435 -168 OFFCURVE",
"435 -236 QCURVE SMOOTH",
"435 -271 OFFCURVE",
"472 -313 OFFCURVE",
"517 -313 QCURVE SMOOTH",
"552 -313 OFFCURVE",
"606 -293 OFFCURVE",
"622 -284 QCURVE",
"637 -412 LINE",
"611 -428 OFFCURVE",
"530 -459 OFFCURVE",
"468 -459 QCURVE SMOOTH",
"383 -459 OFFCURVE",
"266 -356 OFFCURVE",
"266 -258 QCURVE SMOOTH",
"266 -174 OFFCURVE",
"394 -9 OFFCURVE",
"537 57 QCURVE"
);
}
);
width = 1024;
}
);
unicode = 02DB;
},
{
glyphname = copyright;
layers = (
{
guideLines = (
{
position = "{0, 901}";
},
{
position = "{0, 555}";
}
);
layerId = "D8F064C8-C1A6-4DD6-979F-3446BEDB940F";
paths = (
{
closed = 1;
nodes = (
"1372 538 LINE",
"1372 360 OFFCURVE",
"1108 183 OFFCURVE",
"923 183 QCURVE SMOOTH",
"731 183 OFFCURVE",
"479 425 OFFCURVE",
"479 662 QCURVE SMOOTH",
"479 703 LINE SMOOTH",
"479 940 OFFCURVE",
"732 1189 OFFCURVE",
"942 1189 QCURVE SMOOTH",
"1153 1189 OFFCURVE",
"1373 994 OFFCURVE",
"1373 834 QCURVE",
"1168 834 LINE",
"1168 926 OFFCURVE",
"1052 1019 OFFCURVE",
"941 1019 QCURVE SMOOTH",
"820 1019 OFFCURVE",
"697 874 OFFCURVE",
"697 748 QCURVE SMOOTH",
"697 617 LINE SMOOTH",
"697 489 OFFCURVE",
"831 347 OFFCURVE",
"951 347 QCURVE SMOOTH",
"1063 347 OFFCURVE",
"1167 445 OFFCURVE",
"1167 538 QCURVE"
);
},
{
closed = 1;
nodes = (
"217 386 OFFCURVE",
"642 -27 OFFCURVE",
"940 -27 QCURVE SMOOTH",
"1236 -27 OFFCURVE",
"1661 386 OFFCURVE",
"1661 685 QCURVE SMOOTH",
"1661 986 OFFCURVE",
"1236 1395 OFFCURVE",
"940 1395 QCURVE SMOOTH",
"642 1395 OFFCURVE",
"217 986 OFFCURVE",
"217 685 QCURVE SMOOTH"
);
},
{
closed = 1;
nodes = (
"50 1052 OFFCURVE",
"571 1553 OFFCURVE",
"938 1553 QCURVE SMOOTH",
"1305 1553 OFFCURVE",
"1827 1052 OFFCURVE",
"1827 685 QCURVE SMOOTH",
"1827 321 OFFCURVE",
"1305 -184 OFFCURVE",
"938 -184 QCURVE SMOOTH",
"571 -184 OFFCURVE",
"50 321 OFFCURVE",
"50 685 QCURVE SMOOTH"
);
}
);
width = 1877;
}
);
leftKerningGroup = copyright;
rightKerningGroup = copyright;
unicode = 00A9;
userData = {
com.typemytype.robofont.guideline.magnetic.0Pjz0qKr8z = 5;
com.typemytype.robofont.guideline.magnetic.sJo8BlDiJ7 = 5;
};
},
{
glyphname = registered;
layers = (
{
layerId = "D8F064C8-C1A6-4DD6-979F-3446BEDB940F";
paths = (
{
closed = 1;
nodes = (
"50 1053 OFFCURVE",
"571 1553 OFFCURVE",
"938 1553 QCURVE SMOOTH",
"1304 1553 OFFCURVE",
"1827 1053 OFFCURVE",
"1827 687 QCURVE SMOOTH",
"1827 323 OFFCURVE",
"1304 -180 OFFCURVE",
"938 -180 QCURVE SMOOTH",
"571 -180 OFFCURVE",
"50 323 OFFCURVE",
"50 687 QCURVE SMOOTH"
);
},
{
closed = 1;
nodes = (
"217 389 OFFCURVE",
"641 -23 OFFCURVE",
"940 -23 QCURVE SMOOTH",
"1237 -23 OFFCURVE",
"1661 389 OFFCURVE",
"1661 687 QCURVE SMOOTH",
"1661 987 OFFCURVE",
"1237 1395 OFFCURVE",
"940 1395 QCURVE SMOOTH",
"641 1395 OFFCURVE",
"217 987 OFFCURVE",
"217 687 QCURVE SMOOTH"
);
},
{
closed = 1;
nodes = (
"755 594 LINE",
"755 207 LINE",
"569 207 LINE",
"569 1177 LINE",
"932 1177 LINE SMOOTH",
"1125 1177 OFFCURVE",
"1355 1032 OFFCURVE",
"1355 885 QCURVE SMOOTH",
"1355 767 OFFCURVE",
"1232 638 OFFCURVE",
"1110 615 QCURVE",
"1145 592 OFFCURVE",
"1172 554 OFFCURVE",
"1191 524 QCURVE SMOOTH",
"1383 225 LINE",
"1383 207 LINE",
"1180 207 LINE",
"970 594 LINE"
);
},
{
closed = 1;
nodes = (
"755 1020 LINE",
"755 740 LINE",
"961 740 LINE SMOOTH",
"1043 740 OFFCURVE",
"1150 800 OFFCURVE",
"1150 866 QCURVE SMOOTH",
"1150 950 OFFCURVE",
"1065 1019 OFFCURVE",
"933 1020 QCURVE SMOOTH"
);
}
);
width = 1877;
}
);
leftKerningGroup = copyright;
rightKerningGroup = copyright;
unicode = 00AE;
},
{
glyphname = trademark;
layers = (
{
layerId = "D8F064C8-C1A6-4DD6-979F-3446BEDB940F";
paths = (
{
closed = 1;
nodes = (
"24 1476 LINE",
"760 1476 LINE",
"760 1312 LINE",
"482 1312 LINE",
"482 690 LINE",
"303 690 LINE",
"303 1312 LINE",
"24 1312 LINE"
);
},
{
closed = 1;
nodes = (
"883 1476 LINE",
"1061 1476 LINE",
"1327 873 LINE",
"1335 873 LINE",
"1606 1476 LINE",
"1783 1476 LINE",
"1783 690 LINE",
"1629 690 LINE",
"1629 1184 LINE",
"1616 1184 LINE",
"1402 690 LINE",
"1260 690 LINE",
"1057 1184 LINE",
"1044 1184 LINE",
"1044 690 LINE",
"883 690 LINE"
);
}
);
width = 1881;
}
);
unicode = 2122;
},
{
glyphname = degree;
layers = (
{
layerId = "D8F064C8-C1A6-4DD6-979F-3446BEDB940F";
paths = (
{
closed = 1;
nodes = (
"150 1289 OFFCURVE",
"334 1477 OFFCURVE",
"461 1477 QCURVE SMOOTH",
"586 1477 OFFCURVE",
"767 1289 OFFCURVE",
"767 1160 QCURVE SMOOTH",
"767 1030 OFFCURVE",
"586 847 OFFCURVE",
"461 847 QCURVE SMOOTH",
"334 847 OFFCURVE",
"150 1030 OFFCURVE",
"150 1160 QCURVE"
);
},
{
closed = 1;
nodes = (
"301 1093 OFFCURVE",
"395 1003 OFFCURVE",
"461 1003 QCURVE SMOOTH",
"526 1003 OFFCURVE",
"616 1093 OFFCURVE",
"616 1160 QCURVE SMOOTH",
"616 1228 OFFCURVE",
"526 1321 OFFCURVE",
"461 1321 QCURVE SMOOTH",
"395 1321 OFFCURVE",
"301 1228 OFFCURVE",
"301 1160 QCURVE"
);
}
);
width = 917;
}
);
unicode = 00B0;
},
{
glyphname = diagonalbarL;
layers = (
{
layerId = "D8F064C8-C1A6-4DD6-979F-3446BEDB940F";
paths = (
{
closed = 1;
nodes = (
"0 584 LINE",
"664 995 LINE",
"745 860 LINE",
"80 446 LINE"
);
}
);
width = 741;
}
);
},
{
glyphname = diagonalbarO;
layers = (
{
layerId = "D8F064C8-C1A6-4DD6-979F-3446BEDB940F";
paths = (
{
closed = 1;
nodes = (
"57 86 LINE",
"75 81 LINE",
"281 871 LINE",
"389 803 LINE",
"196 54 LINE",
"216 50 LINE",
"173 -109 LINE",
"3 -109 LINE"
);
},
{
closed = 1;
nodes = (
"623 1618 LINE",
"570 1424 LINE",
"549 1428 LINE",
"389 803 LINE",
"281 871 LINE",
"429 1455 LINE",
"409 1460 LINE",
"452 1618 LINE"
);
}
);
width = 623;
}
);
},
{
glyphname = diagonalbarl;
layers = (
{
layerId = "D8F064C8-C1A6-4DD6-979F-3446BEDB940F";
paths = (
{
closed = 1;
nodes = (
"0 614 LINE",
"275 807 LINE",
"540 1026 LINE",
"620 884 LINE",
"350 690 LINE",
"84 469 LINE"
);
}
);
width = 629;
}
);
},
{
glyphname = diagonalbaro;
layers = (
{
layerId = "D8F064C8-C1A6-4DD6-979F-3446BEDB940F";
paths = (
{
closed = 1;
nodes = (
"-4 89 LINE",
"14 84 LINE",
"215 584 LINE",
"314 514 LINE",
"131 55 LINE",
"151 51 LINE",
"77 -123 LINE",
"-88 -118 LINE"
);
},
{
closed = 1;
nodes = (
"589 1141 LINE",
"511 948 LINE",
"490 953 LINE",
"314 514 LINE",
"215 584 LINE",
"374 981 LINE",
"354 987 LINE",
"418 1144 LINE"
);
}
);
width = 512;
}
);
},
{
glyphname = engtail;
layers = (
{
layerId = "D8F064C8-C1A6-4DD6-979F-3446BEDB940F";
paths = (
{
closed = 1;
nodes = (
"522 190 LINE",
"522 -195 LINE SMOOTH",
"522 -295 OFFCURVE",
"401 -443 OFFCURVE",
"269 -443 QCURVE SMOOTH",
"197 -443 OFFCURVE",
"67 -381 OFFCURVE",
"27 -329 QCURVE",
"90 -254 LINE",
"132 -295 OFFCURVE",
"227 -325 OFFCURVE",
"259 -325 QCURVE SMOOTH",
"304 -325 OFFCURVE",
"344 -249 OFFCURVE",
"344 -165 QCURVE",
"344 -112 OFFCURVE",
"344 255 OFFCURVE",
"344 150 QCURVE",
"407 190 LINE"
);
}
);
width = 629;
}
);
},
{
glyphname = horizontalbarH;
layers = (
{
layerId = "D8F064C8-C1A6-4DD6-979F-3446BEDB940F";
paths = (
{
closed = 1;
nodes = (
"1220 1025 LINE",
"1220 1162 LINE",
"1452 1164 LINE",
"1442 1027 LINE"
);
},
{
closed = 1;
nodes = (
"6 1162 LINE",
"245 1162 LINE",
"245 1025 LINE",
"15 1025 LINE"
);
},
{
closed = 1;
nodes = (
"245 1152 LINE",
"1220 1152 LINE",
"1220 1035 LINE",
"245 1035 LINE"
);
}
);
width = 1458;
}
);
},
{
glyphname = horizontalbarlc;
layers = (
{
layerId = "D8F064C8-C1A6-4DD6-979F-3446BEDB940F";
paths = (
{
closed = 1;
nodes = (
"29 656 LINE",
"40 802 LINE",
"351 802 LINE",
"636 802 LINE",
"636 656 LINE",
"311 656 LINE"
);
}
);
width = 636;
}
);
},
{
glyphname = idotless;
layers = (
{
layerId = "D8F064C8-C1A6-4DD6-979F-3446BEDB940F";
paths = (
{
closed = 1;
nodes = (
"210 1089 LINE",
"402 1089 LINE",
"217 0 LINE",
"24 0 LINE"
);
}
);
width = 497;
}
);
leftKerningGroup = mnpr_LC;
rightKerningGroup = u_LC;
},
{
glyphname = jdotless;
layers = (
{
layerId = "D8F064C8-C1A6-4DD6-979F-3446BEDB940F";
paths = (
{
closed = 1;
nodes = (
"-285 -248 LINE",
"-266 -254 OFFCURVE",
"-191 -268 OFFCURVE",
"-160 -268 QCURVE SMOOTH",
"-97 -268 OFFCURVE",
"-13 -198 OFFCURVE",
"1 -118 QCURVE SMOOTH",
"210 1089 LINE",
"402 1089 LINE",
"201 -90 LINE SMOOTH",
"169 -270 OFFCURVE",
"-8 -436 OFFCURVE",
"-150 -436 QCURVE SMOOTH",
"-192 -436 OFFCURVE",
"-288 -419 OFFCURVE",
"-311 -410 QCURVE"
);
}
);
width = 497;
}
);
rightKerningGroup = j_LC;
},
{
glyphname = zerosuperior;
layers = (
{
layerId = "D8F064C8-C1A6-4DD6-979F-3446BEDB940F";
paths = (
{
closed = 1;
nodes = (
"75 1141 LINE SMOOTH",
"99 1301 OFFCURVE",
"310 1497 OFFCURVE",
"479 1497 QCURVE SMOOTH",
"650 1496 OFFCURVE",
"800 1299 OFFCURVE",
"776 1139 QCURVE SMOOTH",
"761 1035 LINE SMOOTH",
"737 875 OFFCURVE",
"527 679 OFFCURVE",
"357 679 QCURVE SMOOTH",
"187 680 OFFCURVE",
"36 877 OFFCURVE",
"60 1037 QCURVE SMOOTH"
);
},
{
closed = 1;
nodes = (
"224 949 OFFCURVE",
"282 837 OFFCURVE",
"379 837 QCURVE SMOOTH",
"477 836 OFFCURVE",
"569 948 OFFCURVE",
"583 1036 QCURVE SMOOTH",
"599 1140 LINE SMOOTH",
"612 1227 OFFCURVE",
"555 1339 OFFCURVE",
"457 1339 QCURVE SMOOTH",
"360 1340 OFFCURVE",
"267 1228 OFFCURVE",
"253 1140 QCURVE SMOOTH",
"237 1036 LINE SMOOTH"
);
}
);
width = 836;
}
);
},
{
glyphname = gravecomb.case;
layers = (
{
layerId = "D8F064C8-C1A6-4DD6-979F-3446BEDB940F";
paths = (
{
closed = 1;
nodes = (
"205 1905 LINE",
"381 1991 LINE",
"591 1638 LINE",
"469 1580 LINE"
);
}
);
width = 1024;
}
);
},
{
glyphname = acutecomb.case;
layers = (
{
layerId = "D8F064C8-C1A6-4DD6-979F-3446BEDB940F";
paths = (
{
closed = 1;
nodes = (
"608 1981 LINE",
"784 1895 LINE",
"520 1570 LINE",
"398 1628 LINE"
);
}
);
width = 1024;
}
);
},
{
glyphname = circumflexcomb.case;
layers = (
{
layerId = "D8F064C8-C1A6-4DD6-979F-3446BEDB940F";
paths = (
{
closed = 1;
nodes = (
"855 1635 LINE",
"679 1633 LINE",
"505 1826 LINE",
"337 1635 LINE",
"155 1635 LINE",
"425 1992 LINE",
"576 1992 LINE"
);
}
);
width = 1024;
}
);
},
{
glyphname = tildecomb.case;
layers = (
{
layerId = "D8F064C8-C1A6-4DD6-979F-3446BEDB940F";
paths = (
{
closed = 1;
nodes = (
"123 1840 OFFCURVE",
"282 1959 OFFCURVE",
"362 1959 QCURVE SMOOTH",
"411 1959 OFFCURVE",
"497 1927 OFFCURVE",
"541 1898 QCURVE SMOOTH",
"572 1879 OFFCURVE",
"674 1820 OFFCURVE",
"724 1820 QCURVE SMOOTH",
"772 1820 OFFCURVE",
"861 1880 OFFCURVE",
"888 1921 QCURVE",
"960 1832 LINE",
"916 1745 OFFCURVE",
"770 1652 OFFCURVE",
"704 1652 QCURVE SMOOTH",
"648 1652 OFFCURVE",
"536 1703 OFFCURVE",
"502 1727 QCURVE SMOOTH",
"464 1753 OFFCURVE",
"377 1793 OFFCURVE",
"342 1793 QCURVE SMOOTH",
"287 1793 OFFCURVE",
"184 1710 OFFCURVE",
"163 1678 QCURVE",
"84 1768 LINE"
);
}
);
width = 1024;
}
);
},
{
glyphname = macroncomb.case;
layers = (
{
layerId = "D8F064C8-C1A6-4DD6-979F-3446BEDB940F";
paths = (
{
closed = 1;
nodes = (
"201 1838 LINE",
"823 1838 LINE",
"823 1674 LINE",
"201 1674 LINE"
);
}
);
width = 1024;
}
);
},
{
glyphname = brevecomb.case;
layers = (
{
layerId = "D8F064C8-C1A6-4DD6-979F-3446BEDB940F";
paths = (
{
closed = 1;
nodes = (
"915 1919 LINE",
"874 1815 OFFCURVE",
"663 1640 OFFCURVE",
"512 1640 QCURVE SMOOTH",
"378 1640 OFFCURVE",
"160 1801 OFFCURVE",
"110 1920 QCURVE",
"215 1993 LINE",
"260 1927 OFFCURVE",
"412 1817 OFFCURVE",
"512 1817 QCURVE SMOOTH",
"619 1817 OFFCURVE",
"772 1921 OFFCURVE",
"818 1993 QCURVE"
);
}
);
width = 1024;
}
);
},
{
glyphname = dotaccentcomb.case;
layers = (
{
layerId = "D8F064C8-C1A6-4DD6-979F-3446BEDB940F";
paths = (
{
closed = 1;
nodes = (
"385 1858 OFFCURVE",
"450 1922 OFFCURVE",
"512 1922 QCURVE SMOOTH",
"570 1922 OFFCURVE",
"639 1854 OFFCURVE",
"639 1798 QCURVE SMOOTH",
"639 1738 OFFCURVE",
"574 1674 OFFCURVE",
"512 1674 QCURVE SMOOTH",
"454 1674 OFFCURVE",
"385 1742 OFFCURVE",
"385 1798 QCURVE SMOOTH"
);
}
);
width = 1024;
}
);
},
{
glyphname = dieresiscomb.case;
layers = (
{
layerId = "D8F064C8-C1A6-4DD6-979F-3446BEDB940F";
paths = (
{
closed = 1;
nodes = (
"149 1850 OFFCURVE",
"212 1912 OFFCURVE",
"271 1912 QCURVE SMOOTH",
"326 1912 OFFCURVE",
"392 1846 OFFCURVE",
"392 1793 QCURVE SMOOTH",
"392 1736 OFFCURVE",
"330 1674 OFFCURVE",
"271 1674 QCURVE SMOOTH",
"215 1674 OFFCURVE",
"149 1739 OFFCURVE",
"149 1793 QCURVE SMOOTH"
);
},
{
closed = 1;
nodes = (
"632 1850 OFFCURVE",
"695 1912 OFFCURVE",
"754 1912 QCURVE SMOOTH",
"809 1912 OFFCURVE",
"875 1846 OFFCURVE",
"875 1793 QCURVE SMOOTH",
"875 1736 OFFCURVE",
"813 1674 OFFCURVE",
"754 1674 QCURVE SMOOTH",
"698 1674 OFFCURVE",
"632 1739 OFFCURVE",
"632 1793 QCURVE SMOOTH"
);
}
);
width = 1024;
}
);
},
{
glyphname = hookabovecomb.case;
layers = (
{
layerId = "D8F064C8-C1A6-4DD6-979F-3446BEDB940F";
paths = (
{
closed = 1;
nodes = (
"367 1618 LINE SMOOTH",
"367 1673 OFFCURVE",
"429 1746 OFFCURVE",
"509 1758 QCURVE SMOOTH",
"568 1766 OFFCURVE",
"610 1800 OFFCURVE",
"610 1843 QCURVE SMOOTH",
"610 1884 OFFCURVE",
"548 1921 OFFCURVE",
"491 1921 QCURVE SMOOTH",
"424 1921 OFFCURVE",
"306 1887 OFFCURVE",
"296 1878 QCURVE",
"239 2010 LINE",
"276 2030 OFFCURVE",
"438 2073 OFFCURVE",
"524 2073 QCURVE SMOOTH",
"650 2073 OFFCURVE",
"781 1953 OFFCURVE",
"781 1852 QCURVE SMOOTH",
"781 1746 OFFCURVE",
"647 1621 OFFCURVE",
"496 1610 QCURVE",
"496 1577 LINE",
"367 1577 LINE"
);
}
);
width = 1024;
}
);
},
{
glyphname = ringcomb.case;
layers = (
{
layerId = "D8F064C8-C1A6-4DD6-979F-3446BEDB940F";
paths = (
{
closed = 1;
nodes = (
"261 1938 OFFCURVE",
"403 2074 OFFCURVE",
"512 2074 QCURVE SMOOTH",
"621 2074 OFFCURVE",
"763 1938 OFFCURVE",
"763 1833 QCURVE SMOOTH",
"763 1728 OFFCURVE",
"621 1593 OFFCURVE",
"512 1593 QCURVE",
"403 1593 OFFCURVE",
"261 1728 OFFCURVE",
"261 1833 QCURVE SMOOTH"
);
},
{
closed = 1;
nodes = (
"393 1780 OFFCURVE",
"457 1715 OFFCURVE",
"512 1715 QCURVE SMOOTH",
"570 1715 OFFCURVE",
"631 1776 OFFCURVE",
"631 1833 QCURVE SMOOTH",
"631 1887 OFFCURVE",
"567 1952 OFFCURVE",
"512 1952 QCURVE SMOOTH",
"454 1952 OFFCURVE",
"393 1891 OFFCURVE",
"393 1833 QCURVE SMOOTH"
);
}
);
width = 1024;
}
);
},
{
glyphname = caroncomb.case;
layers = (
{
layerId = "D8F064C8-C1A6-4DD6-979F-3446BEDB940F";
paths = (
{
closed = 1;
nodes = (
"155 1990 LINE",
"331 1992 LINE",
"505 1799 LINE",
"673 1990 LINE",
"855 1990 LINE",
"585 1633 LINE",
"434 1633 LINE"
);
}
);
width = 1024;
}
);
},
{
glyphname = breveinvertedcomb.case;
layers = (
{
layerId = "D8F064C8-C1A6-4DD6-979F-3446BEDB940F";
paths = (
{
closed = 1;
nodes = (
"110 1687 LINE",
"151 1790 OFFCURVE",
"362 1966 OFFCURVE",
"513 1966 QCURVE SMOOTH",
"647 1966 OFFCURVE",
"865 1805 OFFCURVE",
"915 1685 QCURVE",
"810 1613 LINE",
"765 1679 OFFCURVE",
"613 1788 OFFCURVE",
"513 1788 QCURVE SMOOTH",
"406 1788 OFFCURVE",
"253 1684 OFFCURVE",
"207 1613 QCURVE"
);
}
);
width = 1024;
}
);
},
{
glyphname = horncomb.case;
layers = (
{
layerId = "D8F064C8-C1A6-4DD6-979F-3446BEDB940F";
paths = (
{
closed = 1;
nodes = (
"449 1533 LINE SMOOTH",
"515 1533 OFFCURVE",
"594 1565 OFFCURVE",
"594 1625 QCURVE SMOOTH",
"594 1668 OFFCURVE",
"582 1745 OFFCURVE",
"573 1783 QCURVE",
"720 1783 LINE",
"738 1750 OFFCURVE",
"774 1635 OFFCURVE",
"774 1573 QCURVE SMOOTH",
"774 1480 OFFCURVE",
"629 1391 OFFCURVE",
"528 1391 QCURVE SMOOTH",
"480 1391 OFFCURVE",
"400 1404 OFFCURVE",
"372 1413 QCURVE",
"372 1533 LINE"
);
}
);
width = 1024;
}
);
},
{
glyphname = commaaccentcomb.case;
layers = (
{
layerId = "D8F064C8-C1A6-4DD6-979F-3446BEDB940F";
paths = (
{
closed = 1;
nodes = (
"356 -559 OFFCURVE",
"395 -382 OFFCURVE",
"428 -236 QCURVE",
"653 -234 LINE",
"509 -672 LINE",
"325 -669 LINE"
);
}
);
width = 1024;
}
);
},
{
glyphname = cedillacomb.case;
layers = (
{
layerId = "D8F064C8-C1A6-4DD6-979F-3446BEDB940F";
paths = (
{
closed = 1;
nodes = (
"571 32 LINE",
"542 -99 LINE",
"625 -114 OFFCURVE",
"755 -211 OFFCURVE",
"755 -291 QCURVE SMOOTH",
"755 -400 OFFCURVE",
"520 -532 OFFCURVE",
"308 -532 QCURVE",
"300 -389 LINE",
"414 -390 OFFCURVE",
"543 -349 OFFCURVE",
"543 -294 QCURVE SMOOTH",
"543 -242 OFFCURVE",
"470 -203 OFFCURVE",
"382 -196 QCURVE",
"425 32 LINE"
);
}
);
width = 1024;
}
);
},
{
glyphname = ogonekcomb.case;
layers = (
{
layerId = "D8F064C8-C1A6-4DD6-979F-3446BEDB940F";
paths = (
{
closed = 1;
nodes = (
"206 -230 OFFCURVE",
"341 -46 OFFCURVE",
"466 51 QCURVE",
"566 -3 LINE",
"455 -113 OFFCURVE",
"387 -212 OFFCURVE",
"387 -259 QCURVE SMOOTH",
"387 -309 OFFCURVE",
"450 -367 OFFCURVE",
"505 -367 QCURVE SMOOTH",
"554 -367 OFFCURVE",
"693 -319 OFFCURVE",
"758 -269 QCURVE",
"818 -377 LINE",
"770 -441 OFFCURVE",
"586 -524 OFFCURVE",
"476 -524 QCURVE SMOOTH",
"366 -524 OFFCURVE",
"206 -406 OFFCURVE",
"206 -324 QCURVE SMOOTH"
);
}
);
width = 1024;
}
);
},
{
glyphname = acutecombstack.case;
layers = (
{
layerId = "D8F064C8-C1A6-4DD6-979F-3446BEDB940F";
paths = (
{
closed = 1;
nodes = (
"617 1936 LINE",
"730 1765 LINE",
"327 1570 LINE",
"245 1692 LINE"
);
}
);
width = 1024;
}
);
},
{
glyphname = brevecombstack.case;
layers = (
{
layerId = "D8F064C8-C1A6-4DD6-979F-3446BEDB940F";
paths = (
{
closed = 1;
nodes = (
"895 1856 LINE",
"856 1764 OFFCURVE",
"656 1610 OFFCURVE",
"512 1610 QCURVE SMOOTH",
"384 1610 OFFCURVE",
"178 1752 OFFCURVE",
"130 1857 QCURVE",
"245 1925 LINE",
"286 1868 OFFCURVE",
"423 1777 OFFCURVE",
"512 1777 QCURVE SMOOTH",
"609 1777 OFFCURVE",
"746 1864 OFFCURVE",
"787 1925 QCURVE"
);
}
);
width = 1024;
}
);
},
{
glyphname = circumflexcombstack.case;
layers = (
{
layerId = "D8F064C8-C1A6-4DD6-979F-3446BEDB940F";
paths = (
{
closed = 1;
nodes = (
"855 1585 LINE",
"685 1583 LINE",
"505 1729 LINE",
"332 1585 LINE",
"155 1585 LINE",
"425 1890 LINE",
"576 1890 LINE"
);
}
);
width = 1024;
}
);
},
{
glyphname = dieresiscombstack.case;
layers = (
{
layerId = "D8F064C8-C1A6-4DD6-979F-3446BEDB940F";
paths = (
{
closed = 1;
nodes = (
"149 1790 OFFCURVE",
"212 1852 OFFCURVE",
"271 1852 QCURVE SMOOTH",
"326 1852 OFFCURVE",
"392 1786 OFFCURVE",
"392 1733 QCURVE SMOOTH",
"392 1676 OFFCURVE",
"330 1614 OFFCURVE",
"271 1614 QCURVE SMOOTH",
"215 1614 OFFCURVE",
"149 1679 OFFCURVE",
"149 1733 QCURVE SMOOTH"
);
},
{
closed = 1;
nodes = (
"632 1790 OFFCURVE",
"695 1852 OFFCURVE",
"754 1852 QCURVE SMOOTH",
"809 1852 OFFCURVE",
"875 1786 OFFCURVE",
"875 1733 QCURVE SMOOTH",
"875 1676 OFFCURVE",
"813 1614 OFFCURVE",
"754 1614 QCURVE SMOOTH",
"698 1614 OFFCURVE",
"632 1679 OFFCURVE",
"632 1733 QCURVE SMOOTH"
);
}
);
width = 1024;
}
);
},
{
glyphname = dotaccentcombstack.case;
layers = (
{
layerId = "D8F064C8-C1A6-4DD6-979F-3446BEDB940F";
paths = (
{
closed = 1;
nodes = (
"385 1858 OFFCURVE",
"450 1922 OFFCURVE",
"512 1922 QCURVE SMOOTH",
"570 1922 OFFCURVE",
"639 1854 OFFCURVE",
"639 1798 QCURVE SMOOTH",
"639 1738 OFFCURVE",
"574 1674 OFFCURVE",
"512 1674 QCURVE SMOOTH",
"454 1674 OFFCURVE",
"385 1742 OFFCURVE",
"385 1798 QCURVE SMOOTH"
);
}
);
width = 1024;
}
);
},
{
glyphname = gravecombstack.case;
layers = (
{
layerId = "D8F064C8-C1A6-4DD6-979F-3446BEDB940F";
paths = (
{
closed = 1;
nodes = (
"245 1765 LINE",
"358 1936 LINE",
"730 1692 LINE",
"648 1570 LINE"
);
}
);
width = 1024;
}
);
},
{
glyphname = hookabovecombstack.case;
layers = (
{
layerId = "D8F064C8-C1A6-4DD6-979F-3446BEDB940F";
paths = (
{
closed = 1;
nodes = (
"354 1603 LINE SMOOTH",
"354 1651 OFFCURVE",
"409 1705 OFFCURVE",
"479 1715 QCURVE SMOOTH",
"532 1722 OFFCURVE",
"559 1751 OFFCURVE",
"559 1789 QCURVE SMOOTH",
"559 1825 OFFCURVE",
"515 1847 OFFCURVE",
"463 1847 QCURVE SMOOTH",
"404 1847 OFFCURVE",
"300 1817 OFFCURVE",
"291 1809 QCURVE",
"241 1934 LINE",
"273 1952 OFFCURVE",
"416 1989 OFFCURVE",
"494 1989 QCURVE SMOOTH",
"605 1989 OFFCURVE",
"720 1885 OFFCURVE",
"720 1797 QCURVE SMOOTH",
"720 1705 OFFCURVE",
"623 1610 OFFCURVE",
"510 1599 QCURVE",
"510 1554 LINE",
"354 1554 LINE"
);
}
);
width = 1024;
}
);
},
{
glyphname = macroncombstack.case;
layers = (
{
layerId = "D8F064C8-C1A6-4DD6-979F-3446BEDB940F";
paths = (
{
closed = 1;
nodes = (
"201 1838 LINE",
"823 1838 LINE",
"823 1674 LINE",
"201 1674 LINE"
);
}
);
width = 1024;
}
);
},
{
glyphname = tildecombstack.case;
layers = (
{
layerId = "D8F064C8-C1A6-4DD6-979F-3446BEDB940F";
paths = (
{
closed = 1;
nodes = (
"197 1858 OFFCURVE",
"328 1935 OFFCURVE",
"398 1935 QCURVE SMOOTH",
"435 1935 OFFCURVE",
"511 1912 OFFCURVE",
"549 1885 QCURVE SMOOTH",
"581 1862 OFFCURVE",
"650 1825 OFFCURVE",
"684 1825 QCURVE SMOOTH",
"726 1825 OFFCURVE",
"775 1867 OFFCURVE",
"797 1908 QCURVE",
"896 1812 LINE",
"862 1735 OFFCURVE",
"742 1657 OFFCURVE",
"674 1657 QCURVE SMOOTH",
"623 1657 OFFCURVE",
"537 1694 OFFCURVE",
"505 1715 QCURVE SMOOTH",
"472 1737 OFFCURVE",
"405 1776 OFFCURVE",
"380 1776 QCURVE SMOOTH",
"342 1776 OFFCURVE",
"278 1718 OFFCURVE",
"258 1686 QCURVE",
"155 1782 LINE"
);
}
);
width = 1024;
}
);
},
{
glyphname = caroncomb.alt;
layers = (
{
layerId = "D8F064C8-C1A6-4DD6-979F-3446BEDB940F";
paths = (
{
closed = 1;
nodes = (
"488 1481 LINE",
"678 1427 LINE",
"514 1057 LINE",
"386 1092 LINE"
);
}
);
width = 1024;
}
);
},
{
glyphname = dollar.rvrn;
layers = (
{
layerId = "D8F064C8-C1A6-4DD6-979F-3446BEDB940F";
paths = (
{
closed = 1;
nodes = (
"10 429 LINE",
"201 429 LINE",
"199 417 LINE SMOOTH",
"178 295 OFFCURVE",
"334 170 OFFCURVE",
"493 170 QCURVE SMOOTH",
"650 170 OFFCURVE",
"836 268 OFFCURVE",
"854 356 QCURVE SMOOTH",
"870 460 OFFCURVE",
"754 602 OFFCURVE",
"522 669 QCURVE SMOOTH",
"294 735 OFFCURVE",
"143 939 OFFCURVE",
"170 1105 QCURVE SMOOTH",
"198 1268 OFFCURVE",
"483 1456 OFFCURVE",
"715 1456 QCURVE SMOOTH",
"945 1456 OFFCURVE",
"1176 1214 OFFCURVE",
"1148 1045 QCURVE SMOOTH",
"1146 1033 LINE",
"954 1033 LINE",
"956 1045 LINE SMOOTH",
"975 1152 OFFCURVE",
"842 1286 OFFCURVE",
"689 1286 QCURVE SMOOTH",
"535 1286 OFFCURVE",
"377 1208 OFFCURVE",
"359 1120 QCURVE SMOOTH",
"345 1033 OFFCURVE",
"457 883 OFFCURVE",
"683 821 QCURVE SMOOTH",
"905 761 OFFCURVE",
"1072 547 OFFCURVE",
"1044 372 QCURVE SMOOTH",
"1015 199 OFFCURVE",
"706 0 OFFCURVE",
"467 0 QCURVE SMOOTH",
"228 0 OFFCURVE",
"-23 227 OFFCURVE",
"9 417 QCURVE SMOOTH"
);
},
{
closed = 1;
nodes = (
"414 141 LINE",
"556 141 LINE",
"550 100 LINE",
"559 90 LINE",
"516 -150 LINE",
"360 -150 LINE"
);
},
{
closed = 1;
nodes = (
"644 1356 LINE",
"635 1366 LINE",
"669 1606 LINE",
"824 1606 LINE",
"775 1314 LINE",
"638 1314 LINE"
);
}
);
width = 1171;
}
);
},
{
glyphname = zero.prop;
layers = (
{
layerId = "D8F064C8-C1A6-4DD6-979F-3446BEDB940F";
paths = (
{
closed = 1;
nodes = (
"110 996 LINE SMOOTH",
"110 1216 OFFCURVE",
"358 1486 OFFCURVE",
"578 1486 QCURVE SMOOTH",
"796 1486 OFFCURVE",
"1046 1216 OFFCURVE",
"1046 996 QCURVE SMOOTH",
"1046 460 LINE SMOOTH",
"1046 240 OFFCURVE",
"796 -30 OFFCURVE",
"578 -30 QCURVE SMOOTH",
"358 -30 OFFCURVE",
"110 240 OFFCURVE",
"110 460 QCURVE SMOOTH"
);
},
{
closed = 1;
nodes = (
"304 310 OFFCURVE",
"438 128 OFFCURVE",
"578 128 QCURVE SMOOTH",
"718 128 OFFCURVE",
"852 310 OFFCURVE",
"852 450 QCURVE SMOOTH",
"852 1006 LINE SMOOTH",
"852 1146 OFFCURVE",
"718 1328 OFFCURVE",
"578 1328 QCURVE SMOOTH",
"438 1328 OFFCURVE",
"304 1146 OFFCURVE",
"304 1006 QCURVE SMOOTH",
"304 450 LINE SMOOTH"
);
}
);
width = 1156;
}
);
},
{
glyphname = one.prop;
layers = (
{
layerId = "D8F064C8-C1A6-4DD6-979F-3446BEDB940F";
paths = (
{
closed = 1;
nodes = (
"393 1245 LINE",
"25 1090 LINE",
"25 1276 LINE",
"555 1476 LINE",
"585 1476 LINE",
"585 0 LINE",
"393 0 LINE"
);
}
);
width = 736;
}
);
},
{
glyphname = two.prop;
layers = (
{
layerId = "D8F064C8-C1A6-4DD6-979F-3446BEDB940F";
paths = (
{
closed = 1;
nodes = (
"26 140 LINE",
"546 700 LINE SMOOTH",
"650 810 OFFCURVE",
"756 980 OFFCURVE",
"756 1080 QCURVE SMOOTH",
"756 1180 OFFCURVE",
"621 1328 OFFCURVE",
"501 1328 QCURVE SMOOTH",
"381 1328 OFFCURVE",
"216 1170 OFFCURVE",
"216 1030 QCURVE SMOOTH",
"216 1020 LINE",
"26 1020 LINE",
"26 1030 LINE SMOOTH",
"26 1230 OFFCURVE",
"301 1486 OFFCURVE",
"501 1486 QCURVE SMOOTH",
"701 1486 OFFCURVE",
"946 1250 OFFCURVE",
"946 1090 QCURVE SMOOTH",
"946 948 OFFCURVE",
"786 716 OFFCURVE",
"671 595 QCURVE SMOOTH",
"256 156 LINE",
"986 156 LINE",
"986 0 LINE",
"26 0 LINE"
);
}
);
width = 988;
}
);
},
{
glyphname = three.prop;
layers = (
{
layerId = "D8F064C8-C1A6-4DD6-979F-3446BEDB940F";
paths = (
{
closed = 1;
nodes = (
"17 390 LINE",
"203 390 LINE",
"203 380 LINE SMOOTH",
"203 260 OFFCURVE",
"363 128 OFFCURVE",
"495 128 QCURVE SMOOTH",
"627 128 OFFCURVE",
"785 260 OFFCURVE",
"785 400 QCURVE SMOOTH",
"785 540 OFFCURVE",
"607 682 OFFCURVE",
"457 682 QCURVE SMOOTH",
"342 682 LINE",
"342 836 LINE",
"447 836 LINE SMOOTH",
"585 836 OFFCURVE",
"735 970 OFFCURVE",
"735 1090 QCURVE SMOOTH",
"735 1210 OFFCURVE",
"605 1328 OFFCURVE",
"495 1328 QCURVE SMOOTH",
"385 1328 OFFCURVE",
"243 1210 OFFCURVE",
"243 1100 QCURVE SMOOTH",
"243 1090 LINE",
"57 1090 LINE",
"57 1100 LINE SMOOTH",
"57 1260 OFFCURVE",
"305 1486 OFFCURVE",
"495 1486 QCURVE SMOOTH",
"685 1486 OFFCURVE",
"927 1270 OFFCURVE",
"927 1100 QCURVE SMOOTH",
"927 1000 OFFCURVE",
"817 816 OFFCURVE",
"701 766 QCURVE",
"701 762 LINE",
"827 730 OFFCURVE",
"979 540 OFFCURVE",
"979 401 QCURVE SMOOTH",
"979 200 OFFCURVE",
"705 -30 OFFCURVE",
"495 -30 QCURVE SMOOTH",
"285 -30 OFFCURVE",
"17 200 OFFCURVE",
"17 380 QCURVE SMOOTH"
);
}
);
width = 1051;
}
);
},
{
glyphname = four.prop;
layers = (
{
layerId = "D8F064C8-C1A6-4DD6-979F-3446BEDB940F";
paths = (
{
closed = 1;
nodes = (
"623 398 LINE",
"623 450 LINE",
"623 1149 LINE",
"611 1149 LINE",
"206 500 LINE",
"674 500 LINE",
"751 500 LINE",
"1007 500 LINE",
"1007 342 LINE",
"-13 342 LINE",
"-13 468 LINE",
"631 1456 LINE",
"803 1456 LINE",
"803 0 LINE",
"623 0 LINE"
);
}
);
width = 1011;
}
);
},
{
glyphname = five.prop;
layers = (
{
layerId = "D8F064C8-C1A6-4DD6-979F-3446BEDB940F";
paths = (
{
closed = 1;
nodes = (
"58 375 LINE",
"242 375 LINE",
"242 365 LINE SMOOTH",
"242 255 OFFCURVE",
"398 128 OFFCURVE",
"528 128 QCURVE SMOOTH",
"658 128 OFFCURVE",
"824 305 OFFCURVE",
"824 465 QCURVE SMOOTH",
"824 625 OFFCURVE",
"658 793 OFFCURVE",
"528 793 QCURVE SMOOTH",
"438 793 OFFCURVE",
"300 728 OFFCURVE",
"240 668 QCURVE",
"108 730 LINE",
"182 1456 LINE",
"938 1456 LINE",
"938 1286 LINE",
"338 1286 LINE",
"294 876 LINE",
"344 906 OFFCURVE",
"478 952 OFFCURVE",
"558 952 QCURVE SMOOTH",
"748 952 OFFCURVE",
"1014 695 OFFCURVE",
"1014 465 QCURVE SMOOTH",
"1014 235 OFFCURVE",
"738 -30 OFFCURVE",
"528 -30 QCURVE SMOOTH",
"318 -30 OFFCURVE",
"58 195 OFFCURVE",
"58 365 QCURVE SMOOTH"
);
}
);
width = 1072;
}
);
},
{
glyphname = six.prop;
layers = (
{
layerId = "D8F064C8-C1A6-4DD6-979F-3446BEDB940F";
paths = (
{
closed = 1;
nodes = (
"80 644 LINE SMOOTH",
"80 1024 OFFCURVE",
"492 1486 OFFCURVE",
"872 1486 QCURVE SMOOTH",
"892 1486 LINE",
"892 1328 LINE",
"872 1328 LINE SMOOTH",
"592 1328 OFFCURVE",
"268 1004 OFFCURVE",
"268 654 QCURVE SMOOTH",
"268 604 LINE SMOOTH",
"268 344 OFFCURVE",
"452 128 OFFCURVE",
"592 128 QCURVE SMOOTH",
"732 128 OFFCURVE",
"886 304 OFFCURVE",
"886 464 QCURVE SMOOTH",
"886 624 OFFCURVE",
"732 798 OFFCURVE",
"592 798 QCURVE SMOOTH",
"462 798 OFFCURVE",
"262 624 OFFCURVE",
"262 464 QCURVE",
"192 464 LINE",
"192 684 OFFCURVE",
"432 956 OFFCURVE",
"632 956 QCURVE SMOOTH",
"832 956 OFFCURVE",
"1076 684 OFFCURVE",
"1076 464 QCURVE SMOOTH",
"1076 244 OFFCURVE",
"802 -30 OFFCURVE",
"592 -30 QCURVE SMOOTH",
"382 -30 OFFCURVE",
"80 274 OFFCURVE",
"80 614 QCURVE SMOOTH"
);
}
);
width = 1136;
}
);
},
{
glyphname = seven.prop;
layers = (
{
layerId = "D8F064C8-C1A6-4DD6-979F-3446BEDB940F";
paths = (
{
closed = 1;
nodes = (
"673 1300 LINE",
"-3 1300 LINE",
"-3 1456 LINE",
"871 1456 LINE",
"871 1352 LINE",
"409 0 LINE",
"213 0 LINE"
);
}
);
width = 882;
}
);
},
{
glyphname = eight.prop;
layers = (
{
layerId = "D8F064C8-C1A6-4DD6-979F-3446BEDB940F";
paths = (
{
closed = 1;
nodes = (
"104 516 OFFCURVE",
"246 698 OFFCURVE",
"358 743 QCURVE",
"358 747 LINE",
"272 790 OFFCURVE",
"150 967 OFFCURVE",
"150 1087 QCURVE SMOOTH",
"150 1267 OFFCURVE",
"398 1486 OFFCURVE",
"578 1486 QCURVE SMOOTH",
"758 1486 OFFCURVE",
"1006 1267 OFFCURVE",
"1006 1087 QCURVE SMOOTH",
"1006 967 OFFCURVE",
"884 790 OFFCURVE",
"798 747 QCURVE",
"798 743 LINE",
"910 698 OFFCURVE",
"1052 516 OFFCURVE",
"1052 386 QCURVE SMOOTH",
"1052 188 OFFCURVE",
"778 -30 OFFCURVE",
"578 -30 QCURVE SMOOTH",
"378 -30 OFFCURVE",
"104 188 OFFCURVE",
"104 386 QCURVE SMOOTH"
);
},
{
closed = 1;
nodes = (
"292 276 OFFCURVE",
"448 128 OFFCURVE",
"578 128 QCURVE SMOOTH",
"708 128 OFFCURVE",
"864 276 OFFCURVE",
"864 396 QCURVE SMOOTH",
"864 516 OFFCURVE",
"708 666 OFFCURVE",
"578 666 QCURVE SMOOTH",
"448 666 OFFCURVE",
"292 516 OFFCURVE",
"292 396 QCURVE SMOOTH"
);
},
{
closed = 1;
nodes = (
"334 967 OFFCURVE",
"468 824 OFFCURVE",
"578 824 QCURVE SMOOTH",
"688 824 OFFCURVE",
"822 967 OFFCURVE",
"822 1077 QCURVE SMOOTH",
"822 1187 OFFCURVE",
"688 1328 OFFCURVE",
"578 1328 QCURVE SMOOTH",
"468 1328 OFFCURVE",
"334 1187 OFFCURVE",
"334 1077 QCURVE SMOOTH"
);
}
);
width = 1156;
}
);
},
{
glyphname = nine.prop;
layers = (
{
layerId = "D8F064C8-C1A6-4DD6-979F-3446BEDB940F";
paths = (
{
closed = 1;
nodes = (
"60 1218 OFFCURVE",
"334 1486 OFFCURVE",
"544 1486 QCURVE SMOOTH",
"754 1486 OFFCURVE",
"1056 1182 OFFCURVE",
"1056 842 QCURVE SMOOTH",
"1056 812 LINE SMOOTH",
"1056 432 OFFCURVE",
"644 -30 OFFCURVE",
"264 -30 QCURVE SMOOTH",
"244 -30 LINE",
"244 128 LINE",
"264 128 LINE SMOOTH",
"544 128 OFFCURVE",
"868 452 OFFCURVE",
"868 802 QCURVE SMOOTH",
"868 852 LINE SMOOTH",
"868 1112 OFFCURVE",
"684 1328 OFFCURVE",
"544 1328 QCURVE SMOOTH",
"404 1328 OFFCURVE",
"250 1157 OFFCURVE",
"250 1002 QCURVE SMOOTH",
"250 847 OFFCURVE",
"404 678 OFFCURVE",
"544 678 QCURVE SMOOTH",
"674 678 OFFCURVE",
"874 847 OFFCURVE",
"874 1002 QCURVE",
"944 1002 LINE",
"944 786 OFFCURVE",
"704 520 OFFCURVE",
"504 520 QCURVE SMOOTH",
"305 520 OFFCURVE",
"60 786 OFFCURVE",
"60 1002 QCURVE SMOOTH"
);
}
);
width = 1136;
}
);
},
{
glyphname = .notdef;
layers = (
{
layerId = "D8F064C8-C1A6-4DD6-979F-3446BEDB940F";
paths = (
{
closed = 1;
nodes = (
"127 1456 LINE",
"127 1402 LINE",
"777 1402 LINE",
"777 1456 LINE"
);
},
{
closed = 1;
nodes = (
"100 1456 LINE",
"100 0 LINE",
"154 0 LINE",
"154 1456 LINE"
);
},
{
closed = 1;
nodes = (
"808 0 LINE",
"754 0 LINE",
"754 1456 LINE",
"808 1456 LINE"
);
},
{
closed = 1;
nodes = (
"127 54 LINE",
"127 0 LINE",
"777 0 LINE",
"777 54 LINE"
);
},
{
closed = 1;
nodes = (
"184 30 LINE",
"126 30 LINE",
"719 1426 LINE",
"777 1426 LINE"
);
},
{
closed = 1;
nodes = (
"777 30 LINE",
"184 1426 LINE",
"126 1426 LINE",
"719 30 LINE"
);
}
